<svg width="30" height="30" viewBox="0 0 30 30" fill="none" xmlns="http://www.w3.org/2000/svg">
<g clip-path="url(#clip0_321_6748)">
<path d="M26.1683 5.5309L20.8949 0.257461C20.7301 0.0925781 20.5066 0 20.2734 0H4.45312C3.96773 0 3.57422 0.393516 3.57422 0.878906V29.1211C3.57422 29.6065 3.96773 30 4.45312 30H25.5469C26.0323 30 26.4258 29.6065 26.4258 29.1211V6.15234C26.4258 5.9192 26.3332 5.69566 26.1683 5.5309ZM21.1523 3.00076L23.425 5.27344H21.1523V3.00076ZM5.33203 28.2422V1.75781H19.3945V6.15234C19.3945 6.63773 19.788 7.03125 20.2734 7.03125H24.668V28.2422H5.33203Z" fill="white"/>
<path d="M14.7425 21.7614C14.3994 21.4182 13.8428 21.4182 13.4996 21.7614L12.5684 22.6926L11.0323 21.1565C11.8266 20.7017 12.3633 19.8462 12.3633 18.8672C12.3633 17.4133 11.1804 16.2305 9.72656 16.2305H7.96875C7.48336 16.2305 7.08984 16.624 7.08984 17.1094V23.7304C7.08984 24.2158 7.48336 24.6093 7.96875 24.6093C8.45414 24.6093 8.84766 24.2158 8.84766 23.7304V21.5039H8.89377L11.3254 23.9355L10.3922 24.8687C10.049 25.2119 10.049 25.7684 10.3922 26.1117C10.7355 26.4549 11.292 26.4549 11.6352 26.1117L12.5684 25.1785L13.4954 26.1056C13.8387 26.4488 14.3951 26.4488 14.7384 26.1056C15.0816 25.7624 15.0816 25.2059 14.7384 24.8626L13.8113 23.9355L14.7426 23.0043C15.0858 22.6611 15.0858 22.1046 14.7425 21.7614ZM8.84766 17.9883H9.72656C10.2112 17.9883 10.6055 18.3826 10.6055 18.8672C10.6055 19.3518 10.2112 19.7461 9.72656 19.7461H8.84766V17.9883Z" fill="white"/>
<path d="M22.0312 8.78906H7.96875C7.48336 8.78906 7.08984 9.18258 7.08984 9.66797C7.08984 10.1534 7.48336 10.5469 7.96875 10.5469H22.0312C22.5166 10.5469 22.9102 10.1534 22.9102 9.66797C22.9102 9.18258 22.5166 8.78906 22.0312 8.78906Z" fill="white"/>
<path d="M22.0312 12.3047H7.96875C7.48336 12.3047 7.08984 12.6982 7.08984 13.1836C7.08984 13.669 7.48336 14.0625 7.96875 14.0625H22.0312C22.5166 14.0625 22.9102 13.669 22.9102 13.1836C22.9102 12.6982 22.5166 12.3047 22.0312 12.3047Z" fill="white"/>
<path d="M7.96875 7.03125H16.7578C17.2432 7.03125 17.6367 6.63773 17.6367 6.15234C17.6367 5.66695 17.2432 5.27344 16.7578 5.27344H7.96875C7.48336 5.27344 7.08984 5.66695 7.08984 6.15234C7.08984 6.63773 7.48336 7.03125 7.96875 7.03125Z" fill="white"/>
<path d="M22.0312 15.8203H16.7578C16.2724 15.8203 15.8789 16.2138 15.8789 16.6992C15.8789 17.1846 16.2724 17.5781 16.7578 17.5781H22.0312C22.5166 17.5781 22.9102 17.1846 22.9102 16.6992C22.9102 16.2138 22.5166 15.8203 22.0312 15.8203Z" fill="white"/>
<path d="M22.0312 19.3359H16.7578C16.2724 19.3359 15.8789 19.7295 15.8789 20.2148C15.8789 20.7002 16.2724 21.0938 16.7578 21.0938H22.0312C22.5166 21.0938 22.9102 20.7002 22.9102 20.2148C22.9102 19.7295 22.5166 19.3359 22.0312 19.3359Z" fill="white"/>
</g>
<defs>
<clipPath id="clip0_321_6748">
<rect width="30" height="30" fill="white"/>
</clipPath>
</defs>
</svg>
