<svg width="16" height="16" viewBox="0 0 16 16" fill="none" xmlns="http://www.w3.org/2000/svg">
<path fill-rule="evenodd" clip-rule="evenodd" d="M7.9935 1.33334C4.3135 1.33334 1.3335 4.32001 1.3335 8.00001C1.3335 11.68 4.3135 14.6667 7.9935 14.6667C11.6802 14.6667 14.6668 11.68 14.6668 8.00001C14.6668 4.32001 11.6802 1.33334 7.9935 1.33334ZM8.66683 8.66668V4.66668H7.3335V8.66668H8.66683ZM8.66683 11.3333V10H7.3335V11.3333H8.66683ZM2.66683 8.00001C2.66683 10.9467 5.0535 13.3333 8.00016 13.3333C10.9468 13.3333 13.3335 10.9467 13.3335 8.00001C13.3335 5.05334 10.9468 2.66668 8.00016 2.66668C5.0535 2.66668 2.66683 5.05334 2.66683 8.00001Z" fill="white"/>
</svg>
