<svg width="20" height="16" viewBox="0 0 20 16" fill="none" xmlns="http://www.w3.org/2000/svg">
<path d="M18.2422 0.382812H1.75781C0.788555 0.382812 0 1.17137 0 2.14062V13.8594C0 14.8286 0.788555 15.6172 1.75781 15.6172H18.2422C19.2114 15.6172 20 14.8286 20 13.8594V2.14062C20 1.17137 19.2114 0.382812 18.2422 0.382812ZM18.8281 13.8594C18.8281 14.1825 18.5653 14.4453 18.2422 14.4453H1.75781C1.43473 14.4453 1.17188 14.1825 1.17188 13.8594V2.14062C1.17188 1.81754 1.43473 1.55469 1.75781 1.55469H18.2422C18.5653 1.55469 18.8281 1.81754 18.8281 2.14062V13.8594Z" fill="white"/>
<path d="M4.10156 6.24219C5.07082 6.24219 5.85938 5.45363 5.85938 4.48438C5.85938 3.51512 5.07082 2.72656 4.10156 2.72656C3.1323 2.72656 2.34375 3.51512 2.34375 4.48438C2.34375 5.45363 3.1323 6.24219 4.10156 6.24219ZM4.10156 3.89844C4.42465 3.89844 4.6875 4.16129 4.6875 4.48438C4.6875 4.80746 4.42465 5.07031 4.10156 5.07031C3.77848 5.07031 3.51562 4.80746 3.51562 4.48438C3.51562 4.16129 3.77848 3.89844 4.10156 3.89844Z" fill="white"/>
<path d="M4.10156 9.75781C3.1323 9.75781 2.34375 10.5464 2.34375 11.5156C2.34375 12.4849 3.1323 13.2734 4.10156 13.2734C5.07082 13.2734 5.85938 12.4849 5.85938 11.5156C5.85938 10.5464 5.07082 9.75781 4.10156 9.75781ZM4.10156 12.1016C3.77848 12.1016 3.51562 11.8387 3.51562 11.5156C3.51562 11.1925 3.77848 10.9297 4.10156 10.9297C4.42465 10.9297 4.6875 11.1925 4.6875 11.5156C4.6875 11.8387 4.42465 12.1016 4.10156 12.1016Z" fill="white"/>
<path d="M10 9.75781C9.03074 9.75781 8.24219 10.5464 8.24219 11.5156C8.24219 12.4849 9.03074 13.2734 10 13.2734C10.9693 13.2734 11.7578 12.4849 11.7578 11.5156C11.7578 10.5464 10.9693 9.75781 10 9.75781ZM10 12.1016C9.67691 12.1016 9.41406 11.8387 9.41406 11.5156C9.41406 11.1925 9.67691 10.9297 10 10.9297C10.3231 10.9297 10.5859 11.1925 10.5859 11.5156C10.5859 11.8387 10.3231 12.1016 10 12.1016Z" fill="white"/>
<path d="M10 6.24219C10.9693 6.24219 11.7578 5.45363 11.7578 4.48438C11.7578 3.51512 10.9693 2.72656 10 2.72656C9.03074 2.72656 8.24219 3.51512 8.24219 4.48438C8.24219 5.45363 9.03074 6.24219 10 6.24219ZM10 3.89844C10.3231 3.89844 10.5859 4.16129 10.5859 4.48438C10.5859 4.80746 10.3231 5.07031 10 5.07031C9.67691 5.07031 9.41406 4.80746 9.41406 4.48438C9.41406 4.16129 9.67691 3.89844 10 3.89844Z" fill="white"/>
<path d="M15.8984 2.72656C14.9292 2.72656 14.1406 3.51512 14.1406 4.48438C14.1406 5.45363 14.9292 6.24219 15.8984 6.24219C16.8677 6.24219 17.6562 5.45363 17.6562 4.48438C17.6562 3.51512 16.8677 2.72656 15.8984 2.72656ZM15.8984 5.07031C15.5754 5.07031 15.3125 4.80746 15.3125 4.48438C15.3125 4.16129 15.5754 3.89844 15.8984 3.89844C16.2215 3.89844 16.4844 4.16129 16.4844 4.48438C16.4844 4.80746 16.2215 5.07031 15.8984 5.07031Z" fill="white"/>
<path d="M15.8984 9.75781C14.9292 9.75781 14.1406 10.5464 14.1406 11.5156C14.1406 12.4849 14.9292 13.2734 15.8984 13.2734C16.8677 13.2734 17.6562 12.4849 17.6562 11.5156C17.6562 10.5464 16.8677 9.75781 15.8984 9.75781ZM15.8984 12.1016C15.5754 12.1016 15.3125 11.8387 15.3125 11.5156C15.3125 11.1925 15.5754 10.9297 15.8984 10.9297C16.2215 10.9297 16.4844 11.1925 16.4844 11.5156C16.4844 11.8387 16.2215 12.1016 15.8984 12.1016Z" fill="white"/>
<path d="M17.0703 7.41406H2.92969C2.60609 7.41406 2.34375 7.67641 2.34375 8C2.34375 8.32359 2.60609 8.58594 2.92969 8.58594H17.0703C17.3939 8.58594 17.6562 8.32359 17.6562 8C17.6562 7.67641 17.3939 7.41406 17.0703 7.41406Z" fill="white"/>
</svg>
