<svg width="20" height="20" viewBox="0 0 20 20" fill="none" xmlns="http://www.w3.org/2000/svg">
<path d="M16.8348 0.622266C16.8558 0.284961 16.5876 0 16.25 0H3.75002C3.41201 0 3.14427 0.285391 3.16521 0.622266L4.33513 19.4504C4.35431 19.7593 4.61045 20 4.91994 20H15.0801C15.3896 20 15.6457 19.7593 15.6649 19.4504C15.696 18.9502 16.8039 1.1198 16.8348 0.622266ZM15.6265 1.17188L15.3853 5.05457C10.7822 6.00852 9.54384 3.4666 4.57455 4.40723L4.37349 1.17188H15.6265ZM14.5294 18.8281H5.4706L4.64779 5.58629C9.31822 4.64668 10.5511 7.13168 15.3102 6.26332L14.5294 18.8281Z" fill="#BDBDBD"/>
<path d="M10 12.9297C8.87996 12.9297 7.96875 13.8409 7.96875 14.9609C7.96875 16.081 8.87996 16.9922 10 16.9922C11.12 16.9922 12.0312 16.081 12.0312 14.9609C12.0312 13.8409 11.12 12.9297 10 12.9297ZM10 15.8203C9.52613 15.8203 9.14062 15.4348 9.14062 14.9609C9.14062 14.4871 9.52613 14.1016 10 14.1016C10.4739 14.1016 10.8594 14.4871 10.8594 14.9609C10.8594 15.4348 10.4739 15.8203 10 15.8203Z" fill="#BDBDBD"/>
<path d="M8.24414 11.7578C8.56775 11.7578 8.83008 11.4955 8.83008 11.1719C8.83008 10.8483 8.56775 10.5859 8.24414 10.5859C7.92054 10.5859 7.6582 10.8483 7.6582 11.1719C7.6582 11.4955 7.92054 11.7578 8.24414 11.7578Z" fill="#BDBDBD"/>
<path d="M10.5879 10.5859C10.9115 10.5859 11.1738 10.3236 11.1738 10C11.1738 9.6764 10.9115 9.41406 10.5879 9.41406C10.2643 9.41406 10.002 9.6764 10.002 10C10.002 10.3236 10.2643 10.5859 10.5879 10.5859Z" fill="#BDBDBD"/>
<path d="M12.3418 12.9297C12.6654 12.9297 12.9277 12.6674 12.9277 12.3438C12.9277 12.0201 12.6654 11.7578 12.3418 11.7578C12.0182 11.7578 11.7559 12.0201 11.7559 12.3438C11.7559 12.6674 12.0182 12.9297 12.3418 12.9297Z" fill="#BDBDBD"/>
<path d="M8.82617 8.78906C9.14978 8.78906 9.41211 8.52673 9.41211 8.20312C9.41211 7.87952 9.14978 7.61719 8.82617 7.61719C8.50257 7.61719 8.24023 7.87952 8.24023 8.20312C8.24023 8.52673 8.50257 8.78906 8.82617 8.78906Z" fill="#BDBDBD"/>
<path d="M11.1738 8.20312C11.4974 8.20312 11.7598 7.94079 11.7598 7.61719C11.7598 7.29358 11.4974 7.03125 11.1738 7.03125C10.8502 7.03125 10.5879 7.29358 10.5879 7.61719C10.5879 7.94079 10.8502 8.20312 11.1738 8.20312Z" fill="#BDBDBD"/>
</svg>
