<svg width="20" height="20" viewBox="0 0 20 20" fill="none" xmlns="http://www.w3.org/2000/svg">
<path d="M18.8911 10.4847L18.7789 9.92399C18.7242 9.65008 18.4837 9.45293 18.2044 9.45293H16.4006L18.3356 2.31238C18.5883 1.3801 18.0696 0.406957 17.1548 0.0969124C16.2398 -0.21321 15.2364 0.244141 14.8703 1.13791L12.3753 7.22656L11.6677 6.80198C11.9017 6.08041 11.775 5.73037 11.8112 3.52599C11.8112 3.20239 11.5488 2.94005 11.2252 2.94005H8.85501C7.42498 2.94005 6.23176 3.97014 5.97648 5.32716C5.47803 4.9348 4.85017 4.69984 4.16805 4.69984H1.79781C1.47421 4.69984 1.21187 4.96219 1.21187 5.28579V7.65606C1.21187 8.33291 1.4432 8.95636 1.83012 9.45297H1.79586C1.51648 9.45297 1.27597 9.65023 1.22128 9.92418L1.10843 10.4894C0.414976 13.9625 1.65429 17.5522 4.3443 19.859C4.45048 19.95 4.58575 20 4.72564 20H15.2727C15.4125 20 15.5477 19.95 15.6539 19.859C18.3459 17.5527 19.5863 13.9607 18.8911 10.4847ZM7.09783 9.39355L10.0356 7.18933C10.3127 7.36039 13.7292 9.40558 13.8083 9.45293H7.09783V9.39355ZM15.9547 1.58225C16.0867 1.25994 16.4487 1.09509 16.7786 1.20681C17.1085 1.31861 17.2956 1.66963 17.2045 2.00585L15.3122 8.98866L13.3918 7.83649L15.9547 1.58225ZM8.85505 4.1119H10.6393C10.6318 5.9333 10.6564 5.92084 10.6168 6.17143L10.3006 5.9817C10.0963 5.85908 9.83807 5.87248 9.64744 6.01545L7.09779 7.92849C7.09673 7.32598 7.09732 6.56995 7.09716 5.86978C7.0972 4.90047 7.88577 4.1119 8.85505 4.1119ZM2.38376 5.8717H4.16809C5.12904 5.8717 5.91191 6.64686 5.92531 7.60473C5.92542 7.75774 5.92585 8.43228 5.92593 8.58522L4.56919 7.22848C4.3404 6.99968 3.96937 6.99968 3.74054 7.22848C3.51171 7.45727 3.51171 7.82829 3.74054 8.05712L5.09728 9.41386H4.1416C3.17233 9.41386 2.38376 8.6253 2.38376 7.65602V5.8717ZM15.0519 18.8281H4.94642C1.06057 15.3265 2.27716 10.6367 2.27638 10.6248H17.724C17.7237 10.6292 18.776 15.4744 15.0519 18.8281Z" fill="#BDBDBD"/>
</svg>
