<svg width="16" height="20" viewBox="0 0 16 20" fill="none" xmlns="http://www.w3.org/2000/svg">
<path d="M5.75965 9.4402C6.82652 7.52508 6.80801 5.68793 5.68559 3.76055V1.75977C5.68559 0.789414 4.89613 0 3.92578 0C2.95543 0 2.16602 0.789414 2.16602 1.75977V3.76734C1.02828 5.72535 1.04914 7.56086 2.09535 9.43934C1.16258 9.67344 0.469727 10.519 0.469727 11.5234V19.4141C0.469727 19.7377 0.73207 20 1.05566 20H6.7959C7.11949 20 7.38183 19.7377 7.38183 19.4141V11.5234C7.38187 10.5203 6.69074 9.67547 5.75965 9.4402ZM1.6416 12.9297H6.20996V16.4453H1.6416V12.9297ZM2.61816 10.5469H2.75586C3.07945 10.5469 3.3418 10.2845 3.3418 9.96094C3.32387 9.49813 3.39105 9.32481 3.25602 9.10352C2.25309 7.46055 2.20176 5.95848 3.25238 4.23312C3.40168 3.98801 3.3107 3.94812 3.33785 1.75977C3.33785 1.43559 3.60156 1.17188 3.92574 1.17188C4.24992 1.17188 4.51367 1.43559 4.51367 1.75977C4.54094 3.94176 4.44976 3.98191 4.59945 4.22719C5.62062 5.90023 5.63633 7.40477 4.59945 9.10355C4.46414 9.32523 4.53152 9.50012 4.51367 9.96094C4.51367 10.2845 4.77601 10.5469 5.09961 10.5469H5.2334C5.77187 10.5469 6.20996 10.985 6.20996 11.5234V11.7578H1.6416V11.5234C1.6416 10.985 2.07969 10.5469 2.61816 10.5469ZM1.6416 18.8281V17.6172H6.20996V18.8281H1.6416Z" fill="#BDBDBD"/>
<path d="M13.9081 9.4402C14.975 7.52508 14.9564 5.68793 13.834 3.76055V1.75977C13.834 0.789414 13.0446 0 12.0743 0C11.1039 0 10.3145 0.789414 10.3145 1.75977V3.76734C9.17465 5.72898 9.19973 7.56453 10.2438 9.43934C9.31098 9.67344 8.61816 10.5191 8.61816 11.5235V19.4141C8.61816 19.7377 8.88051 20 9.2041 20H14.9443C15.2679 20 15.5303 19.7377 15.5303 19.4141V11.5234C15.5303 10.5203 14.8392 9.67547 13.9081 9.4402ZM9.79004 12.9297H14.3584V16.4453H9.79004V12.9297ZM10.7666 10.5469H10.9043C11.2279 10.5469 11.4902 10.2845 11.4902 9.96094C11.4723 9.49813 11.5395 9.32484 11.4045 9.10355C10.3514 7.37836 10.4004 5.87598 11.4008 4.23312C11.5501 3.98801 11.4591 3.94812 11.4863 1.75977C11.4863 1.43559 11.75 1.17188 12.0742 1.17188C12.3984 1.17188 12.6621 1.43559 12.6621 1.75977C12.6894 3.94176 12.5982 3.98191 12.7479 4.22719C13.2612 5.06809 13.5214 5.8884 13.5214 6.66535C13.5214 7.4423 13.2612 8.26266 12.7479 9.10355C12.6126 9.32523 12.68 9.50012 12.6621 9.96094C12.6621 10.2845 12.9245 10.5469 13.248 10.5469H13.3818C13.9203 10.5469 14.3584 10.985 14.3584 11.5234V11.7578H9.79004V11.5234C9.79004 10.985 10.2281 10.5469 10.7666 10.5469ZM9.79004 18.8281V17.6172H14.3584V18.8281H9.79004Z" fill="#BDBDBD"/>
</svg>
