<svg width="20" height="20" viewBox="0 0 20 20" fill="none" xmlns="http://www.w3.org/2000/svg">
<g clip-path="url(#clip0_274_5084)">
<path d="M5.41802 12.1348C5.10404 12.2131 4.91294 12.5311 4.99123 12.8451C5.00896 12.9161 4.94439 12.9751 4.87853 12.9553C4.56845 12.8629 4.24204 13.0393 4.14958 13.3494C4.05712 13.6596 4.23353 13.9859 4.54365 14.0784C5.47931 14.3573 6.36545 13.5126 6.1283 12.5616C6.05002 12.2476 5.73201 12.0564 5.41802 12.1348Z" fill="#BDBDBD"/>
<path d="M7.91864 10.8216C8.85427 11.1005 9.74045 10.2559 9.50334 9.30484C9.42505 8.99082 9.10701 8.79972 8.79302 8.87804C8.47904 8.95633 8.28794 9.27437 8.36622 9.58836C8.384 9.65941 8.31931 9.71836 8.25353 9.69859C7.94337 9.60629 7.61708 9.78257 7.52458 10.0927C7.43212 10.4028 7.60856 10.7291 7.91864 10.8216Z" fill="#BDBDBD"/>
<path d="M11.9848 11.1008L11.1562 10.2721C10.9275 10.0434 10.5563 10.0433 10.3275 10.2721C9.67951 10.9791 9.24134 11.1922 9.05138 11.8606C7.44904 12.6114 6.94431 14.6381 8.03122 15.772C8.91083 16.6895 10.4394 16.6019 11.432 15.6505C12.0994 15.0107 12.3978 14.0951 12.23 13.2795C12.6517 12.6117 12.5858 11.7016 11.9848 11.1008ZM10.3276 11.9294L10.7418 11.5151C11.0331 11.8492 11.3278 11.9741 11.3278 12.3438C11.3278 12.8615 10.6965 13.127 10.3276 12.7581C10.0985 12.529 10.0985 12.1584 10.3276 11.9294ZM8.87724 14.961C8.45888 14.5246 8.54974 13.6952 9.18306 13.1573C9.53302 13.8259 10.2804 14.2152 11.062 14.0722C10.792 15.0885 9.49966 15.6103 8.87724 14.961Z" fill="#BDBDBD"/>
<path d="M19.7968 1.95789C19.5517 1.74644 19.1817 1.77371 18.9704 2.01879L16.1621 5.27381C15.9517 5.51784 15.5826 5.54561 15.338 5.3367C15.3327 5.33209 13.5414 3.78691 13.5366 3.7828C13.3057 3.56694 13.2863 3.21206 13.4933 2.97195L15.221 0.969064C15.4324 0.724026 15.4051 0.354027 15.1601 0.142661C14.915 -0.0687055 14.545 -0.0413618 14.3337 0.203637L12.6058 2.20664C12.1366 2.75089 12.0553 3.4914 12.3424 4.10018L11.111 5.56135C6.14129 3.028 0.121745 6.52697 0.00174529 12.2021C-0.0874731 16.4217 3.25501 19.9094 7.47527 19.9986C11.5599 20.0858 14.9052 16.969 15.2451 13.0215C15.3963 11.2652 14.9378 9.51563 13.9524 8.06923L15.2117 6.57494C15.8502 6.76685 16.5775 6.58654 17.0495 6.0392L19.8577 2.78433C20.069 2.53929 20.0418 2.16929 19.7968 1.95789ZM13.132 4.98167C13.2445 5.07862 12.7267 4.63202 14.2264 5.92565L12.8524 7.55611L11.7579 6.61221L13.132 4.98167ZM7.50004 18.827C3.92794 18.7515 1.0978 15.7996 1.17334 12.227C1.19487 11.2092 1.44947 10.2324 1.9101 9.35704C2.43134 10.8147 3.69489 11.3057 4.65731 10.9504C5.97614 10.4637 6.44992 8.65333 5.06005 7.76212C4.78716 7.58712 4.4172 7.65037 4.23821 7.92068C4.05548 8.19665 4.1372 8.5672 4.4161 8.74142C4.99856 9.10532 4.65481 9.7022 4.25157 9.85102C3.89993 9.98063 3.5797 9.77321 3.37294 9.57614C3.18158 9.3938 2.98392 9.06771 2.93056 8.68642C2.86755 8.23619 3.04912 7.78666 3.39161 7.48767C5.33243 5.79358 8.05546 5.41495 10.3764 6.50568C10.3105 6.72123 10.3726 6.96478 10.5539 7.12119L11.0737 7.56943L10.5964 8.09236C10.3837 8.32536 10.3797 8.68927 10.6024 8.91271C10.8401 9.1513 11.2261 9.14063 11.4507 8.89462L11.9614 8.33509L12.5358 8.83048C12.6922 8.9654 12.913 9.01228 13.1198 8.93649C15.8286 13.2634 12.6417 18.9361 7.50004 18.827Z" fill="#BDBDBD"/>
</g>
<defs>
<clipPath id="clip0_274_5084">
<rect width="20" height="20" fill="white"/>
</clipPath>
</defs>
</svg>
