<svg width="20" height="20" viewBox="0 0 20 20" fill="none" xmlns="http://www.w3.org/2000/svg">
<g clip-path="url(#clip0_274_5081)">
<path d="M13.5217 14.7237C13.4808 14.4107 13.7105 13.4599 12.9257 12.581C13.8911 11.1175 14.6869 9.32188 14.3213 7.60844L16.1479 7.282C17.8619 6.97571 18.2288 4.68243 16.7095 3.84824C17.0653 3.31418 17.1988 2.67449 17.0856 2.04074C16.8453 0.696679 15.5564 -0.201251 14.2121 0.0388663C13.5784 0.152148 13.0245 0.498984 12.6467 1.01781C11.3375 -0.118673 9.31349 1.02055 9.61978 2.73391L9.94619 4.56004C8.09986 4.82969 6.61615 6.36106 5.54525 7.8979C3.21767 11.2382 0.314977 18.0508 2.6581 19.6832C4.32216 20.8425 7.31002 18.5463 8.83252 17.2054V17.6541C8.83252 18.9469 9.88431 19.9987 11.1771 19.9987C11.9647 19.9987 12.6624 19.6079 13.0878 19.0104C14.8715 21.0183 18.207 19.7563 18.207 17.0672C18.2069 14.6478 15.4336 13.2877 13.5217 14.7237ZM12.3499 14.1407V15.3115H10.0043V14.1407C10.0043 13.494 10.5304 12.9679 11.1771 12.9679C11.8238 12.9679 12.3499 13.494 12.3499 14.1407ZM11.3177 1.74648C11.6835 1.68125 12.0337 1.92535 12.099 2.29082C12.0997 2.29496 12.2133 2.92996 12.2101 2.91211C12.267 3.23063 12.5715 3.4425 12.8899 3.38578C13.2085 3.32883 13.4205 3.02446 13.3636 2.70594C13.2367 1.99625 13.7084 1.31926 14.4183 1.19238C15.1263 1.06574 15.8054 1.53895 15.932 2.24695C15.9933 2.58992 15.9174 2.93625 15.7182 3.22211C15.3779 3.71035 14.8817 3.75875 14.8773 3.76051C14.5588 3.81742 14.3467 4.1218 14.4036 4.44035C14.4606 4.75887 14.7649 4.9709 15.0835 4.91403L15.7048 4.80297C16.0705 4.73762 16.4208 4.98184 16.4861 5.34727C16.5516 5.71356 16.3082 6.06297 15.9418 6.12844L13.8919 6.49477C13.3072 5.49661 12.2359 4.77141 11.1394 4.57614L10.7732 2.52762C10.7078 2.16137 10.9513 1.81195 11.3177 1.74648ZM3.32795 18.7217C2.92564 18.4414 2.71744 17.2557 3.45459 14.8363C3.51713 14.6309 3.58521 14.4223 3.65795 14.2113L4.51759 14.8102C4.78193 14.9943 5.14748 14.9311 5.33326 14.6644C5.51826 14.3989 5.45295 14.0337 5.18744 13.8487L4.0847 13.0805C4.57193 11.8883 5.18263 10.6739 5.84263 9.58966L7.39951 10.6743C7.66384 10.8585 8.02947 10.7951 8.21517 10.5285C8.40013 10.263 8.33486 9.89778 8.06935 9.71282L6.48048 8.60591C7.4417 7.21887 8.89478 5.63633 10.5758 5.69496C10.5975 5.69735 10.6194 5.69832 10.6415 5.69825C11.7779 5.76723 12.9662 6.64719 13.1954 7.95481C13.302 8.56325 13.2121 9.2629 12.9344 10.0304L11.0614 8.72548C10.7959 8.54055 10.4307 8.60583 10.2458 8.8713C10.0608 9.1368 10.1261 9.502 10.3916 9.68696L12.441 11.1148C12.2972 11.3802 12.134 11.6516 11.9522 11.9283C10.7144 11.4933 9.36568 12.1639 8.95302 13.4003L8.17947 12.8614C7.914 12.6765 7.5488 12.7418 7.3638 13.0072C7.1788 13.2727 7.24412 13.6379 7.50962 13.8229L8.83255 14.7445V15.6127C7.85509 16.557 4.43306 19.4917 3.32795 18.7217ZM12.3499 17.6541C12.3499 18.3008 11.8238 18.8269 11.1771 18.8269C10.5304 18.8269 10.0044 18.3008 10.0044 17.6541V16.4833H12.3499C12.3499 16.4892 12.3499 17.6498 12.3499 17.6541ZM15.2774 18.825C14.3342 18.825 13.5624 18.0781 13.5217 17.1447V16.9898C13.5624 16.0564 14.3342 15.3095 15.2774 15.3095C16.2466 15.3095 17.0351 16.098 17.0351 17.0672C17.0351 18.0365 16.2467 18.825 15.2774 18.825Z" fill="#BDBDBD"/>
</g>
<defs>
<clipPath id="clip0_274_5081">
<rect width="20" height="20" fill="white"/>
</clipPath>
</defs>
</svg>
