<svg width="20" height="20" viewBox="0 0 20 20" fill="none" xmlns="http://www.w3.org/2000/svg">
<g clip-path="url(#clip0_274_5090)">
<path d="M17.0517 11.7578H14.0804C14.0663 9.62215 12.907 7.73684 11.1514 6.72188V4.72656C11.475 4.72656 11.7373 4.46422 11.7373 4.14062C11.7373 3.81703 11.475 3.55469 11.1514 3.55469H10.6699L11.1436 0.681211C11.2022 0.325156 10.9275 0 10.5654 0H5.87793C5.51707 0 5.2409 0.323984 5.29981 0.681211L5.77344 3.55469H5.29199C4.9684 3.55469 4.70605 3.81703 4.70605 4.14062C4.70605 4.46422 4.9684 4.72656 5.29199 4.72656V6.72188C3.5318 7.73945 2.3623 9.63937 2.3623 11.7969V19.4141C2.3623 19.7377 2.62465 20 2.94824 20H16.4248C16.7284 20 16.9816 19.7682 17.0084 19.4658L17.6354 12.3955C17.6657 12.0529 17.3956 11.7578 17.0517 11.7578ZM6.56832 1.17188H9.87496L9.48219 3.55469H6.96109L6.56832 1.17188ZM3.53418 11.7969C3.53418 10.0046 4.53219 8.3952 6.13871 7.59676C6.33793 7.49773 6.46387 7.29449 6.46387 7.07203V4.72656C6.47816 4.72656 9.14414 4.72664 9.97949 4.72664V7.07203C9.97949 7.29445 10.1055 7.49773 10.3046 7.59676C11.8995 8.38938 12.8941 9.98129 12.9085 11.7578H11.7319C11.6312 9.90887 10.0953 8.43555 8.22164 8.43555C6.28313 8.43555 4.70602 10.0127 4.70602 11.9512V17.0312C4.70602 17.3548 4.96836 17.6172 5.29195 17.6172H9.81043L9.91113 18.8281H3.53418V11.7969ZM9.95996 11.7578C9.6175 11.7578 9.34766 12.0508 9.37606 12.3923L9.71305 16.4453H5.87793V11.9512C5.87793 10.6588 6.92934 9.60742 8.22168 9.60742C9.44887 9.60742 10.4581 10.5557 10.5568 11.7578H9.95996ZM11.0871 18.8281L10.5966 12.9297H16.4115L16.3076 14.1016H14.665C14.3414 14.1016 14.0791 14.3639 14.0791 14.6875C14.0791 15.0111 14.3414 15.2734 14.665 15.2734H16.2037L16.0998 16.4453H14.6689C14.3454 16.4453 14.083 16.7077 14.083 17.0312C14.083 17.3548 14.3454 17.6172 14.6689 17.6172H15.9959L15.8885 18.8281C15.1713 18.8281 11.6757 18.8281 11.0871 18.8281Z" fill="#BDBDBD"/>
</g>
<defs>
<clipPath id="clip0_274_5090">
<rect width="20" height="20" fill="white"/>
</clipPath>
</defs>
</svg>
