<svg width="20" height="20" viewBox="0 0 20 20" fill="none" xmlns="http://www.w3.org/2000/svg">
<g clip-path="url(#clip0_274_5064)">
<path d="M19.8215 11.9035L18.7891 10.9043V8.80892C18.7891 8.48532 18.5267 8.22298 18.2031 8.22298H17.0277C16.9807 6.63443 16.4157 5.08587 15.4242 3.84087C14.3879 2.53962 12.9243 1.61794 11.303 1.24564C10.8191 1.13446 10.4238 1.64079 10.6502 2.08349C11.2552 3.26657 10.3947 4.66825 9.06879 4.66825H7.07031C4.9941 4.66825 3.27352 6.21896 3.00531 8.22294H1.79688C1.47328 8.22294 1.21094 8.48529 1.21094 8.80888V10.9043L0.178477 11.9035C0.064375 12.0139 0 12.1658 0 12.3245V17.012C0 17.9813 0.788555 18.7699 1.75781 18.7699H18.2422C19.2114 18.7699 20 17.9813 20 17.012V12.3245C20 12.1658 19.9356 12.0139 19.8215 11.9035ZM7.07031 5.84017H9.06883C10.8319 5.84017 12.1254 4.33579 12.013 2.69505C14.2555 3.6095 15.7721 5.74829 15.8556 8.22298H4.19258C4.44957 6.8681 5.6418 5.84017 7.07031 5.84017ZM17.6172 9.39486V10.5667H2.38281V9.39486H17.6172ZM2.03395 11.7386H17.966L18.8281 12.5729V14.0628H13.5156C13.192 14.0628 12.9297 14.3252 12.9297 14.6488C12.9297 17.1761 9.94375 18.4936 8.07105 16.8539C6.15195 15.1735 3.72012 14.1983 1.17188 14.0762V12.5729L2.03395 11.7386ZM1.17188 17.012V15.2499C3.36523 15.367 5.4591 16.1888 7.13832 17.598H1.75781C1.43473 17.598 1.17188 17.3351 1.17188 17.012ZM18.2422 17.598H12.8473C13.4873 16.98 13.9274 16.1564 14.0598 15.2347H18.8281V17.012C18.8281 17.3351 18.5653 17.598 18.2422 17.598Z" fill="#BDBDBD"/>
<path d="M8.82812 15.2738H9.41406V15.8597C9.41406 16.1833 9.67641 16.4456 10 16.4456C10.3236 16.4456 10.5859 16.1833 10.5859 15.8597V15.2738H11.1719C11.4955 15.2738 11.7578 15.0114 11.7578 14.6878C11.7578 14.3642 11.4955 14.1019 11.1719 14.1019H10.5859V13.4769C10.5859 13.1533 10.3236 12.891 10 12.891C9.67641 12.891 9.41406 13.1533 9.41406 13.4769V14.1019H8.82812C8.50453 14.1019 8.24219 14.3642 8.24219 14.6878C8.24219 15.0114 8.50453 15.2738 8.82812 15.2738Z" fill="#BDBDBD"/>
</g>
<defs>
<clipPath id="clip0_274_5064">
<rect width="20" height="20" fill="white"/>
</clipPath>
</defs>
</svg>
