<svg width="16" height="20" viewBox="0 0 16 20" fill="none" xmlns="http://www.w3.org/2000/svg">
<path d="M6.97777 12.3597L6.82745 12.3084V10.9765H7.41339C7.73698 10.9765 7.99933 10.7142 7.99933 10.3906V8.0488C7.99933 7.7252 7.73698 7.46286 7.41339 7.46286H1.94465C1.62105 7.46286 1.35871 7.7252 1.35871 8.0488V10.3906C1.35871 10.7142 1.62105 10.9765 1.94465 10.9765H2.53058V12.3012L2.49371 12.312C1.35262 12.646 0.555664 13.7097 0.555664 14.8987V19.414C0.555664 19.7376 0.818007 20 1.1416 20H8.21648C8.54007 20 8.80241 19.7376 8.80241 19.414V14.9106C8.80241 13.7573 8.06913 12.7322 6.97777 12.3597ZM2.53058 8.63474H6.82745V9.80466C6.30113 9.80466 3.19539 9.80466 2.53058 9.80466V8.63474ZM5.65558 10.9765V12.1484H3.70246V10.9765H5.65558ZM7.63054 18.8281H1.7275V14.8987C1.7275 14.2267 2.17793 13.6254 2.82289 13.4366L3.22039 13.3203H6.16413L6.59921 13.4688C7.21609 13.6793 7.6305 14.2588 7.6305 14.9106V18.8281H7.63054Z" fill="#2FD3AE"/>
<path d="M14.8574 16.4453H14.8555V6.48438C14.8555 6.16145 14.5942 5.89961 14.2715 5.89852V4.14062C14.2715 3.81703 14.0091 3.55469 13.6855 3.55469H13.0977V0.585938C13.0977 0.262344 12.8353 0 12.5117 0C12.1881 0 11.9258 0.262344 11.9258 0.585938V3.55469H11.3418C11.0182 3.55469 10.7559 3.81703 10.7559 4.14062V5.89844H10.7539C10.4303 5.89844 10.168 6.16078 10.168 6.48438V16.4454C9.84527 16.4464 9.58398 16.7083 9.58398 17.0312C9.58398 17.3548 9.84633 17.6172 10.1699 17.6172H11.9258V18.8281H10.7579C10.4343 18.8281 10.1719 19.0905 10.1719 19.4141C10.1719 19.7377 10.4343 20 10.7579 20H14.2695C14.5931 20 14.8555 19.7377 14.8555 19.4141C14.8555 19.0905 14.5931 18.8281 14.2695 18.8281H13.0977V17.6172H14.8574C15.181 17.6172 15.4434 17.3548 15.4434 17.0312C15.4434 16.7077 15.181 16.4453 14.8574 16.4453ZM11.3398 16.4453V7.07031H13.532C13.5804 7.08344 13.6311 7.09105 13.6836 7.09125V8.24219H13.0797C12.7561 8.24219 12.4938 8.50453 12.4938 8.82812C12.4938 9.15172 12.7561 9.41406 13.0797 9.41406H13.6836V10.5859H13.0797C12.7561 10.5859 12.4938 10.8483 12.4938 11.1719C12.4938 11.4955 12.7561 11.7578 13.0797 11.7578H13.6836V12.9297H13.0797C12.7561 12.9297 12.4938 13.192 12.4938 13.5156C12.4938 13.8392 12.7561 14.1016 13.0797 14.1016H13.6836V16.4453H11.3398ZM11.9277 4.72656H13.0996V5.89844H11.9277V4.72656Z" fill="#2FD3AE"/>
</svg>
