<svg width="11" height="11" viewBox="0 0 11 11" fill="none" xmlns="http://www.w3.org/2000/svg">
<path d="M8.02238 0H2.97759C1.33572 0 0 1.33572 0 2.97759V8.02247C0 9.66426 1.33572 11 2.97759 11H8.02247C9.66426 11 11 9.66426 11 8.02247V2.97759C11 1.33572 9.66426 0 8.02238 0V0ZM5.49999 8.50771C3.8415 8.50771 2.49227 7.15848 2.49227 5.49999C2.49227 3.8415 3.8415 2.49227 5.49999 2.49227C7.15848 2.49227 8.50771 3.8415 8.50771 5.49999C8.50771 7.15848 7.15848 8.50771 5.49999 8.50771ZM8.57963 3.20159C8.08952 3.20159 7.69089 2.80295 7.69089 2.31284C7.69089 1.82273 8.08952 1.42401 8.57963 1.42401C9.06975 1.42401 9.46846 1.82273 9.46846 2.31284C9.46846 2.80295 9.06975 3.20159 8.57963 3.20159Z" fill="#2FD3AE"/>
<path d="M5.53906 3.54C4.43631 3.54 3.53906 4.43718 3.53906 5.54C3.53906 6.64275 4.43631 7.54 5.53906 7.54C6.64189 7.54 7.53906 6.64275 7.53906 5.54C7.53906 4.43718 6.64189 3.54 5.53906 3.54Z" fill="#2FD3AE"/>
<path d="M8.57982 2.06895C8.44537 2.06895 8.33594 2.17839 8.33594 2.31284C8.33594 2.44728 8.44537 2.55672 8.57982 2.55672C8.71435 2.55672 8.82378 2.44736 8.82378 2.31284C8.82378 2.17831 8.71435 2.06895 8.57982 2.06895Z" fill="#2FD3AE"/>
</svg>
