<svg width="32" height="32" viewBox="0 0 32 32" fill="none" xmlns="http://www.w3.org/2000/svg">
<path d="M16.7829 9.17431C12.5808 9.17431 9.17431 12.5808 9.17431 16.7829L9.17431 25.156C9.17431 28.9358 12.2385 32 16.0183 32V32C19.7982 32 22.8624 28.9358 22.8624 25.156L22.8624 23.6931C22.8624 23.2343 23.2343 22.8624 23.6931 22.8624L25.156 22.8624C28.9358 22.8624 32 19.7982 32 16.0183V16.0183C32 12.2385 28.9358 9.17431 25.156 9.17431L16.7829 9.17431Z" fill="#2FD3AE"/>
<path fill-rule="evenodd" clip-rule="evenodd" d="M15.9817 0C19.7615 0 22.8257 3.06418 22.8257 6.84404V19.0214C22.8257 21.1225 21.1225 22.8257 19.0214 22.8257H6.84404C3.06418 22.8257 0 19.7615 0 15.9817V15.9817C0 12.2018 3.06418 9.13761 6.84404 9.13761H8.30692C8.7657 9.13761 9.13761 8.7657 9.13761 8.30692V6.84404C9.13761 3.06418 12.2018 0 15.9817 0V0ZM19.1193 7.9633C17.309 5.8891 16.0971 5.14474 13.5046 4.73395C13.5046 4.73395 15.5229 2.78899 17.7248 4.22018C19.9266 5.65138 19.1193 7.9633 19.1193 7.9633Z" fill="#011D71"/>
</svg>
