<svg width="20" height="20" viewBox="0 0 20 20" fill="none" xmlns="http://www.w3.org/2000/svg">
<path d="M11.4497 5.70711L12.1569 6.41421L8.97487 9.59619L8.62132 9.94975L8.97487 10.3033L12.1569 13.4853L11.4497 14.1924L7.20711 9.94975L11.4497 5.70711ZM10 18.5C14.6944 18.5 18.5 14.6944 18.5 10C18.5 5.30558 14.6944 1.5 10 1.5C5.30558 1.5 1.5 5.30558 1.5 10C1.5 14.6944 5.30558 18.5 10 18.5ZM19.5 10C19.5 15.2467 15.2467 19.5 10 19.5C4.75329 19.5 0.5 15.2467 0.5 10C0.5 4.75329 4.7533 0.5 10 0.5C15.2467 0.5 19.5 4.7533 19.5 10Z" fill="#E5E5E5" stroke="#B8B8B8"/>
</svg>
