<svg width="16" height="20" viewBox="0 0 16 20" fill="none" xmlns="http://www.w3.org/2000/svg">
<path d="M15.7964 10.1171C15.7964 7.16828 14.1342 4.6007 11.6978 3.30098V3.20051C11.6978 1.43574 10.0342 0 7.98924 0C5.94432 0 4.28068 1.43574 4.28068 3.20051V3.30098C1.84428 4.6007 0.182129 7.16828 0.182129 10.1171C0.182129 11.9852 1.07232 13.7091 2.5785 14.7912C2.62295 15.9474 3.04002 17.0701 3.76459 17.9727C4.4283 18.7994 5.32674 19.4162 6.32768 19.7398C6.43514 19.9004 6.61662 20 6.81436 20H14.012C14.176 20 14.3324 19.9314 14.4434 19.8107L14.8826 19.333C15.491 18.6714 15.8231 17.8005 15.8178 16.8807L15.7964 10.1171ZM7.98924 1.17188C9.20654 1.17188 10.226 1.86125 10.47 2.77742C9.716 2.5309 8.9115 2.39703 8.07619 2.39703H7.90225C7.06693 2.39703 6.26244 2.5309 5.50842 2.77742C5.75252 1.86125 6.77193 1.17188 7.98924 1.17188ZM1.354 10.1171C1.354 6.50644 4.29154 3.56887 7.90228 3.56887H8.07623C11.3298 3.56887 14.0363 5.95414 14.54 9.06773C14.3635 9.00754 14.1754 8.97453 13.98 8.97453C13.9767 8.97453 13.9732 8.97457 13.9698 8.97457C13.6017 8.97668 13.2599 9.0943 12.9754 9.29375C12.7451 8.83715 12.4281 8.4243 12.0365 8.08137C11.3065 7.44195 10.3694 7.0898 9.39799 7.0898H6.58049C4.37147 7.0898 2.57432 8.88695 2.57432 11.096V13.2336C1.79666 12.3967 1.354 11.2927 1.354 10.1171ZM6.01021 16.1266C6.39951 16.837 7.14357 17.2842 7.96197 17.3043L6.73264 18.6381C5.93049 18.3889 5.209 17.8999 4.67846 17.239C4.06857 16.4793 3.74623 15.5616 3.74623 14.5851V11.096C3.74623 9.5332 5.01768 8.26172 6.58053 8.26172H9.39803C10.7771 8.26172 11.9647 9.27125 12.1922 10.6218C12.1831 10.6998 12.1781 10.779 12.1786 10.8595L12.1965 13.9582C12.0797 13.9346 11.9602 13.9228 11.8379 13.9236C11.3493 13.9264 10.8929 14.1287 10.5505 14.4958L9.78549 15.3258C9.5035 15.1789 9.15467 15.2834 9.00115 15.5634C8.8085 15.915 8.43236 16.1333 8.01955 16.1333C7.60674 16.1333 7.23061 15.915 7.03795 15.5634C6.8824 15.2796 6.52627 15.1757 6.24252 15.3312C5.95869 15.4868 5.85471 15.8429 6.01021 16.1266ZM14.0199 18.5397L13.7547 18.8281H8.15123L11.4097 15.2926C11.5275 15.1665 11.6819 15.0964 11.8446 15.0955C12.0071 15.095 12.1626 15.1628 12.2817 15.2876C12.2821 15.288 12.2825 15.2885 12.2829 15.2889C12.5449 15.5647 12.5472 16.0319 12.2877 16.3101C12.286 16.3118 12.2844 16.3136 12.2827 16.3154L11.6601 16.9997C11.4423 17.2391 11.4597 17.6096 11.6991 17.8275C11.8114 17.9296 11.9525 17.98 12.0933 17.98C12.2525 17.98 12.4112 17.9155 12.5269 17.7884L13.1474 17.1064C13.7323 16.4767 13.8062 15.5132 13.3732 14.7979L13.3504 10.8527C13.3501 10.8044 13.3543 10.7573 13.3624 10.7117C13.4195 10.3907 13.6742 10.1462 13.98 10.1464C14.326 10.1464 14.6088 10.4592 14.611 10.8454L14.6459 16.8873C14.6495 17.51 14.4272 18.0968 14.0199 18.5397Z" fill="#9B51E0"/>
</svg>
