<svg width="25" height="25" viewBox="0 0 25 25" fill="none" xmlns="http://www.w3.org/2000/svg">
<g clip-path="url(#clip0_256_4304)">
<path d="M24.6855 9.49418C24.5235 8.99302 24.079 8.63707 23.5531 8.58967L16.4095 7.94103L13.5848 1.32944C13.3765 0.844901 12.9022 0.53125 12.3751 0.53125C11.8481 0.53125 11.3737 0.844901 11.1655 1.33058L8.34072 7.94103L1.19606 8.58967C0.671107 8.6382 0.227729 8.99302 0.0647664 9.49418C-0.098196 9.99534 0.0523034 10.545 0.449418 10.8915L5.84908 15.6271L4.25684 22.6409C4.14034 23.1566 4.3405 23.6897 4.76839 23.999C4.99839 24.1651 5.26748 24.2497 5.53883 24.2497C5.77279 24.2497 6.00487 24.1867 6.21315 24.062L12.3751 20.3792L18.5348 24.062C18.9856 24.3332 19.5538 24.3085 19.9807 23.999C20.4088 23.6887 20.6088 23.1554 20.4923 22.6409L18.9 15.6271L24.2997 10.8925C24.6968 10.545 24.8484 9.99628 24.6855 9.49418Z" fill="#F2C94C"/>
</g>
<defs>
<clipPath id="clip0_256_4304">
<rect width="24.75" height="24.75" fill="white"/>
</clipPath>
</defs>
</svg>
