<svg width="25" height="25" viewBox="0 0 25 25" fill="none" xmlns="http://www.w3.org/2000/svg">
<path d="M24.9355 9.49418C24.7735 8.99302 24.329 8.63707 23.8031 8.58967L16.6595 7.94103L13.8348 1.32944C13.6265 0.844901 13.1522 0.53125 12.6251 0.53125C12.0981 0.53125 11.6237 0.844901 11.4155 1.33058L8.59072 7.94103L1.44606 8.58967C0.921107 8.6382 0.477729 8.99302 0.314766 9.49418C0.151804 9.99534 0.302303 10.545 0.699418 10.8915L6.09908 15.6271L4.50684 22.6409C4.39034 23.1566 4.5905 23.6897 5.01839 23.999C5.24839 24.1651 5.51748 24.2497 5.78883 24.2497C6.02279 24.2497 6.25487 24.1867 6.46315 24.062L12.6251 20.3792L18.7848 24.062C19.2356 24.3332 19.8038 24.3085 20.2307 23.999C20.6588 23.6887 20.8588 23.1554 20.7423 22.6409L19.15 15.6271L24.5497 10.8925C24.9468 10.545 25.0984 9.99628 24.9355 9.49418Z" fill="#D9D9D9"/>
</svg>
