<svg width="18" height="20" viewBox="0 0 18 20" fill="none" xmlns="http://www.w3.org/2000/svg">
<path d="M12 -1.52588e-05H6C4.897 -1.52588e-05 4 0.896985 4 1.99998V2.99998H0V4.99998H2V18C2 19.103 2.897 20 4 20H14C15.103 20 16 19.103 16 18V4.99998H18V2.99998H14V1.99998C14 0.896985 13.103 -1.52588e-05 12 -1.52588e-05ZM6 1.99998H12V2.99998H6V1.99998ZM14 18H4V4.99998H14V18Z" fill="#828282"/>
<path d="M6 6.99998H8V16H6V6.99998Z" fill="#828282"/>
<path d="M10 6.99998H12V16H10V6.99998Z" fill="#828282"/>
</svg>
