<svg width="14" height="9" viewBox="0 0 14 9" fill="none" xmlns="http://www.w3.org/2000/svg">
<path d="M13.6294 7.69707C13.6294 7.64518 13.5775 7.64518 13.5775 7.59329C13.37 7.17818 12.903 6.65929 12.2803 6.08851C11.969 5.82906 11.8133 5.6215 11.7095 5.51772C11.5539 5.31016 11.5539 5.1545 11.6058 4.94694C11.6576 4.79128 11.8652 4.53182 12.2284 4.06482C12.436 3.80537 12.5397 3.64971 12.6954 3.49404C13.4738 2.45625 13.837 1.78169 13.7332 1.47035L13.6813 1.41847C13.6294 1.36658 13.5775 1.31469 13.4738 1.31469C13.37 1.2628 13.2143 1.2628 13.0586 1.31469H11.0869C11.035 1.31469 11.035 1.31469 10.9312 1.31469C10.8793 1.31469 10.8274 1.31469 10.8274 1.31469H10.7755H10.7236L10.6717 1.36658C10.6198 1.41846 10.6198 1.41846 10.6198 1.47035C10.4123 2.04113 10.1528 2.50814 9.89339 3.02703C9.73773 3.28648 9.58206 3.54593 9.42639 3.75349C9.27073 3.96104 9.16694 4.11671 9.06316 4.22049C8.95938 4.32427 8.8556 4.37616 8.80371 4.47993C8.75183 4.53182 8.64805 4.58372 8.64805 4.53183C8.59616 4.53183 8.54427 4.53182 8.54427 4.47993C8.49238 4.42805 8.4405 4.37615 8.38861 4.32427C8.33672 4.27238 8.33671 4.1686 8.28482 4.06482C8.28482 3.96104 8.28482 3.85726 8.28482 3.80537C8.28482 3.75348 8.28482 3.59782 8.28482 3.49404C8.28482 3.33837 8.28482 3.23459 8.28482 3.1827C8.28482 3.02703 8.28482 2.81948 8.28482 2.61192C8.28482 2.40437 8.28482 2.24869 8.28482 2.14491C8.28482 2.04114 8.28482 1.88547 8.28482 1.78169C8.28482 1.62602 8.28482 1.52224 8.28482 1.47035C8.28482 1.41846 8.23294 1.31469 8.23294 1.2628C8.18106 1.21091 8.12916 1.15902 8.07727 1.10713C8.02538 1.05524 7.9216 1.05524 7.86971 1.00335C7.61027 0.951462 7.29894 0.899574 6.93571 0.899574C6.10548 0.899574 5.5347 0.951465 5.32714 1.05524C5.22336 1.10713 5.11958 1.15902 5.06769 1.2628C4.96391 1.36658 4.96391 1.41847 5.0158 1.41847C5.27525 1.47036 5.48281 1.57413 5.58659 1.7298L5.63848 1.83358C5.69037 1.88547 5.69036 1.98925 5.74225 2.14491C5.79414 2.30058 5.79414 2.45625 5.79414 2.66381C5.79414 2.97514 5.79414 3.28648 5.79414 3.49404C5.79414 3.75349 5.74225 3.90915 5.74225 4.06482C5.74225 4.22049 5.69037 4.32427 5.63848 4.37616C5.58659 4.47994 5.58658 4.53183 5.53469 4.53183C5.53469 4.53183 5.53469 4.58371 5.4828 4.58371C5.43091 4.58371 5.37903 4.6356 5.27525 4.6356C5.22336 4.6356 5.11958 4.58372 5.06769 4.53183C4.96391 4.47994 4.86014 4.37616 4.80825 4.27238C4.70447 4.1686 4.60069 4.01293 4.49691 3.80537C4.39313 3.59781 4.23745 3.39026 4.13368 3.07892L4.02991 2.87137C3.97802 2.76759 3.87424 2.56003 3.77046 2.30058C3.66668 2.04114 3.5629 1.83358 3.45912 1.57414C3.40723 1.47036 3.35535 1.41846 3.30346 1.36658H3.25157C3.25157 1.36658 3.19967 1.31469 3.14778 1.31469C3.09589 1.31469 3.04401 1.2628 2.99212 1.2628H1.1241C0.916543 1.2628 0.812766 1.31469 0.760877 1.36658L0.708984 1.41847C0.708984 1.41847 0.708984 1.47036 0.708984 1.52224C0.708984 1.57413 0.708988 1.62602 0.760877 1.7298C1.02032 2.35247 1.33166 2.97515 1.64299 3.59782C1.95433 4.1686 2.26567 4.6875 2.47323 5.05072C2.73267 5.41395 2.94023 5.77717 3.19967 6.08851C3.45912 6.39984 3.61479 6.6074 3.66667 6.71118C3.77045 6.81496 3.82234 6.86684 3.87423 6.91873L4.02991 7.0744C4.13368 7.17818 4.28935 7.33385 4.49691 7.48952C4.70446 7.64519 4.96391 7.80085 5.22335 7.95652C5.4828 8.11219 5.79414 8.21597 6.10548 8.31975C6.4687 8.42353 6.78004 8.47542 7.09137 8.42353H7.86971C8.02538 8.42353 8.12917 8.37164 8.23294 8.26786L8.28482 8.21597C8.28482 8.16408 8.33671 8.16408 8.33671 8.11219C8.33671 8.0603 8.33671 8.00841 8.33671 7.90463C8.33671 7.69708 8.33672 7.54141 8.38861 7.38574C8.4405 7.23007 8.4405 7.1263 8.49239 7.02252C8.54428 6.91874 8.59616 6.86684 8.64805 6.81495C8.69994 6.76307 8.75184 6.71118 8.75184 6.71118H8.80371C8.90749 6.65929 9.06317 6.71118 9.16695 6.81495C9.32261 6.91873 9.47828 7.0744 9.58206 7.23007C9.68583 7.38574 9.84151 7.54141 10.0491 7.74896C10.2566 7.95652 10.4123 8.11219 10.5161 8.16408L10.6717 8.26786C10.7755 8.31975 10.8793 8.37164 11.035 8.42353C11.1906 8.47542 11.2944 8.47541 11.3982 8.47541L13.1624 8.42353C13.3181 8.42353 13.4738 8.37164 13.5775 8.31975C13.6813 8.26786 13.7332 8.21597 13.7332 8.11219C13.7332 8.0603 13.7332 7.95652 13.7332 7.90463C13.6294 7.80086 13.6294 7.74896 13.6294 7.69707Z" fill="#2FD3AE"/>
</svg>
