<svg width="120" height="30" viewBox="0 0 120 30" fill="none" xmlns="http://www.w3.org/2000/svg">
<path d="M30 0H59.4V29.4H30V0Z" fill="#15008F"/>
<path d="M61.2832 0H90.6832V29.4H61.2832V0Z" fill="#DD002E"/>
<path d="M38.9511 9.49796C39.3067 10.1759 39.8424 10.7427 40.4991 11.136C40.6396 11.2242 40.7432 11.3605 40.7907 11.5194C40.8381 11.6784 40.8262 11.8491 40.7571 12C40.5891 12.426 40.2591 13.044 40.4211 13.302C40.6391 13.4587 40.8958 13.5527 41.1634 13.5738C41.431 13.595 41.6992 13.5424 41.9391 13.422C42.0391 13.6401 42.1513 13.8524 42.2751 14.058C42.2194 14.1207 42.1446 14.1636 42.0623 14.1798C41.9799 14.196 41.8945 14.1849 41.8191 14.148C41.8957 14.2149 41.9431 14.3091 41.9512 14.4105C41.9593 14.5119 41.9275 14.6124 41.8626 14.6907C41.7976 14.769 41.7046 14.8188 41.6035 14.8294C41.5023 14.8401 41.401 14.8109 41.3211 14.748C41.265 14.7047 41.2234 14.6453 41.202 14.5777C41.1805 14.5102 41.1802 14.4377 41.2011 14.37C41.0919 14.5401 40.9326 14.6721 40.7451 14.748C40.645 14.6727 40.5709 14.5681 40.5333 14.4487C40.4956 14.3292 40.4962 14.201 40.5351 14.082C40.452 14.2286 40.3362 14.3541 40.1968 14.4487C40.0574 14.5434 39.898 14.6047 39.7311 14.628C39.6288 14.476 39.582 14.2935 39.5983 14.111C39.6147 13.9285 39.6934 13.7573 39.8211 13.626C39.6964 13.7191 39.5499 13.779 39.3957 13.8C39.2413 13.821 39.0843 13.8024 38.9391 13.746C38.9391 13.746 38.8491 13.458 39.3651 13.032C39.1954 13.0259 39.03 12.9771 38.8842 12.8901C38.7384 12.803 38.6169 12.6805 38.5311 12.534C38.6526 12.4327 38.7936 12.3576 38.9453 12.3132C39.097 12.2688 39.2563 12.2562 39.4131 12.276C39.2323 12.2193 39.0704 12.1146 38.9446 11.973C38.8189 11.8313 38.734 11.6581 38.6991 11.472C38.8705 11.3947 39.0607 11.3694 39.2463 11.3992C39.4319 11.4291 39.6046 11.5128 39.7431 11.64C39.6336 11.4842 39.5067 11.3413 39.3651 11.214C39.1599 10.9819 39.0152 10.7027 38.944 10.4012C38.8728 10.0997 38.8773 9.7853 38.9571 9.48596L38.9511 9.49796ZM41.3091 16.374C41.2167 16.2777 41.1451 16.1632 41.0991 16.038C41.1891 16.872 41.2191 17.418 41.6991 17.964C41.8762 17.5888 41.9083 17.1613 41.7891 16.764C41.7061 16.7178 41.6199 16.6777 41.5311 16.644C41.5924 16.8768 41.6088 17.1191 41.5791 17.358C41.4436 17.0492 41.3566 16.7213 41.3211 16.386L41.3091 16.374ZM40.5651 16.296C40.4727 16.1997 40.4011 16.0852 40.3551 15.96C40.3071 16.458 40.1871 17.718 40.6131 18.102C40.6131 18.102 40.9011 17.892 40.9911 16.038C40.9011 16.128 40.8711 16.248 40.7811 16.326C40.8241 16.6647 40.7829 17.0089 40.6611 17.328C40.6611 17.328 40.4511 17.22 40.5711 16.296H40.5651ZM39.5571 17.268C39.9351 16.842 40.0131 15.552 40.0131 15.552L40.1811 15.432L40.2291 15.384V15.504C40.2285 16.1761 40.1149 16.8434 39.8931 17.478C39.7221 17.7282 39.4938 17.9339 39.2271 18.078C38.8011 17.364 39.3171 16.392 39.7251 15.678L39.8931 15.588C39.7251 16.188 39.4371 16.788 39.5571 17.274V17.268ZM38.5551 15.042C38.5488 15.1021 38.566 15.1623 38.6031 15.21V15.258C38.2012 15.6759 37.8358 16.1275 37.5111 16.608C37.3574 16.8127 37.1617 16.9824 36.9372 17.1055C36.7126 17.2286 36.4644 17.3024 36.2091 17.322C36.2632 16.7578 36.4966 16.2258 36.8751 15.804C37.2877 15.3525 37.7508 14.9499 38.2551 14.604C38.3882 14.6656 38.5377 14.6824 38.6811 14.652H38.7291C38.6731 14.7077 38.6409 14.7829 38.6391 14.862C37.9992 15.1556 37.4516 15.6182 37.0551 16.2C36.9771 16.26 37.5531 16.092 38.5251 15.048L38.5551 15.042ZM37.8891 14.382L37.9371 14.334L37.9851 14.286C37.6491 14.406 36.4671 14.886 36.0891 15.042C35.7948 15.2055 35.5368 15.4269 35.3305 15.693C35.1243 15.9591 34.9741 16.2642 34.8891 16.59C35.1454 16.6119 35.4036 16.5829 35.6487 16.5046C35.8938 16.4264 36.1209 16.3004 36.3171 16.134C36.9831 15.588 37.7451 14.832 38.0331 14.586L37.9431 14.496C37.3904 14.9459 36.7861 15.3286 36.1431 15.636C36.2837 15.3749 36.4907 15.1555 36.7431 15C37.1052 14.7316 37.5112 14.5286 37.9431 14.4L37.8891 14.382ZM37.1991 13.8L37.2471 13.71C36.8691 13.8 35.8971 13.92 35.4471 14.046C35.0878 14.1418 34.7524 14.3113 34.4622 14.5437C34.1719 14.7762 33.9332 15.0664 33.7611 15.396C33.7611 15.396 34.4271 15.606 35.7351 15.018C36.352 14.6934 36.9966 14.4244 37.6611 14.214C37.5108 14.214 37.3633 14.1724 37.2351 14.094C36.642 14.3829 35.9977 14.5521 35.3391 14.592C35.5432 14.4448 35.7649 14.3238 35.9991 14.232C36.3765 14.0316 36.7806 13.8861 37.1991 13.8ZM37.1991 13.2C37.3191 13.2511 37.4469 13.2816 37.5771 13.29C37.4806 13.346 37.3936 13.4169 37.3191 13.5C36.4933 13.7073 35.6494 13.8339 34.7991 13.878C34.1556 13.9687 33.5004 13.9279 32.8731 13.758C33.3846 13.4659 33.9366 13.2516 34.5111 13.122C34.9671 13.032 36.2271 13.032 36.8151 12.954C36.8674 12.9989 36.9237 13.039 36.9831 13.074C36.3112 13.078 35.6445 13.1915 35.0091 13.41C35.7458 13.494 36.4918 13.4224 37.1991 13.2ZM37.1211 12.444C37.2041 12.3978 37.2903 12.3577 37.3791 12.324C36.4579 12.0055 35.5005 11.8039 34.5291 11.724C33.8409 11.6404 33.1435 11.6708 32.4651 11.814C33.0462 12.1957 33.687 12.4776 34.3611 12.648C35.1685 12.7763 35.9884 12.8065 36.8031 12.738C36.8496 12.6609 36.9061 12.5902 36.9711 12.528C36.1912 12.5235 35.4158 12.4104 34.6671 12.192C35.4948 12.1276 36.3274 12.2088 37.1271 12.432L37.1211 12.444ZM37.1271 11.688C37.2115 11.9436 37.3894 12.1579 37.6251 12.288C36.7011 11.91 34.9371 11.652 33.9711 11.286C32.6691 10.74 32.4531 10.086 32.4531 10.086C33.3814 10.0932 34.3029 10.2471 35.1831 10.542C36.0171 10.8 37.2471 11.256 37.7031 11.466C37.5233 11.4664 37.3485 11.5254 37.2051 11.634C36.7491 11.424 36.2331 11.298 35.7771 11.136C35.4408 11.0212 35.0884 10.9605 34.7331 10.956C35.0488 11.1453 35.385 11.2983 35.7351 11.412C36.2031 11.532 36.6591 11.622 37.1331 11.718L37.1271 11.688ZM37.0851 10.746C37.1331 10.836 37.2051 10.956 37.2531 11.034C35.9062 10.7479 34.6877 10.0345 33.7791 8.99996C33.4786 8.49254 33.3601 7.89782 33.4431 7.31396C34.1061 7.61462 34.7034 8.04272 35.2011 8.57396C35.7051 9.10886 36.253 9.60056 36.8391 10.044L37.0071 10.542C36.5511 10.164 35.9631 9.73796 35.6271 9.44996C35.2927 9.19076 34.9255 8.97692 34.5351 8.81396C34.7374 9.06968 34.9601 9.30848 35.2011 9.52796C35.5119 9.78482 35.8476 10.0099 36.2031 10.2C36.4698 10.4244 36.7719 10.6028 37.0971 10.728" fill="white"/>
<path d="M41.1354 14.7L41.2554 14.58C41.4234 14.79 41.5434 15.006 41.6814 15.216C41.7664 15.4636 41.8366 15.7161 41.8914 15.972C41.9363 16.223 42.0235 16.4644 42.1494 16.686C42.0367 16.6881 41.925 16.6662 41.8215 16.6218C41.7181 16.5773 41.6253 16.5113 41.5494 16.428C41.3493 16.1716 41.2191 15.8678 41.1714 15.546C41.0893 15.2696 41.0729 14.9779 41.1234 14.694L41.1354 14.7ZM40.5234 14.742L40.6434 14.862L40.6914 14.91H40.7394L40.8594 14.862C40.9143 14.9658 40.945 15.0807 40.9494 15.198C40.9947 15.4076 40.9947 15.6245 40.9494 15.834C40.8927 16.0199 40.7941 16.1902 40.6614 16.332C40.5395 16.198 40.4421 16.0437 40.3734 15.876C40.2822 15.6468 40.2822 15.3913 40.3734 15.162C40.4334 14.982 40.4814 14.856 40.5234 14.736V14.742ZM39.7674 14.766C39.9627 14.7375 40.1493 14.6658 40.3134 14.556C40.3433 14.606 40.363 14.6615 40.3712 14.7192C40.3795 14.7769 40.3761 14.8356 40.3614 14.892C40.3043 15.0654 40.2054 15.222 40.0734 15.348C39.9528 15.4522 39.8128 15.5313 39.6613 15.5807C39.5099 15.6302 39.3501 15.649 39.1914 15.636C39.1314 15.666 39.0534 15.408 39.7914 14.772L39.7674 14.766ZM39.5034 14.316C39.5208 14.4558 39.5793 14.5874 39.6714 14.694C39.5677 14.8626 39.4189 14.9986 39.2418 15.0867C39.0646 15.1747 38.8663 15.2112 38.6694 15.192C38.6226 15.0732 38.6233 14.9409 38.6713 14.8225C38.7193 14.7041 38.811 14.6087 38.9274 14.556C39.1254 14.478 39.2934 14.388 39.5274 14.316" fill="white"/>
<path d="M39.5984 13.896C39.3889 13.9413 39.172 13.9413 38.9624 13.896H38.8724V13.8C38.5364 14.058 38.2064 14.088 38.0684 14.346C38.1353 14.4397 38.2266 14.5134 38.3324 14.5588C38.4382 14.6043 38.5544 14.62 38.6684 14.604C38.8484 14.589 39.0233 14.537 39.1823 14.4513C39.3413 14.3656 39.4809 14.2481 39.5924 14.106C39.5746 14.0739 39.5652 14.0377 39.5652 14.001C39.5652 13.9643 39.5746 13.9281 39.5924 13.896H39.5984ZM38.8784 13.518C38.9206 13.3909 38.9926 13.2757 39.0884 13.182C38.8123 13.1366 38.5306 13.1366 38.2544 13.182C38.0371 13.1803 37.825 13.2489 37.6499 13.3776C37.4747 13.5063 37.3458 13.6881 37.2824 13.896C37.4827 14.015 37.7192 14.0577 37.9484 14.016C38.1287 14.002 38.304 13.9505 38.4631 13.8648C38.6222 13.779 38.7617 13.6609 38.8724 13.518H38.8784ZM38.7044 12.918C38.6111 12.8119 38.5249 12.6996 38.4464 12.582L38.3984 12.516C38.0867 12.3644 37.7302 12.3324 37.3964 12.426C37.1903 12.488 37.0135 12.6222 36.8984 12.804C37.1338 12.9822 37.4104 13.0978 37.7024 13.14C38.0491 13.1856 38.4011 13.116 38.7044 12.942V12.918ZM38.7944 12.258C38.8424 12.21 38.9144 12.21 39.0044 12.21C38.83 12.0373 38.7128 11.8154 38.6684 11.574C38.4467 11.626 38.2144 11.6092 38.0024 11.526C37.8848 11.4831 37.7587 11.4688 37.6345 11.4845C37.5103 11.5002 37.3917 11.5452 37.2884 11.616C37.3321 11.7577 37.415 11.8843 37.5276 11.9809C37.6401 12.0775 37.7777 12.1403 37.9244 12.162C38.0514 12.2434 38.1957 12.294 38.3458 12.3096C38.4958 12.3252 38.6474 12.3055 38.7884 12.252L38.7944 12.258ZM38.6024 11.4L38.6924 11.352C38.7962 11.2971 38.9111 11.2663 39.0284 11.262C38.753 11.0254 38.4579 10.8126 38.1464 10.626C37.7905 10.4196 37.4065 10.266 37.0064 10.17C37.1193 10.5139 37.3056 10.8292 37.5524 11.094C37.6771 11.242 37.8426 11.35 38.0283 11.4044C38.214 11.4588 38.4116 11.4573 38.5964 11.4H38.6024ZM39.1424 11.112C39.0037 10.9111 38.9058 10.6848 38.8544 10.446C38.7644 10.158 38.6864 9.81002 38.5664 9.52202C38.3572 9.13952 38.0093 8.85182 37.5944 8.71802C37.5019 9.12038 37.544 9.542 37.7144 9.91802C38.0851 10.4288 38.5754 10.8408 39.1424 11.118V11.112ZM42.4184 14.118C42.4932 14.1897 42.5807 14.2467 42.6764 14.286C42.7324 14.4144 42.7572 14.554 42.7489 14.6938C42.7405 14.8335 42.6992 14.9693 42.6284 15.09C42.4246 15.4524 42.2578 15.8343 42.1304 16.23C42.1304 16.23 42.0104 16.23 41.8724 15.516C41.8304 15.251 41.7139 15.0034 41.5364 14.802C41.6144 14.8515 41.7026 14.8822 41.7944 14.892H41.8844L41.9324 14.802C42.0068 14.6731 42.0383 14.524 42.0224 14.376V14.256C42.0947 14.271 42.1698 14.2661 42.2395 14.2418C42.3092 14.2175 42.3711 14.1747 42.4184 14.118Z" fill="white"/>
<path d="M37.4339 9.00002V9.37802C37.0979 8.95202 36.6779 8.40602 36.2339 7.90802C36.027 7.63226 35.7755 7.39298 35.4899 7.20002C35.6596 7.72856 35.9635 8.204 36.3719 8.58002C36.6983 8.91158 37.0471 9.22034 37.4159 9.50402L37.4639 9.62403C37.5119 9.74403 37.5539 9.88202 37.5839 9.96002C37.6745 10.1266 37.7876 10.2801 37.9199 10.416C37.7999 10.368 37.6619 10.296 37.5419 10.248H37.4339C36.3815 9.65132 35.5106 8.78042 34.9139 7.72802C34.6178 6.9968 34.5776 6.18698 34.7999 5.43002C35.3447 5.92418 35.8373 6.47306 36.2699 7.06802C36.7124 7.67756 37.1018 8.32388 37.4339 9.00002ZM52.2539 12.444C52.1709 12.3979 52.0847 12.3577 51.9959 12.324C52.917 12.0055 53.8745 11.804 54.8459 11.724C55.5341 11.6404 56.2315 11.6709 56.9098 11.814C56.3287 12.1958 55.688 12.4777 55.0139 12.648C54.2064 12.7764 53.3865 12.8066 52.5719 12.738C52.5254 12.6609 52.4689 12.5903 52.4039 12.528C53.1837 12.5235 53.9592 12.4104 54.7079 12.192C53.8802 12.1276 53.0475 12.2089 52.2479 12.432L52.2539 12.444ZM52.2479 11.688C52.1634 11.9436 51.9855 12.1579 51.7499 12.288C52.6739 11.91 54.4378 11.652 55.4038 11.286C56.7058 10.74 56.9219 10.086 56.9219 10.086C55.9935 10.0932 55.0721 10.2471 54.1919 10.542C53.3579 10.8 52.1279 11.256 51.6719 11.466C51.8517 11.4664 52.0265 11.5254 52.1699 11.634C52.6259 11.424 53.1419 11.298 53.5979 11.136C53.9366 11.0326 54.2878 10.9761 54.6418 10.968C54.3261 11.1573 53.99 11.3103 53.6399 11.424C53.1719 11.532 52.7159 11.622 52.2419 11.712L52.2479 11.688ZM52.3319 10.74C52.2839 10.83 52.2119 10.95 52.1639 11.028C53.5208 10.7497 54.7505 10.038 55.6679 9.00002C55.9684 8.4926 56.0869 7.89788 56.0038 7.31402C55.3409 7.61468 54.7436 8.04278 54.2459 8.57402C53.7455 9.11264 53.1972 9.60464 52.6079 10.044L52.4399 10.542C52.8959 10.164 53.4839 9.73802 53.8199 9.45002C54.1542 9.19082 54.5214 8.97698 54.9118 8.81402C54.7096 9.06974 54.4869 9.30848 54.2459 9.52802C53.9332 9.78518 53.5955 10.0103 53.2379 10.2C52.9572 10.4038 52.6578 10.5805 52.3439 10.728L52.3319 10.74ZM51.9659 9.00002V9.37802C52.3019 8.95202 52.7219 8.40602 53.1659 7.90802C53.3727 7.63226 53.6242 7.39298 53.9098 7.20002C53.7401 7.72856 53.4362 8.204 53.0279 8.58002C52.7015 8.91158 52.3526 9.22034 51.9839 9.50402L51.9359 9.62403C51.8879 9.74403 51.8459 9.88202 51.8159 9.96002C51.7252 10.1266 51.6122 10.2801 51.4799 10.416C51.5999 10.368 51.7379 10.296 51.8579 10.248L51.9778 10.2C53.0303 9.60332 53.9012 8.73242 54.4979 7.68002C54.7858 6.95282 54.8217 6.15002 54.5998 5.40002C54.055 5.89418 53.5624 6.44306 53.1299 7.03802C52.6771 7.65188 52.2757 8.3021 51.9299 8.98202L51.9659 9.00002ZM38.7299 15.366C38.3039 15.792 37.3799 16.794 37.4699 17.838C37.9563 17.6845 38.3782 17.3745 38.6699 16.956C38.8802 16.5402 39.1187 16.1392 39.3839 15.756H39.0059C38.762 16.2524 38.4042 16.6842 37.9619 17.016C37.9619 17.016 37.8719 16.518 39.0059 15.426C39.0059 15.378 39.0539 15.336 39.0959 15.306C38.9735 15.3433 38.8457 15.3596 38.7179 15.354L38.7299 15.366ZM50.4299 9.48602C50.0742 10.164 49.5386 10.7307 48.8819 11.124C48.7497 11.2224 48.6575 11.3652 48.6222 11.5261C48.587 11.6871 48.611 11.8554 48.6899 12C48.8579 12.426 49.1879 13.044 49.0259 13.302C48.8639 13.56 48.0539 13.68 47.4359 13.422C47.3358 13.6401 47.2236 13.8525 47.0999 14.058C47.1556 14.1208 47.2304 14.1636 47.3127 14.1798C47.3951 14.1961 47.4804 14.1849 47.5559 14.148C47.5186 14.2514 47.5036 14.3616 47.5119 14.4712C47.5202 14.5807 47.5515 14.6874 47.6039 14.784C47.7284 14.7597 47.8463 14.7091 47.9497 14.6356C48.0532 14.5621 48.1398 14.4675 48.2039 14.358C48.3131 14.5281 48.4724 14.6602 48.6599 14.736C48.76 14.6608 48.8341 14.5561 48.8717 14.4367C48.9094 14.3173 48.9087 14.1891 48.8699 14.07C48.953 14.2166 49.0688 14.3421 49.2081 14.4368C49.3476 14.5315 49.5069 14.5928 49.6739 14.616C49.7762 14.464 49.823 14.2815 49.8066 14.0991C49.7903 13.9166 49.7116 13.7454 49.5839 13.614C49.7086 13.7072 49.8551 13.7671 50.0093 13.7881C50.1636 13.8091 50.3207 13.7905 50.4659 13.734C50.4659 13.734 50.5559 13.446 50.0399 13.02C50.2095 13.014 50.375 12.9652 50.5208 12.8781C50.6666 12.7911 50.7881 12.6685 50.8739 12.522C50.7524 12.4208 50.6114 12.3457 50.4597 12.3013C50.3079 12.2569 50.1487 12.2442 49.9919 12.264C50.171 12.2128 50.3304 12.1086 50.4493 11.9651C50.5682 11.8216 50.6408 11.6455 50.6579 11.46C50.4865 11.3827 50.2962 11.3575 50.1107 11.3873C49.9251 11.4172 49.7523 11.5009 49.6139 11.628C49.7234 11.4723 49.8503 11.3293 49.9919 11.202C50.2164 10.9807 50.3814 10.7064 50.4717 10.4043C50.5619 10.1022 50.5743 9.78218 50.5079 9.47402L50.4299 9.48602ZM48.1079 16.362C48.1938 16.2609 48.2646 16.1476 48.3179 16.026C48.2279 16.86 48.1979 17.406 47.7179 17.952C47.5407 17.5768 47.5086 17.1494 47.6279 16.752C47.7108 16.7059 47.7971 16.6657 47.8859 16.632C47.8245 16.8648 47.8082 17.1072 47.8379 17.346C47.9734 17.0372 48.0604 16.7094 48.0959 16.374L48.1079 16.362ZM48.8519 16.284C48.9443 16.1877 49.0158 16.0733 49.0619 15.948C49.1099 16.446 49.2299 17.706 48.8039 18.09C48.8039 18.09 48.5159 17.88 48.4259 16.026C48.5159 16.116 48.5459 16.236 48.6359 16.314C48.5928 16.6528 48.6341 16.997 48.7559 17.316C48.7559 17.316 48.9659 17.208 48.8459 16.284H48.8519ZM49.8479 17.256C49.4699 16.83 49.3919 15.54 49.3919 15.54C49.3454 15.4882 49.288 15.4472 49.2239 15.42L49.1999 15.384V15.504C49.2005 16.1762 49.3141 16.8435 49.5359 17.478C49.6952 17.7382 49.9265 17.9466 50.2019 18.078C50.6279 17.364 50.1119 16.392 49.7039 15.678C49.6397 15.6667 49.5809 15.6351 49.5359 15.588C49.7039 16.188 50.0039 16.788 49.8719 17.274L49.8479 17.256ZM50.8859 15.042C50.8922 15.1021 50.8749 15.1623 50.8379 15.21V15.258C51.2398 15.676 51.6051 16.1276 51.9299 16.608C52.0836 16.8128 52.2793 16.9824 52.5038 17.1055C52.7283 17.2287 52.9766 17.3025 53.2319 17.322C53.1777 16.7578 52.9443 16.2259 52.5659 15.804C52.1532 15.3526 51.6902 14.9499 51.1859 14.604C51.0528 14.6657 50.9033 14.6825 50.7599 14.652H50.7119C50.7678 14.7078 50.8001 14.783 50.8019 14.862C51.4263 15.162 51.9589 15.624 52.3439 16.2C52.4219 16.26 51.8279 16.092 50.8739 15.048L50.8859 15.042ZM51.4739 14.382V14.292L51.4259 14.244C51.7619 14.364 52.9439 14.844 53.3219 15C53.6162 15.1635 53.8742 15.385 54.0804 15.6511C54.2867 15.9171 54.4369 16.2223 54.5219 16.548C54.2655 16.57 54.0073 16.541 53.7622 16.4627C53.5172 16.3845 53.2901 16.2585 53.0939 16.092C52.4579 15.546 51.6659 14.79 51.3779 14.544L51.4679 14.454C52.0206 14.904 52.6248 15.2866 53.2679 15.594C53.1273 15.333 52.9203 15.1135 52.6679 14.958C52.2979 14.7028 51.894 14.5009 51.4679 14.358L51.4739 14.382ZM52.1999 13.8C52.1999 13.752 52.1519 13.752 52.1519 13.71C52.5299 13.8 53.5019 13.92 53.9518 14.046C54.3111 14.1419 54.6465 14.3114 54.9368 14.5438C55.227 14.7762 55.4658 15.0664 55.6379 15.396C55.6379 15.396 54.9719 15.606 53.6639 15.018C53.0469 14.6935 52.4024 14.4244 51.7379 14.214C51.8882 14.214 52.0356 14.1725 52.1639 14.094C52.757 14.383 53.4013 14.5522 54.0599 14.592C53.8558 14.4448 53.6341 14.3239 53.3999 14.232C53.0175 14.0429 52.6149 13.898 52.1999 13.8ZM52.1999 13.2C52.0799 13.2512 51.9521 13.2816 51.8219 13.29C51.9183 13.3461 52.0054 13.4169 52.0799 13.5C52.9056 13.7074 53.7496 13.834 54.5998 13.878C55.2434 13.9688 55.8986 13.928 56.5259 13.758C56.0144 13.466 55.4624 13.2516 54.8879 13.122C54.4319 13.032 53.1719 13.032 52.5839 12.954C52.5315 12.999 52.4753 13.0391 52.4159 13.074C53.0877 13.0781 53.7545 13.1916 54.3899 13.41C53.6532 13.4926 52.9074 13.4211 52.1999 13.2Z" fill="white"/>
<path d="M48.2628 14.7L48.1428 14.58C47.9894 14.7745 47.8623 14.9883 47.7648 15.216C47.6797 15.4636 47.6095 15.716 47.5548 15.972C47.4891 16.2169 47.4028 16.4557 47.2968 16.686C47.4145 16.687 47.5314 16.6648 47.6405 16.6205C47.7496 16.5762 47.849 16.5108 47.9328 16.428C48.1328 16.1716 48.263 15.8677 48.3108 15.546C48.367 15.2625 48.3505 14.9694 48.2628 14.694V14.7ZM48.8628 14.742L48.7428 14.862L48.6948 14.91H48.6468L48.4788 14.862C48.4239 14.9658 48.3931 15.0806 48.3888 15.198C48.3435 15.4076 48.3435 15.6244 48.3888 15.834C48.4455 16.0198 48.544 16.1902 48.6768 16.332C48.7986 16.198 48.8961 16.0436 48.9648 15.876C49.056 15.6467 49.056 15.3913 48.9648 15.162C48.9655 15.0131 48.9284 14.8665 48.8568 14.736L48.8628 14.742ZM49.6128 14.766C49.4174 14.7375 49.2309 14.6658 49.0668 14.556C49.0368 14.606 49.0171 14.6615 49.0089 14.7191C49.0006 14.7769 49.004 14.8356 49.0188 14.892C49.0758 15.0653 49.1748 15.222 49.3068 15.348C49.4273 15.4522 49.5673 15.5312 49.7188 15.5807C49.8702 15.6301 50.03 15.649 50.1888 15.636C50.2368 15.666 50.3268 15.408 49.5888 14.772L49.6128 14.766ZM49.8768 14.316C49.8593 14.4558 49.8008 14.5873 49.7088 14.694C49.8124 14.8625 49.9612 14.9986 50.1384 15.0866C50.3155 15.1747 50.5138 15.2112 50.7108 15.192C50.7575 15.0731 50.7568 14.9408 50.7088 14.8225C50.6608 14.7041 50.5691 14.6087 50.4528 14.556C50.2548 14.478 50.0868 14.388 49.8528 14.316H49.8768ZM49.7988 13.896C50.0083 13.9413 50.2252 13.9413 50.4348 13.896H50.5248V13.8C50.8608 14.058 51.1908 14.088 51.3588 14.346C51.2987 14.4334 51.2165 14.5034 51.1206 14.5487C51.0247 14.594 50.9185 14.6131 50.8128 14.604C50.6328 14.5889 50.4579 14.537 50.2989 14.4513C50.1399 14.3656 50.0003 14.2481 49.8888 14.106C49.8322 14.0506 49.7999 13.9751 49.7988 13.896ZM50.5128 13.518C50.4706 13.3909 50.3985 13.2757 50.3028 13.182C50.5789 13.1366 50.8606 13.1366 51.1368 13.182C51.3541 13.1803 51.5662 13.2489 51.7413 13.3776C51.9165 13.5062 52.0454 13.6881 52.1088 13.896C51.9085 14.015 51.672 14.0576 51.4428 14.016C51.2611 14.0084 51.0835 13.9597 50.9234 13.8734C50.7633 13.7871 50.625 13.6656 50.5188 13.518H50.5128ZM50.6868 12.918C50.7892 12.8197 50.8762 12.7064 50.9448 12.582L50.9928 12.492C51.3045 12.3404 51.661 12.3083 51.9948 12.402C52.2009 12.464 52.3777 12.5981 52.4928 12.78C52.2574 12.9581 51.9808 13.0738 51.6888 13.116C51.3448 13.1179 51.0041 13.0506 50.6868 12.918ZM50.5488 12.234C50.5008 12.186 50.4288 12.186 50.3388 12.186C50.5111 12.0052 50.6403 11.7878 50.7168 11.55C50.9385 11.602 51.1708 11.5852 51.3828 11.502C51.5004 11.459 51.6265 11.4448 51.7507 11.4605C51.8749 11.4761 51.9935 11.5212 52.0968 11.592C52.0531 11.7337 51.9702 11.8603 51.8576 11.9569C51.7451 12.0535 51.6075 12.1163 51.4608 12.138C51.3255 12.221 51.1731 12.2722 51.0151 12.2878C50.8572 12.3034 50.6977 12.2829 50.5488 12.228V12.234ZM50.7828 11.4H50.6928C50.589 11.3451 50.4741 11.3143 50.3568 11.31C50.6322 11.0734 50.9273 10.8606 51.2388 10.674C51.5851 10.4486 51.9725 10.2936 52.3788 10.218C52.2482 10.5536 52.0638 10.8658 51.8328 11.142C51.7091 11.2913 51.5436 11.4002 51.3576 11.4547C51.1716 11.5093 50.9734 11.5069 50.7888 11.448L50.7828 11.4ZM50.2428 11.16C50.3815 10.9591 50.4794 10.7327 50.5308 10.494C50.6208 10.206 50.6988 9.85799 50.8188 9.56999C51.028 9.18749 51.3759 8.89979 51.7908 8.76599C51.8833 9.16835 51.8412 9.58997 51.6708 9.96599C51.3038 10.4803 50.8125 10.8931 50.2428 11.166V11.16ZM46.9668 14.166C46.892 14.2376 46.8045 14.2946 46.7088 14.334C46.6528 14.4623 46.628 14.602 46.6363 14.7418C46.6447 14.8815 46.686 15.0173 46.7568 15.138C46.9606 15.5003 47.1274 15.8822 47.2548 16.278C47.2548 16.278 47.3748 16.278 47.5128 15.564C47.5548 15.299 47.6713 15.0514 47.8488 14.85C47.7708 14.8994 47.6826 14.9302 47.5908 14.94H47.5008L47.4528 14.85C47.3784 14.7211 47.3469 14.572 47.3628 14.424V14.304C47.2905 14.3165 47.2162 14.3104 47.1469 14.2863C47.0776 14.2621 47.0156 14.2207 46.9668 14.166Z" fill="white"/>
<path d="M50.6159 15.366C51.0419 15.792 51.9659 16.794 51.8759 17.838C51.3895 17.6845 50.9676 17.3745 50.6759 16.956C50.4656 16.5402 50.227 16.1392 49.9619 15.756H50.3399C50.5838 16.2524 50.9415 16.6842 51.3839 17.016C51.3839 17.016 51.4739 16.518 50.3399 15.426C50.3399 15.378 50.2919 15.336 50.2499 15.306C50.3723 15.3433 50.5001 15.3596 50.6279 15.354L50.6159 15.366ZM41.7539 7.69202C42.0244 7.601 42.3174 7.601 42.5879 7.69202C42.3151 7.76804 42.0267 7.76804 41.7539 7.69202ZM44.8199 7.20002C44.8199 7.29002 44.7719 7.32002 44.6999 7.32002C44.6839 7.32086 44.6679 7.3184 44.653 7.31264C44.638 7.30694 44.6244 7.29812 44.6131 7.28678C44.6018 7.2755 44.593 7.26188 44.5873 7.24694C44.5815 7.232 44.5791 7.21598 44.5799 7.20002C44.5799 7.11002 44.6279 7.08002 44.6999 7.08002C44.7159 7.07918 44.7319 7.08164 44.7468 7.0874C44.7618 7.0931 44.7754 7.10192 44.7867 7.11326C44.798 7.12454 44.8068 7.13816 44.8125 7.1531C44.8183 7.16804 44.8207 7.18406 44.8199 7.20002ZM43.9859 6.74402C43.8199 6.4118 43.6931 6.06146 43.6079 5.70002C43.6559 5.61002 43.6979 5.53202 43.8179 5.53202C43.9379 5.53202 43.9859 5.48402 44.0279 5.53202C44.1759 5.87855 44.2631 6.24794 44.2859 6.62402C44.1805 6.65462 44.078 6.69476 43.9799 6.74402H43.9859ZM44.3879 6.65402H44.5559C44.5125 6.34058 44.4423 6.0314 44.3459 5.73002C44.335 5.65828 44.3062 5.59044 44.2621 5.53276C44.2181 5.47509 44.1603 5.42944 44.0939 5.40002C44.1419 5.56802 44.2139 5.73602 44.2619 5.89802C44.3218 6.15332 44.3679 6.41174 44.3999 6.67202L44.3879 6.65402ZM44.0639 7.55402C43.8448 7.67174 43.5985 7.7297 43.3499 7.72202C43.4459 7.556 43.5745 7.4111 43.7279 7.29602C43.9386 7.15748 44.1915 7.09796 44.4419 7.12802C44.3484 7.29584 44.2194 7.44122 44.0639 7.55402ZM43.6859 7.60202C43.8745 7.52792 44.0446 7.41326 44.1839 7.26602C43.98 7.30766 43.8009 7.4285 43.6859 7.60202Z" fill="white"/>
<path d="M41.6801 7.77C41.9494 7.8564 42.2313 7.89696 42.5141 7.89C43.0091 7.89402 43.5028 7.83762 43.9841 7.722C43.965 7.78254 43.9315 7.83756 43.8866 7.8825C43.8417 7.92738 43.7866 7.96086 43.7261 7.98C43.8051 7.98174 43.8804 8.01402 43.9361 8.07C43.9099 8.12094 43.8735 8.16588 43.8291 8.20206C43.7847 8.23818 43.7333 8.26476 43.6781 8.28C43.856 8.45634 44.0938 8.55918 44.3441 8.568C44.2773 8.62722 44.1969 8.6691 44.11 8.69004C44.0232 8.71092 43.9326 8.71026 43.8461 8.688C43.63 8.64426 43.4365 8.52516 43.3001 8.352C43.3381 8.4324 43.3546 8.52132 43.3481 8.61C43.2913 8.6025 43.2367 8.58372 43.1872 8.55492C43.1378 8.52606 43.0946 8.48766 43.0601 8.442C43.1142 8.52876 43.1451 8.62788 43.1501 8.73C43.0567 8.72826 42.9663 8.69676 42.8921 8.64C42.9292 8.70348 42.9459 8.77674 42.9401 8.85C42.7134 8.76834 42.4993 8.65524 42.3041 8.514V8.724C42.3521 8.772 41.7041 8.676 41.7041 7.752L41.6801 7.77ZM42.7961 8.13H42.0581C42.0656 8.18676 42.0844 8.24142 42.1132 8.29086C42.142 8.3403 42.1804 8.3835 42.2261 8.418C42.2261 8.13 42.7721 8.13 42.7721 8.13H42.7961ZM41.5721 7.842C41.5756 8.03016 41.6164 8.21574 41.6921 8.388C41.5642 8.30778 41.4638 8.1906 41.4041 8.052C41.3561 7.842 41.3561 7.746 41.5721 7.842ZM41.7101 8.442L42.0461 8.7C41.9224 8.7468 41.7962 8.78688 41.6681 8.82C41.5442 8.71704 41.3882 8.6607 41.2271 8.6607C41.066 8.6607 40.91 8.71704 40.7861 8.82C40.7246 8.7876 40.6707 8.74242 40.6282 8.6874C40.5856 8.63244 40.5553 8.56896 40.5394 8.50128C40.5235 8.4336 40.5223 8.36328 40.5358 8.29512C40.5495 8.2269 40.5775 8.1624 40.6181 8.106C40.6922 8.02458 40.7904 7.96908 40.8984 7.94748C41.0064 7.92588 41.1184 7.93938 41.2181 7.986C41.2644 8.09274 41.3327 8.1885 41.4185 8.2671C41.5043 8.34564 41.6057 8.40522 41.7161 8.442H41.7101ZM41.1161 8.532C41.1339 8.532 41.1513 8.52672 41.1661 8.51682C41.1809 8.50692 41.1924 8.49288 41.1993 8.47644C41.206 8.46 41.2078 8.44188 41.2044 8.42442C41.2009 8.40696 41.1923 8.39094 41.1798 8.37834C41.1672 8.3658 41.1511 8.35722 41.1337 8.35374C41.1162 8.35026 41.0981 8.35206 41.0817 8.35884C41.0652 8.36568 41.0512 8.3772 41.0413 8.39202C41.0314 8.40678 41.0261 8.42418 41.0261 8.442C41.0261 8.49 41.0261 8.532 41.1161 8.532ZM42.0701 8.772C42.159 8.8899 42.2552 9.0021 42.3581 9.108C42.1797 9.1017 42.0037 9.15084 41.8544 9.24858C41.7051 9.34638 41.5897 9.48798 41.5241 9.654C41.464 9.56706 41.4279 9.46584 41.4194 9.36048C41.411 9.25512 41.4306 9.1494 41.4761 9.054C41.5505 8.96682 41.6423 8.89614 41.7456 8.84658C41.849 8.79696 41.9616 8.76954 42.0761 8.766L42.0701 8.772ZM42.8021 8.904L43.0901 8.994V8.826C43.1801 8.826 43.2101 8.874 43.3001 8.874C43.3731 9.13548 43.4931 9.38148 43.6541 9.6C43.6443 9.6918 43.6135 9.78006 43.5641 9.858C43.4626 9.68514 43.3504 9.51882 43.2281 9.36C43.1199 9.18474 42.9608 9.04662 42.7721 8.964L42.8021 8.904ZM42.2261 8.874C42.4411 8.91978 42.645 9.00744 42.8261 9.132C42.9281 9.19566 43.0123 9.28398 43.0711 9.38886C43.1298 9.4938 43.1611 9.61176 43.1621 9.732C43.0702 9.60156 42.9565 9.48792 42.8261 9.396C42.5813 9.28422 42.3732 9.1053 42.2261 8.88V8.874ZM42.2261 6.738C42.3161 6.738 42.3941 6.786 42.3941 6.858C42.3431 7.01802 42.2725 7.1712 42.1841 7.314C42.0871 7.17594 42.016 7.02144 41.9741 6.858C42.0016 6.81594 42.0404 6.78246 42.086 6.76128C42.1316 6.74004 42.1822 6.732 42.2321 6.738H42.2261ZM42.0941 7.542C42.0588 7.33674 42.0025 7.13568 41.9261 6.942C41.8482 6.89256 41.7599 6.86178 41.6681 6.852C41.6372 6.8547 41.6082 6.8682 41.5863 6.89016C41.5643 6.91212 41.5508 6.9411 41.5481 6.972V7.02C41.649 7.20864 41.7612 7.39098 41.8841 7.566C41.9507 7.53942 42.0227 7.5291 42.0941 7.536V7.542ZM42.3041 7.536C42.3394 7.33074 42.3957 7.12968 42.4721 6.936C42.55 6.88656 42.6383 6.85578 42.7301 6.846C42.761 6.8487 42.79 6.8622 42.8119 6.88416C42.8339 6.90612 42.8474 6.9351 42.8501 6.966V7.014C42.7597 7.20846 42.6469 7.3917 42.5141 7.56C42.4478 7.53222 42.3755 7.52184 42.3041 7.53V7.536ZM42.5141 6.228H42.2561V6H42.1361V6.21H41.8781V6.378H42.1361V6.6H42.2561V6.36H42.5141V6.228ZM39.9521 7.728V7.32C39.8498 7.35378 39.756 7.40934 39.6773 7.4829C39.5985 7.55646 39.5367 7.64622 39.4961 7.746C39.4961 7.746 39.8321 7.536 39.9521 7.746V7.728ZM40.2401 8.292C40.2881 8.124 40.3301 7.914 40.3601 7.746C40.4025 7.62126 40.4164 7.4886 40.4009 7.3578C40.3853 7.22694 40.3406 7.1013 40.2701 6.99C40.1812 6.80298 40.14 6.59682 40.1501 6.39L39.8621 6.51C39.8751 6.71964 39.9324 6.92412 40.0301 7.11C40.0904 7.2687 40.107 7.44072 40.0781 7.608C40.0549 7.7274 40.0579 7.85034 40.0869 7.96848C40.116 8.08656 40.1703 8.19696 40.2461 8.292H40.2401ZM40.2461 6.492V6.372C40.4027 6.19584 40.6141 6.07746 40.8461 6.036C40.9661 5.988 41.0561 6.036 41.1821 6.126C41.1031 6.12774 41.0278 6.16002 40.9721 6.216C40.8438 6.33078 40.7004 6.42768 40.5461 6.504C40.4502 6.49686 40.354 6.49686 40.2581 6.504" fill="white"/>
<path d="M41.1656 6.084C41.2681 6.17208 41.3413 6.28932 41.3756 6.42C41.3381 6.5979 41.2668 6.76698 41.1656 6.918C41.0635 7.03722 41.0044 7.18722 40.9976 7.344C40.9976 7.434 41.0876 7.512 41.1176 7.602C41.028 7.57674 40.9443 7.53408 40.8711 7.47642C40.798 7.41876 40.737 7.34724 40.6916 7.266C40.6688 7.1862 40.6679 7.10178 40.689 7.02156C40.7101 6.94128 40.7525 6.86826 40.8116 6.81C40.8859 6.64536 40.9829 6.49188 41.0996 6.354C41.1472 6.27024 41.1681 6.17394 41.1596 6.078L41.1656 6.084ZM43.3916 8.73C43.4628 8.98512 43.5764 9.2265 43.7276 9.444C43.8322 9.62706 43.89 9.83322 43.8956 10.044C43.9828 9.84414 44.0139 9.62424 43.9856 9.408C43.8792 9.11682 43.6641 8.87814 43.3856 8.742L43.3916 8.73ZM43.8116 8.82C43.9418 8.8284 44.0696 8.85882 44.1896 8.91C44.3829 9.05874 44.5169 9.27144 44.5676 9.51C44.4342 9.4725 44.3068 9.41592 44.1896 9.342C44.0193 9.20736 43.8886 9.02904 43.8116 8.826V8.82ZM42.4616 9.342C42.3716 9.342 42.2936 9.39 42.2036 9.39C42.3214 9.43356 42.4341 9.4899 42.5396 9.558C42.6018 9.61098 42.6525 9.67608 42.6885 9.74934C42.7246 9.8226 42.7455 9.90246 42.7496 9.984C42.8079 10.2158 42.8946 10.4395 43.0076 10.65C43.0108 10.4229 43.0513 10.1979 43.1276 9.984C43.0311 9.92802 42.9441 9.8571 42.8696 9.774C42.7882 9.58824 42.6436 9.43734 42.4616 9.348V9.342ZM43.6616 9.948C43.7565 10.1421 43.8037 10.356 43.7996 10.572C43.7021 10.7997 43.575 11.0135 43.4216 11.208C43.3694 10.9591 43.3393 10.7062 43.3316 10.452C43.3274 10.3417 43.3538 10.2323 43.4077 10.1359C43.4617 10.0396 43.5413 9.96006 43.6376 9.906L43.6616 9.948ZM44.0936 9.906C44.2231 10.1313 44.3257 10.3709 44.3996 10.62C44.4204 10.6978 44.4231 10.7794 44.4075 10.8584C44.3919 10.9375 44.3584 11.0119 44.3096 11.076C44.1896 11.244 44.0516 11.412 43.9316 11.574C43.8516 11.4757 43.7943 11.3609 43.7636 11.238C43.7532 11.0711 43.7653 10.9036 43.7996 10.74C43.9308 10.4736 44.0334 10.1941 44.1056 9.906H44.0936ZM44.2736 11.544C44.1115 11.7094 43.9687 11.8926 43.8476 12.09C43.803 12.1577 43.7791 12.2369 43.7791 12.318C43.7791 12.3991 43.803 12.4783 43.8476 12.546C43.9797 12.7313 44.1494 12.8867 44.3456 13.002C44.2273 12.8249 44.1684 12.6148 44.1776 12.402C44.2229 12.256 44.2791 12.1136 44.3456 11.976C44.353 11.826 44.3263 11.6762 44.2676 11.538L44.2736 11.544ZM43.6676 11.328C43.7493 11.4368 43.7916 11.57 43.7876 11.706C43.7795 11.8752 43.7493 12.0427 43.6976 12.204C43.6071 12.4516 43.4947 12.6905 43.3616 12.918C43.2747 12.8021 43.204 12.675 43.1516 12.54C43.2716 12.372 43.3616 12.204 43.4876 12.042C43.5653 11.8088 43.6255 11.5702 43.6676 11.328ZM43.5776 11.208C43.4916 11.6554 43.3227 12.0827 43.0796 12.468C43.0114 12.5944 42.9164 12.7043 42.8014 12.7903C42.6864 12.8763 42.5541 12.9362 42.4136 12.966C42.2897 12.9601 42.1707 12.916 42.0729 12.8397C41.9752 12.7634 41.9034 12.6587 41.8676 12.54C41.8252 12.4304 41.8111 12.3119 41.8269 12.1954C41.8426 12.079 41.8876 11.9684 41.9576 11.874C41.9839 11.98 42.0369 12.0775 42.1114 12.1573C42.186 12.2371 42.2797 12.2965 42.3836 12.33C42.7016 12.3 43.1276 11.922 43.5836 11.208" fill="white"/>
<path d="M43.2 10.92C43.2417 11.0773 43.2417 11.2428 43.2 11.4C43.1839 11.487 43.1501 11.5698 43.1005 11.6431C43.051 11.7164 42.9868 11.7787 42.912 11.826C42.8146 11.8827 42.6998 11.9017 42.5893 11.8796C42.4788 11.8575 42.3802 11.7958 42.312 11.706L42.264 11.658C42.4741 11.6368 42.6737 11.556 42.8395 11.4254C43.0052 11.2946 43.1303 11.1194 43.2 10.92ZM44.232 13.8C44.3923 14.0008 44.5198 14.2256 44.61 14.466C44.6018 14.7774 44.5129 15.0813 44.352 15.348C44.1602 15.1885 44.0134 14.9817 43.926 14.748C43.9037 14.5772 43.9195 14.4036 43.9724 14.2397C44.0254 14.0757 44.114 13.9256 44.232 13.8ZM43.824 14.088C43.897 13.8848 44.0114 13.6988 44.16 13.542C44.2042 13.3625 44.186 13.1734 44.1086 13.0055C44.0312 12.8376 43.8992 12.701 43.734 12.618C43.5807 12.8167 43.4666 13.0427 43.398 13.284C43.35 13.632 43.686 13.8 43.824 14.088ZM43.068 12.66C42.9761 12.7905 42.8624 12.9041 42.732 12.996V13.422C42.7976 13.6669 42.884 13.9058 42.99 14.136C43.1207 13.9746 43.2186 13.7891 43.278 13.59C43.3126 13.4263 43.3287 13.2593 43.326 13.092C43.2514 12.9435 43.1651 12.801 43.068 12.666V12.66ZM42.354 13.866C42.1751 13.6113 42.0544 13.3205 42 13.014C42.0906 13.0649 42.1912 13.0955 42.2947 13.1037C42.3983 13.112 42.5024 13.0978 42.6 13.062C42.6455 13.2412 42.6455 13.4289 42.6 13.608C42.5213 13.7103 42.435 13.8066 42.342 13.896L42.354 13.866ZM42.39 13.986L42.6 13.8C42.648 13.752 42.81 14.178 42.858 14.298C42.768 14.298 42.69 14.298 42.648 14.25C42.5701 14.1618 42.4837 14.0814 42.39 14.01V13.986ZM43.35 13.8C43.2224 14.0099 43.0801 14.2104 42.924 14.4C42.9693 14.546 43.0255 14.6884 43.092 14.826C43.1934 15.0093 43.3207 15.1771 43.47 15.324C43.5725 15.1671 43.6589 15.0003 43.728 14.826C43.7978 14.6957 43.8231 14.5461 43.8 14.4C43.71 14.19 43.464 13.974 43.374 13.764L43.35 13.8ZM43.8 14.94C43.9392 15.1235 44.0523 15.3255 44.136 15.54C44.1654 15.6677 44.1484 15.8018 44.088 15.918C44.04 16.008 43.92 16.206 43.83 16.374C43.6607 16.2458 43.5299 16.0736 43.452 15.876C43.4263 15.794 43.4173 15.7077 43.4255 15.6222C43.4338 15.5366 43.4591 15.4536 43.5 15.378C43.59 15.258 43.758 15.138 43.806 14.952L43.8 14.94ZM42.954 14.922C43.0721 15.0742 43.169 15.2417 43.242 15.42C43.2863 15.4955 43.3097 15.5815 43.3097 15.669C43.3097 15.7566 43.2863 15.8426 43.242 15.918C43.152 16.086 43.074 16.206 43.032 16.296C42.9101 16.162 42.8127 16.0077 42.744 15.84C42.699 15.6771 42.699 15.505 42.744 15.342C42.8436 15.2166 42.9152 15.0714 42.954 14.916V14.922ZM44.154 16.116C43.9824 16.3437 43.8617 16.6056 43.8 16.884C43.8656 17.1426 43.9519 17.3954 44.058 17.64C44.1795 17.517 44.2772 17.3726 44.346 17.214C44.45 17.0523 44.4926 16.8585 44.466 16.668C44.4712 16.5647 44.4522 16.4615 44.4106 16.3667C44.3689 16.2719 44.3057 16.1882 44.226 16.122L44.154 16.116ZM43.422 16.074C43.5509 16.2618 43.6238 16.4824 43.632 16.71C43.5421 16.9217 43.4295 17.1228 43.296 17.31C43.2071 17.1527 43.1367 16.9856 43.086 16.812C43.0822 16.6733 43.1106 16.5356 43.1689 16.4097C43.2272 16.2837 43.3138 16.173 43.422 16.086V16.074ZM47.67 7.68603C47.3995 7.59501 47.1065 7.59501 46.836 7.68603C47.1088 7.76205 47.3972 7.76205 47.67 7.68603ZM44.7 6.34203C44.8065 6.08103 44.8928 5.81226 44.958 5.53803C44.958 5.4696 44.9308 5.40398 44.8825 5.3556C44.834 5.30722 44.7684 5.28003 44.7 5.28003C44.6316 5.28003 44.566 5.30722 44.5175 5.3556C44.4692 5.40398 44.442 5.4696 44.442 5.53803C44.5005 5.81409 44.587 6.08349 44.7 6.34203ZM45.414 6.76803C45.58 6.43581 45.7068 6.08547 45.792 5.72403C45.744 5.63403 45.702 5.55603 45.624 5.55603C45.546 5.55603 45.456 5.50803 45.414 5.55603C45.266 5.90256 45.1788 6.27195 45.156 6.64803C45.204 6.67803 45.324 6.72603 45.414 6.76803ZM45 6.67203H44.82C44.8634 6.35859 44.9336 6.04941 45.03 5.74803C45.0298 5.66911 45.0555 5.59229 45.1032 5.52941C45.1509 5.46654 45.2179 5.42108 45.294 5.40003C45.246 5.56803 45.174 5.73603 45.126 5.89803C45.078 6.15603 45.036 6.41403 44.988 6.65403L45 6.67203ZM45.036 7.12203C45.2846 7.11435 45.5309 7.17231 45.75 7.29003C45.9134 7.39377 46.0445 7.54137 46.128 7.71603C45.8794 7.72371 45.6331 7.66575 45.414 7.54803C45.3206 7.51389 45.2372 7.45707 45.1712 7.38273C45.1052 7.30839 45.0588 7.21881 45.036 7.12203ZM45.204 7.24203C45.3432 7.38939 45.5132 7.50411 45.702 7.57803C45.6484 7.48923 45.5761 7.41315 45.4901 7.35513C45.404 7.29705 45.3064 7.25847 45.204 7.24203ZM47.052 8.76003V8.55003C46.8685 8.68923 46.6666 8.80233 46.452 8.88603C46.4462 8.81277 46.4629 8.73951 46.5 8.67603C46.4221 8.72547 46.3338 8.75625 46.242 8.76603C46.29 8.67603 46.29 8.55603 46.362 8.47803C46.3285 8.52471 46.2856 8.56383 46.2359 8.59281C46.1863 8.62173 46.1311 8.63991 46.074 8.64603C46.0675 8.55735 46.084 8.46843 46.122 8.38803C46.0043 8.55885 45.8264 8.67885 45.624 8.72403C45.5375 8.74629 45.4469 8.74695 45.3601 8.72607C45.2732 8.70513 45.1928 8.66325 45.126 8.60403C45.377 8.59821 45.6158 8.49495 45.792 8.31603C45.6955 8.25999 45.6085 8.18913 45.534 8.10603C45.5897 8.05005 45.665 8.01777 45.744 8.01603C45.6835 7.99689 45.6284 7.96341 45.5835 7.91853C45.5386 7.87359 45.5051 7.81857 45.486 7.75803C45.9669 7.87617 46.4609 7.93263 46.956 7.92603C47.2384 7.92663 47.5193 7.88619 47.79 7.80603C47.67 8.68803 47.046 8.77803 47.046 8.77803L47.052 8.76003ZM47.166 8.40003C47.2127 8.36655 47.2518 8.32359 47.2808 8.27397C47.3097 8.22435 47.3279 8.16915 47.334 8.11203C47.0811 8.11857 46.8281 8.10249 46.578 8.06403V8.11203C46.626 8.14203 47.178 8.14203 47.178 8.40003H47.166ZM47.844 7.85403C47.8405 8.04219 47.7997 8.22777 47.724 8.40003C47.8519 8.31981 47.9523 8.20263 48.012 8.06403C48.06 7.88403 48.06 7.75803 47.844 7.85403ZM48.27 8.05203C48.3697 8.00541 48.4817 7.99191 48.5897 8.01351C48.6977 8.03511 48.7959 8.09067 48.87 8.17203C48.9249 8.29287 48.9382 8.42847 48.9078 8.55771C48.8774 8.68689 48.805 8.80239 48.702 8.88603C48.5781 8.78307 48.4221 8.72673 48.261 8.72673C48.0999 8.72673 47.9439 8.78307 47.82 8.88603C47.7015 8.82537 47.5738 8.78481 47.442 8.76603C47.5362 8.65905 47.6503 8.57139 47.778 8.50803C47.9932 8.42043 48.1698 8.25867 48.276 8.05203H48.27ZM48.444 8.52003C48.444 8.50221 48.4387 8.48481 48.4288 8.47005C48.4189 8.45523 48.4049 8.44371 48.3884 8.43687C48.372 8.43009 48.3539 8.42829 48.3364 8.43177C48.319 8.43525 48.3029 8.44383 48.2903 8.45637C48.2778 8.46897 48.2692 8.48499 48.2657 8.50245C48.2623 8.51991 48.2641 8.53803 48.2708 8.55447C48.2777 8.57091 48.2892 8.58495 48.304 8.59485C48.3188 8.60475 48.3362 8.61003 48.354 8.61003C48.402 8.61003 48.444 8.56203 48.444 8.52003ZM47.352 8.80803C47.2631 8.92593 47.1669 9.03813 47.064 9.14403C47.2424 9.13773 47.4184 9.18687 47.5677 9.28461C47.717 9.38241 47.8324 9.52401 47.898 9.69003C47.9581 9.60309 47.9942 9.50187 48.0027 9.39651C48.0111 9.29115 47.9915 9.18543 47.946 9.09003C47.874 9.00009 47.7827 8.92749 47.6788 8.87769C47.575 8.82783 47.4612 8.80197 47.346 8.80203" fill="white"/>
<path d="M46.6244 8.95201L46.3364 9.04201V8.87401C46.2464 8.87401 46.2164 8.92201 46.1264 8.92201C46.0391 9.16873 45.9091 9.39823 45.7424 9.60001C45.7522 9.69181 45.783 9.78007 45.8324 9.85801C45.934 9.68515 46.0462 9.51883 46.1684 9.36001C46.2856 9.19249 46.4422 9.05647 46.6244 8.96401V8.95201ZM47.1704 8.87401C46.9555 8.91979 46.7516 9.00745 46.5704 9.13201C46.4684 9.19567 46.3842 9.28399 46.3255 9.38887C46.2667 9.49381 46.2354 9.61183 46.2344 9.73201C46.3264 9.60157 46.44 9.48793 46.5704 9.39601C46.8062 9.27067 47.0112 9.09439 47.1704 8.88001V8.87401ZM47.1704 6.73801C47.0804 6.73801 47.0024 6.78601 47.0024 6.85801C47.0534 7.01803 47.124 7.17121 47.2124 7.31401C47.3094 7.17595 47.3805 7.02145 47.4224 6.85801C47.3539 6.78787 47.2622 6.74521 47.1644 6.73801H47.1704ZM47.2844 7.54201C47.2975 7.33237 47.3547 7.12789 47.4524 6.94201C47.5304 6.89257 47.6186 6.86179 47.7104 6.85201C47.7584 6.85201 47.8304 6.90001 47.8004 6.97201V7.02001C47.6996 7.20865 47.5874 7.39099 47.4644 7.56601C47.4644 7.53601 47.3744 7.53601 47.2844 7.53601V7.54201ZM47.0864 7.53601C47.0512 7.33075 46.9949 7.12975 46.9184 6.93601C46.8405 6.88657 46.7522 6.85579 46.6604 6.84601C46.6295 6.84871 46.6006 6.86221 46.5786 6.88417C46.5566 6.90613 46.5431 6.93511 46.5404 6.96601V7.01401C46.6413 7.20265 46.7535 7.38499 46.8764 7.56001C46.9427 7.53223 47.015 7.52185 47.0864 7.53001V7.53601ZM46.8764 6.22801H47.1164V6.00001H47.2844V6.21001H47.4944V6.37801H47.2844V6.60001H47.1164V6.36001H46.8764V6.22801ZM44.3984 4.87201H44.6084V4.61401H44.7764V4.87201H44.9984V4.99201H44.7884V5.29801H44.6204V4.99201H44.3984V4.87201ZM49.4504 7.72201V7.31401C49.5527 7.34779 49.6465 7.40335 49.7252 7.47691C49.804 7.55047 49.8658 7.64023 49.9064 7.74001C49.9064 7.74001 49.5704 7.53001 49.4504 7.74001V7.72201ZM49.1444 8.28601C49.0964 8.11801 49.0544 7.90801 49.0244 7.74001C48.9481 7.49053 48.9652 7.22179 49.0724 6.98401C49.1833 6.80491 49.2259 6.59191 49.1924 6.38401L49.4804 6.50401C49.4674 6.71365 49.4102 6.91813 49.3124 7.10401C49.2521 7.26271 49.2356 7.43473 49.2644 7.60201C49.3107 7.71577 49.324 7.84027 49.3027 7.96123C49.2815 8.08225 49.2266 8.19475 49.1444 8.28601ZM49.1444 6.48601V6.36601C48.9878 6.18985 48.7765 6.07147 48.5444 6.03001C48.4244 5.98201 48.3344 6.03001 48.2084 6.12001C48.2875 6.12175 48.3627 6.15403 48.4184 6.21001C48.5468 6.32479 48.6901 6.42169 48.8444 6.49801C48.9404 6.49255 49.0365 6.49255 49.1324 6.49801" fill="white"/>
<path d="M48.2223 6.084C48.1198 6.17208 48.0465 6.28932 48.0123 6.42C48.0498 6.5979 48.121 6.76698 48.2223 6.918C48.3243 7.03722 48.3835 7.18722 48.3903 7.344C48.3903 7.434 48.3003 7.512 48.2703 7.602C48.3598 7.57674 48.4436 7.53408 48.5167 7.47642C48.5898 7.41876 48.6508 7.34724 48.6963 7.266C48.7191 7.1862 48.72 7.10178 48.6988 7.02156C48.6777 6.94128 48.6354 6.86826 48.5763 6.81C48.5019 6.64536 48.405 6.49188 48.2883 6.354C48.2407 6.27024 48.2197 6.17394 48.2283 6.078L48.2223 6.084ZM46.0143 8.73C45.943 8.98512 45.8295 9.2265 45.6783 9.444C45.5613 9.63504 45.5029 9.85614 45.5103 10.08C45.423 9.88014 45.3919 9.66024 45.4203 9.444C45.4529 9.28446 45.5249 9.13554 45.6297 9.01086C45.7344 8.88618 45.8687 8.78964 46.0203 8.73H46.0143ZM45.5943 8.808C45.4641 8.8164 45.3363 8.84682 45.2163 8.898C45.0229 9.04674 44.889 9.25944 44.8383 9.498C44.9717 9.4605 45.099 9.40392 45.2163 9.33C45.383 9.19194 45.5129 9.01464 45.5943 8.814V8.808ZM46.9443 9.33C47.0343 9.33 47.1123 9.378 47.2023 9.378C47.0844 9.42156 46.9718 9.4779 46.8663 9.546C46.8041 9.59898 46.7534 9.66408 46.7173 9.73734C46.6812 9.8106 46.6605 9.89046 46.6563 9.972C46.5979 10.2038 46.5113 10.4275 46.3983 10.638C46.3951 10.4109 46.3545 10.1859 46.2783 9.972C46.3747 9.91602 46.4618 9.8451 46.5363 9.762C46.572 9.66708 46.6265 9.58044 46.6966 9.50718C46.7667 9.43398 46.851 9.37572 46.9443 9.336V9.33ZM45.7443 9.936C45.6454 10.1332 45.5961 10.3515 45.6003 10.572C45.6978 10.7997 45.8249 11.0135 45.9783 11.208C46.0305 10.9591 46.0606 10.7062 46.0683 10.452C46.0664 10.3428 46.0375 10.2357 45.9841 10.1404C45.9307 10.0451 45.8545 9.96456 45.7623 9.906L45.7443 9.936ZM44.7003 10.662C44.7003 10.494 45.0783 10.116 45.0783 9.906C45.0487 9.81804 44.9992 9.73818 44.9337 9.6726C44.8681 9.60702 44.7882 9.55752 44.7003 9.528C44.5393 9.61344 44.4077 9.74508 44.3223 9.906C44.3223 10.116 44.7003 10.542 44.7003 10.662ZM45.3003 9.906C45.1729 10.1315 45.0722 10.3712 45.0003 10.62C44.9795 10.6978 44.9768 10.7794 44.9924 10.8584C45.008 10.9375 45.0415 11.0119 45.0903 11.076C45.2103 11.244 45.3483 11.412 45.4683 11.574C45.5482 11.4757 45.6056 11.3609 45.6363 11.238C45.6466 11.0711 45.6345 10.9036 45.6003 10.74C45.4624 10.4765 45.3595 10.1962 45.2943 9.906H45.3003ZM44.6943 11.88C44.8101 11.7944 44.8995 11.678 44.9523 11.544C44.9783 11.4895 44.9877 11.4285 44.9791 11.3687C44.9706 11.3089 44.9445 11.253 44.9043 11.208C44.802 11.1028 44.7295 10.9724 44.6943 10.83C44.6418 10.965 44.5711 11.0921 44.4843 11.208C44.4433 11.2526 44.4168 11.3086 44.4082 11.3686C44.3996 11.4286 44.4094 11.4897 44.4363 11.544C44.493 11.6757 44.5817 11.7911 44.6943 11.88ZM45.1203 11.544C45.2823 11.7094 45.4252 11.8926 45.5463 12.09C45.5909 12.1577 45.6147 12.2369 45.6147 12.318C45.6147 12.3991 45.5909 12.4783 45.5463 12.546C45.4141 12.7313 45.2445 12.8867 45.0483 13.002C45.1666 12.8249 45.2254 12.6148 45.2163 12.402C45.171 12.256 45.1148 12.1136 45.0483 11.976C45.0409 11.826 45.0676 11.6762 45.1263 11.538L45.1203 11.544ZM45.7263 11.328C45.6445 11.4368 45.6022 11.57 45.6063 11.706C45.6144 11.8752 45.6446 12.0427 45.6963 12.204C45.7867 12.4516 45.8992 12.6905 46.0323 12.918C46.1191 12.8021 46.1898 12.675 46.2423 12.54C46.1223 12.372 46.0323 12.204 45.9063 12.042C45.7803 11.88 45.7683 11.544 45.7263 11.328ZM45.8643 11.208C45.9502 11.6554 46.1191 12.0827 46.3623 12.468C46.4305 12.5944 46.5255 12.7043 46.6404 12.7903C46.7554 12.8763 46.8878 12.9362 47.0283 12.966C47.1522 12.9601 47.2711 12.916 47.3689 12.8397C47.4667 12.7634 47.5384 12.6587 47.5743 12.54C47.6167 12.4304 47.6307 12.3119 47.6149 12.1954C47.5992 12.079 47.5543 11.9684 47.4843 11.874C47.4579 11.98 47.4049 12.0775 47.3304 12.1573C47.2558 12.2371 47.1622 12.2965 47.0583 12.33C46.7403 12.3 46.3143 11.922 45.8583 11.208" fill="white"/>
<path d="M46.1994 10.92C46.1577 11.0773 46.1577 11.2428 46.1994 11.4C46.2155 11.487 46.2494 11.5698 46.2989 11.6432C46.3485 11.7164 46.4127 11.7787 46.4874 11.826C46.5849 11.8827 46.6997 11.9017 46.8102 11.8796C46.9206 11.8575 47.0193 11.7958 47.0874 11.706L47.1354 11.658C46.9247 11.639 46.724 11.559 46.5579 11.428C46.3917 11.297 46.2672 11.1205 46.1994 10.92ZM44.6994 13.014C44.8085 12.9785 44.9005 12.9036 44.9574 12.804C45.0394 12.651 45.0807 12.4796 45.0774 12.306C45.0317 12.168 44.9604 12.0398 44.8674 11.928C44.8209 11.9799 44.7636 12.0209 44.6994 12.048C44.6471 12.0031 44.5909 11.963 44.5314 11.928C44.4446 12.0439 44.3739 12.171 44.3214 12.306C44.3034 12.3927 44.3049 12.4824 44.3256 12.5685C44.3463 12.6546 44.3859 12.735 44.4414 12.804C44.4894 12.942 44.5794 12.972 44.6994 13.014ZM44.6994 14.274C44.7474 14.064 45.1254 13.728 45.1254 13.518C45.1254 13.308 44.8674 13.26 44.6994 13.14C44.5314 13.26 44.3634 13.23 44.2734 13.518C44.2734 13.686 44.6514 14.064 44.6994 14.274ZM45.1554 13.818C44.9952 14.0188 44.8676 14.2436 44.7774 14.484C44.7857 14.7954 44.8746 15.0993 45.0354 15.366C45.2272 15.2065 45.374 14.9997 45.4614 14.766C45.4903 14.5923 45.4776 14.4142 45.4244 14.2463C45.3712 14.0784 45.279 13.9255 45.1554 13.8V13.818ZM45.5814 14.088C45.5084 13.8848 45.3941 13.6988 45.2454 13.542C45.2013 13.3625 45.2194 13.1734 45.2968 13.0055C45.3742 12.8376 45.5063 12.701 45.6714 12.618C45.8073 12.8272 45.92 13.0505 46.0074 13.284C46.0374 13.632 45.7014 13.8 45.5814 14.088ZM46.3374 12.66C46.4294 12.7905 46.543 12.9041 46.6734 12.996V13.422C46.6078 13.6669 46.5215 13.9058 46.4154 14.136C46.2847 13.9746 46.1868 13.7891 46.1274 13.59C46.0928 13.4264 46.0767 13.2593 46.0794 13.092C46.1274 13.044 46.2474 12.786 46.3374 12.666V12.66ZM47.0514 13.866C47.2281 13.6108 47.3469 13.32 47.3994 13.014C47.3088 13.0649 47.2083 13.0955 47.1047 13.1037C47.0011 13.112 46.897 13.0978 46.7994 13.062C46.754 13.2412 46.754 13.4289 46.7994 13.608C46.8738 13.7139 46.9604 13.8105 47.0574 13.896L47.0514 13.866ZM47.0094 13.986C46.9194 13.896 46.8414 13.866 46.7994 13.776C46.7094 13.944 46.6314 14.112 46.5414 14.274C46.6314 14.274 46.7094 14.274 46.7514 14.226C46.8294 14.1378 46.9158 14.0574 47.0094 13.986ZM46.0314 13.8C46.159 14.0099 46.3014 14.2104 46.4574 14.4C46.4121 14.546 46.356 14.6885 46.2894 14.826C46.188 15.0093 46.0607 15.1771 45.9114 15.324C45.809 15.1671 45.7225 15.0003 45.6534 14.826C45.5898 14.6936 45.5708 14.5442 45.5994 14.4C45.6894 14.19 45.9474 13.974 46.0254 13.764L46.0314 13.8ZM44.6994 16.458C44.8078 16.2972 44.9079 16.131 44.9994 15.96C45.0401 15.8435 45.0401 15.7166 44.9994 15.6C44.9514 15.48 44.7414 15.174 44.7114 15.102C44.5952 15.26 44.4909 15.4265 44.3994 15.6C44.3544 15.722 44.3544 15.8561 44.3994 15.978C44.4774 16.236 44.6874 16.356 44.6874 16.476L44.6994 16.458ZM45.5214 14.958C45.3822 15.1415 45.2691 15.3435 45.1854 15.558C45.156 15.6857 45.1731 15.8197 45.2334 15.936C45.2814 16.026 45.4014 16.224 45.4914 16.392C45.6607 16.2638 45.7915 16.0916 45.8694 15.894C45.8952 15.812 45.9042 15.7257 45.896 15.6402C45.8877 15.5546 45.8624 15.4716 45.8214 15.396C45.7734 15.276 45.6114 15.156 45.5154 14.97L45.5214 14.958ZM46.3974 14.94C46.2793 15.0922 46.1824 15.2597 46.1094 15.438C46.0652 15.5135 46.0418 15.5995 46.0418 15.687C46.0418 15.7746 46.0652 15.8606 46.1094 15.936C46.1994 16.104 46.2774 16.224 46.3194 16.314C46.4413 16.18 46.5387 16.0257 46.6074 15.858C46.6524 15.6951 46.6524 15.523 46.6074 15.36C46.5195 15.2276 46.4489 15.0845 46.3974 14.934V14.94ZM44.6994 18.9C44.867 18.5387 44.9802 18.1545 45.0354 17.76C44.991 17.4686 44.8756 17.1925 44.6994 16.956C44.5032 17.1805 44.3852 17.4627 44.3634 17.76C44.4053 18.1573 44.5191 18.5436 44.6994 18.9ZM45.1974 16.122C45.3854 16.3437 45.5226 16.6038 45.5994 16.884C45.5339 17.1425 45.4476 17.3954 45.3414 17.64C45.2199 17.517 45.1223 17.3726 45.0534 17.214C44.9954 17.137 44.9547 17.0483 44.934 16.9541C44.9133 16.8599 44.9131 16.7623 44.9334 16.668C44.9223 16.564 44.9387 16.4589 44.9808 16.3631C45.0229 16.2673 45.0893 16.1842 45.1734 16.122H45.1974ZM45.9774 16.074C45.8485 16.2618 45.7757 16.4824 45.7674 16.71C45.8573 16.9217 45.9699 17.1228 46.1034 17.31C46.1923 17.1527 46.2627 16.9856 46.3134 16.812C46.3172 16.6733 46.2888 16.5356 46.2305 16.4097C46.1723 16.2837 46.0856 16.173 45.9774 16.086" fill="white"/>
<path d="M44.9995 19.734C45.0539 19.4433 45.1509 19.1623 45.2875 18.9C45.3136 18.7759 45.312 18.6477 45.283 18.5243C45.254 18.4009 45.1982 18.2854 45.1195 18.186C45.0051 18.5602 44.8627 18.9252 44.6935 19.278C44.5307 18.9225 44.3885 18.5579 44.2675 18.186C44.1888 18.2854 44.133 18.4009 44.104 18.5243C44.075 18.6477 44.0734 18.7759 44.0995 18.9C44.2244 19.1684 44.3248 19.4476 44.3995 19.734C44.3936 19.8579 44.3495 19.9769 44.2732 20.0747C44.1969 20.1724 44.0922 20.2442 43.9735 20.28C44.0781 20.3212 44.1934 20.3271 44.3017 20.2968C44.4101 20.2665 44.5055 20.2016 44.5735 20.112C44.6253 20.0655 44.6663 20.0082 44.6935 19.944C44.7384 19.9963 44.7786 20.0526 44.8135 20.112C44.8809 20.2024 44.9763 20.2679 45.0849 20.2983C45.1934 20.3287 45.309 20.3223 45.4135 20.28C45.3143 20.2202 45.228 20.1411 45.16 20.0473C45.092 19.9534 45.0435 19.8469 45.0175 19.734H44.9995ZM43.6375 17.094C43.6855 17.214 43.8055 17.52 43.8475 17.592C43.8638 17.7018 43.8446 17.814 43.7928 17.9122C43.7411 18.0103 43.6593 18.0895 43.5595 18.138C43.4467 18.0699 43.3568 17.9696 43.3015 17.85C43.2738 17.7959 43.2635 17.7346 43.2721 17.6744C43.2807 17.6142 43.3077 17.5582 43.3495 17.514C43.4146 17.3534 43.5127 17.2083 43.6375 17.088V17.094ZM44.2375 17.688C44.2177 17.9467 44.1611 18.2013 44.0695 18.444C44.0057 18.5785 43.9129 18.6973 43.7978 18.7917C43.6826 18.8862 43.5479 18.9538 43.4035 18.99C43.2654 18.9666 43.1354 18.9089 43.0255 18.822C43.0361 18.7443 43.0689 18.6712 43.12 18.6116C43.1711 18.552 43.2383 18.5084 43.3135 18.486C43.6953 18.3171 44.0174 18.0369 44.2375 17.682V17.688ZM43.4335 18.282C43.3812 18.2371 43.325 18.1969 43.2655 18.162C43.1164 18.2166 42.9735 18.2869 42.8395 18.372C42.6656 18.5004 42.5118 18.6541 42.3835 18.828C42.5321 18.8738 42.6909 18.8738 42.8395 18.828C42.8722 18.6729 42.965 18.537 43.0975 18.45C43.1977 18.373 43.3118 18.3159 43.4335 18.282ZM43.1995 18.054C43.1178 17.9452 43.0755 17.812 43.0795 17.676L42.5815 18.012C42.4211 18.1343 42.2778 18.2776 42.1555 18.438C42.3187 18.3871 42.485 18.3471 42.6535 18.318C42.8635 18.228 43.0315 18.15 43.1995 18.06V18.054ZM42.5335 18.486C42.245 18.5775 41.9502 18.6477 41.6515 18.696C41.4462 18.7846 41.2607 18.913 41.1055 19.074L41.5615 19.194C41.7173 19.0813 41.8841 18.9848 42.0595 18.906C42.2421 18.7963 42.4011 18.6515 42.5275 18.48L42.5335 18.486ZM42.1015 19.86C42.1915 19.812 42.1915 19.74 42.1495 19.65C42.0794 19.5501 41.9781 19.4763 41.8615 19.44C41.6035 19.35 41.3155 19.272 41.0575 19.182C41.0126 19.2343 40.9724 19.2906 40.9375 19.35C40.9375 19.398 40.9375 19.44 41.0275 19.44H41.5735C41.6031 19.4652 41.6237 19.4992 41.6324 19.537C41.6411 19.5749 41.6372 19.6145 41.6215 19.65C41.6994 19.6006 41.7877 19.5698 41.8795 19.56C41.9371 19.5918 41.9873 19.6356 42.0266 19.6884C42.0659 19.7412 42.0935 19.8017 42.1075 19.866L42.1015 19.86ZM41.6815 19.2C41.8301 19.2376 41.9732 19.2941 42.1075 19.368C42.1555 19.32 42.1975 19.32 42.2275 19.278C42.3064 19.1372 42.4227 19.0209 42.5635 18.942C42.4902 18.9478 42.417 18.9311 42.3535 18.894C42.2635 18.942 42.1855 18.942 42.0955 18.984C41.9495 19.0325 41.8118 19.1034 41.6875 19.194L41.6815 19.2ZM42.8875 18.906C42.8395 18.954 42.7675 18.954 42.6775 18.954C42.4536 19.0875 42.2902 19.3026 42.2215 19.554C42.1941 19.6264 42.1963 19.7068 42.2278 19.7776C42.2592 19.8483 42.3174 19.9038 42.3895 19.932C42.4785 19.9711 42.5789 19.9756 42.671 19.9445C42.7632 19.9134 42.8404 19.849 42.8875 19.764C42.8875 19.716 42.9355 19.716 42.9355 19.674C42.9048 19.6989 42.8694 19.7173 42.8316 19.7286C42.7937 19.7397 42.7539 19.7433 42.7147 19.7391C42.6754 19.7349 42.6374 19.723 42.6026 19.7042C42.5679 19.6853 42.5373 19.6597 42.5125 19.629C42.4624 19.567 42.4389 19.4875 42.4474 19.4082C42.4559 19.3288 42.4955 19.2561 42.5575 19.206C42.6055 19.206 42.6055 19.158 42.6475 19.158C42.783 19.0708 42.9426 19.0288 43.1035 19.038C43.0135 18.99 42.9355 18.918 42.8935 18.918" fill="white"/>
<path d="M40.164 22.2C40.2156 21.994 40.2859 21.7932 40.374 21.6C40.584 21.174 41.01 20.13 41.964 19.962C42.054 19.962 41.874 19.704 41.754 19.752C41.6322 19.7859 41.5182 19.8429 41.418 19.92V19.662C41.418 19.614 41.37 19.614 41.328 19.614C41.2103 19.6161 41.0949 19.647 40.992 19.704C40.6654 20.149 40.3992 20.6352 40.2 21.15C39.99 21.648 39.864 21.816 39.6 21.75C39.336 21.684 39.264 21.414 38.844 21.492C38.6804 21.5359 38.5327 21.6254 38.418 21.75C38.4391 21.7979 38.4769 21.8364 38.5244 21.8585C38.5719 21.8805 38.6257 21.8846 38.676 21.87C38.9281 21.8768 39.1743 21.9491 39.39 22.08C39.6454 22.1394 39.9038 22.1855 40.164 22.218V22.2ZM43.986 18.912C44.0148 19.0797 44.0873 19.237 44.196 19.368C44.196 19.368 43.908 20.718 42.846 20.838C42.8912 20.6355 43.0112 20.4576 43.182 20.34C43.518 20.13 43.986 19.794 43.938 19.296C43.8415 19.352 43.7544 19.4229 43.68 19.506C43.512 19.716 43.224 20.262 42.678 20.262C42.7278 20.0937 42.8284 19.9449 42.966 19.836C43.2141 19.7009 43.4308 19.5148 43.602 19.29C43.6786 19.1228 43.8128 18.9887 43.98 18.912H43.986ZM43.482 23.856L44.118 24.78L44.616 23.898L44.448 23.61L44.112 24.246L43.686 23.61L43.476 23.85" fill="white"/>
<path d="M43.3181 23.088L41.8481 21L42.1061 20.832L41.3501 20.544V21.378L41.6081 21.168L43.1561 23.352L43.3241 23.094L43.3181 23.088ZM38.0321 18.15C38.2421 17.94 38.5301 18.102 38.8661 18.438C39.2021 18.774 39.4121 19.038 39.2021 19.242C38.9921 19.446 38.7041 19.29 38.3681 18.984C38.0321 18.678 37.8701 18.384 38.0321 18.15Z" fill="white"/>
<path d="M38.5731 21.828C38.4777 21.7462 38.4022 21.6436 38.3523 21.5283C38.3024 21.4129 38.2794 21.2876 38.2851 21.162C38.2751 21.0405 38.2903 20.9182 38.3299 20.8029C38.3695 20.6875 38.4327 20.5816 38.5153 20.4919C38.5978 20.4022 38.6982 20.3306 38.8099 20.2816C38.9215 20.2326 39.0422 20.2074 39.1641 20.2074C39.2861 20.2074 39.4067 20.2326 39.5184 20.2816C39.6301 20.3306 39.7304 20.4022 39.813 20.4919C39.8956 20.5816 39.9587 20.6875 39.9983 20.8029C40.0379 20.9182 40.0531 21.0405 40.0431 21.162V21.33C40.1013 21.1728 40.1715 21.0204 40.2531 20.874C40.1729 20.5868 39.9839 20.3421 39.7263 20.192C39.4686 20.0419 39.1626 19.9981 38.8731 20.07C38.5656 20.1685 38.3091 20.3841 38.1591 20.67C38.2087 20.2983 38.3674 19.9495 38.6151 19.668C38.7644 19.5529 38.9331 19.4656 39.1131 19.41C38.9595 19.4104 38.8077 19.3768 38.6686 19.3114C38.5296 19.246 38.4068 19.1506 38.3091 19.032C38.0706 18.8619 37.9072 18.606 37.8531 18.318C37.8904 18.544 37.859 18.776 37.7631 18.984C37.5172 19.4497 37.4169 19.9786 37.4751 20.502C37.5893 21.0027 37.8529 21.4567 38.2311 21.804C38.2727 21.8491 38.3047 21.9021 38.3253 21.9598C38.346 22.0175 38.3547 22.0788 38.3511 22.14H39.1551C39.1551 22.14 39.3231 22.14 39.3231 22.02C39.3231 21.9 39.2331 21.9 39.1551 21.9C38.9531 21.9213 38.7489 21.9009 38.5551 21.84L38.5731 21.828ZM42.0291 22.02C41.6353 22.1403 41.2346 22.2365 40.8291 22.308C40.593 22.3453 40.3541 22.3614 40.1151 22.356V22.476C40.1313 22.4914 40.1439 22.5101 40.1521 22.5308C40.1604 22.5515 40.1641 22.5738 40.1631 22.596C40.416 22.6026 40.669 22.5865 40.9191 22.548C41.3692 22.4937 41.8095 22.3765 42.2271 22.2L42.0471 22.002L42.0291 22.02ZM42.7311 22.002C43.3768 21.6698 43.914 21.1597 44.2791 20.532L44.3691 20.412C44.3245 20.4347 44.2752 20.4465 44.2251 20.4465C44.1751 20.4465 44.1258 20.4347 44.0811 20.412L44.0331 20.502C43.6614 21.0546 43.1716 21.5177 42.5991 21.858L42.7191 22.008L42.7311 22.002ZM39.1191 22.248H38.6631C38.6332 22.239 38.6017 22.2363 38.5707 22.24C38.5396 22.2436 38.5096 22.2537 38.4826 22.2694C38.4556 22.2852 38.4321 22.3063 38.4136 22.3315C38.3952 22.3567 38.382 22.3855 38.3751 22.416C38.3271 22.506 38.3751 22.584 38.4651 22.674C38.5551 22.764 38.6331 22.722 38.6751 22.674C38.8474 22.5894 39.0138 22.4932 39.1731 22.386C39.2031 22.296 39.2511 22.206 39.1131 22.248H39.1191ZM39.4911 22.458C39.4261 22.425 39.354 22.4085 39.2811 22.41C39.1145 22.5007 38.9611 22.6137 38.8251 22.746C38.7771 22.836 38.8251 22.866 38.9151 22.914C38.9628 22.9511 39.023 22.9683 39.0831 22.962C39.1621 22.9603 39.2374 22.928 39.2931 22.872C39.3411 22.824 39.5031 22.614 39.5511 22.584C39.5404 22.54 39.5199 22.499 39.4911 22.464V22.458ZM39.5391 22.674C39.4911 22.722 39.3291 22.932 39.3291 22.932C39.3291 22.932 39.3291 22.98 39.3771 23.022H39.4251C39.5755 23.022 39.7229 22.9805 39.8511 22.902C39.9891 22.824 40.1091 22.614 39.9711 22.566C39.9365 22.5436 39.8976 22.5286 39.8569 22.522C39.8162 22.5153 39.7746 22.5171 39.7346 22.5272C39.6946 22.5373 39.6571 22.5556 39.6246 22.5808C39.592 22.6061 39.5649 22.6378 39.5451 22.674H39.5391ZM39.6351 22.128C39.5959 22.1054 39.5514 22.0935 39.5061 22.0935C39.4608 22.0935 39.4164 22.1054 39.3771 22.128C39.3291 22.218 39.3771 22.296 39.4971 22.338C39.565 22.379 39.6409 22.4045 39.7198 22.4128C39.7986 22.4211 39.8782 22.4119 39.9531 22.386C40.0131 22.338 39.9231 22.206 39.6351 22.128ZM45.8391 17.094C45.7911 17.214 45.6711 17.52 45.6291 17.592C45.6129 17.7018 45.632 17.814 45.6838 17.9122C45.7356 18.0103 45.8173 18.0895 45.9171 18.138C46.0299 18.0699 46.1198 17.9696 46.1751 17.85C46.2028 17.7959 46.2131 17.7346 46.2045 17.6744C46.1959 17.6142 46.1689 17.5582 46.1271 17.514C46.0071 17.334 45.9171 17.208 45.8391 17.088V17.094ZM45.2031 17.688C45.2167 17.9524 45.2884 18.2105 45.4131 18.444C45.4769 18.5785 45.5697 18.6973 45.6849 18.7917C45.8 18.8862 45.9347 18.9538 46.0791 18.99C46.2172 18.9666 46.3472 18.9089 46.4571 18.822C46.45 18.7467 46.4222 18.6748 46.3766 18.6144C46.3311 18.5541 46.2696 18.5075 46.1991 18.48C45.8035 18.3129 45.4655 18.0333 45.2271 17.676" fill="white"/>
<path d="M45.9599 18.2641C46.0122 18.2191 46.0684 18.179 46.1279 18.1441C46.277 18.1986 46.4199 18.269 46.5539 18.3541C46.7278 18.4824 46.8816 18.6361 47.0099 18.8101C46.8613 18.8558 46.7025 18.8558 46.5539 18.8101C46.5212 18.6549 46.4285 18.519 46.2959 18.4321C46.2479 18.3541 46.1279 18.3121 45.9599 18.2641ZM46.2179 18.0541C46.3053 17.9299 46.3476 17.7796 46.3379 17.6281L46.8359 17.9641C46.9963 18.0863 47.1396 18.2296 47.2619 18.3901C47.0987 18.3392 46.9324 18.2991 46.7639 18.2701C46.5782 18.218 46.4062 18.1258 46.2599 18.0001L46.2179 18.0541ZM46.8599 18.4681C47.1484 18.5596 47.4432 18.6298 47.7419 18.6781C47.9472 18.7666 48.1328 18.8951 48.2879 19.0561L47.8319 19.1761C47.6761 19.0634 47.5093 18.9669 47.3339 18.8881C47.1483 18.7825 46.9884 18.637 46.8659 18.4621L46.8599 18.4681ZM47.2739 19.8421C47.1839 19.7941 47.1839 19.7221 47.2259 19.6321C47.296 19.5322 47.3973 19.4583 47.5139 19.4221C47.7719 19.3321 48.0599 19.2541 48.3179 19.1641C48.3628 19.2164 48.403 19.2726 48.4379 19.3321C48.4379 19.3801 48.4379 19.4221 48.3479 19.4221H47.8019C47.7723 19.4472 47.7517 19.4812 47.743 19.5191C47.7343 19.5569 47.7382 19.5965 47.7539 19.6321C47.676 19.5826 47.5877 19.5518 47.4959 19.5421C47.3836 19.6112 47.302 19.7207 47.2679 19.8481L47.2739 19.8421ZM47.7179 19.2001C47.5693 19.2377 47.4262 19.2941 47.2919 19.3681C47.2685 19.3666 47.2464 19.3567 47.2299 19.3401C47.2132 19.3235 47.2033 19.3015 47.2019 19.2781C47.123 19.1372 47.0067 19.021 46.8659 18.9421C46.9392 18.9479 47.0124 18.9311 47.0759 18.8941C47.1659 18.9421 47.2439 18.9421 47.3339 18.9841C47.4676 19.0392 47.5945 19.1096 47.7119 19.1941L47.7179 19.2001ZM46.5119 18.9061C46.5599 18.9541 46.6319 18.9541 46.7219 18.9541C46.9458 19.0876 47.1092 19.3026 47.1779 19.5541C47.2053 19.6265 47.2031 19.7068 47.1716 19.7776C47.1402 19.8484 47.082 19.9039 47.0099 19.9321C46.9209 19.9712 46.8205 19.9756 46.7284 19.9445C46.6362 19.9135 46.559 19.8491 46.5119 19.7641C46.5119 19.7161 46.4639 19.7161 46.4639 19.6741C46.526 19.7242 46.6054 19.7476 46.6847 19.7392C46.764 19.7308 46.8368 19.6911 46.8869 19.6291C46.937 19.567 46.9605 19.4876 46.952 19.4083C46.9436 19.3289 46.9039 19.2562 46.8419 19.2061C46.7939 19.2061 46.7939 19.1581 46.7519 19.1581C46.6164 19.0709 46.4568 19.0288 46.2959 19.0381C46.3859 18.9901 46.4639 18.9181 46.5059 18.9181L46.5119 18.9061ZM49.2839 22.2001C49.2304 21.9939 49.158 21.7931 49.0679 21.6001C48.8579 21.1741 48.4319 20.1301 47.4779 19.9621C47.3879 19.9621 47.5679 19.7041 47.6879 19.7521C47.8097 19.786 47.9237 19.843 48.0239 19.9201V19.6621C48.0239 19.6141 48.0719 19.6141 48.1139 19.6141C48.1731 19.6042 48.2337 19.6071 48.2917 19.6226C48.3496 19.6382 48.4036 19.666 48.4499 19.7041C48.7825 20.1559 49.0528 20.6503 49.2539 21.1741C49.4639 21.6721 49.5899 21.8401 49.8539 21.7741C50.1179 21.7081 50.2319 21.4381 50.6099 21.5161C50.7735 21.56 50.9212 21.6494 51.0359 21.7741C51.0147 21.8219 50.9769 21.8604 50.9295 21.8825C50.882 21.9046 50.8281 21.9087 50.7779 21.8941C50.5257 21.9008 50.2796 21.9732 50.0639 22.1041C49.7919 22.1641 49.5339 22.2101 49.2899 22.2421L49.2839 22.2001ZM45.4139 18.9001C45.3851 19.0678 45.3126 19.2251 45.2039 19.3561C45.2039 19.3561 45.4919 20.7061 46.5539 20.8261C46.5087 20.6236 46.3887 20.4457 46.2179 20.3281C45.8819 20.1181 45.4139 19.7821 45.4619 19.2841C45.5584 19.3401 45.6454 19.411 45.7199 19.4941C45.8879 19.7041 46.1759 20.2501 46.7219 20.2501C46.6721 20.0818 46.5715 19.933 46.4339 19.8241C46.1858 19.6889 45.969 19.5029 45.7979 19.2781C45.7168 19.114 45.5839 18.9812 45.4199 18.9001H45.4139ZM44.6999 20.1901C44.8696 20.5251 45.0835 20.8359 45.3359 21.114C45.5039 21.282 45.9359 21.714 46.1699 21.918C45.8013 21.8333 45.458 21.6627 45.1679 21.4201C45.0273 21.5032 44.8728 21.5601 44.7119 21.5881C44.5494 21.5665 44.3936 21.509 44.2559 21.4201C43.9714 21.6712 43.6258 21.8429 43.2539 21.918C43.4639 21.708 43.9199 21.282 44.0879 21.114C44.3618 20.8608 44.568 20.5432 44.6879 20.1901" fill="white"/>
<path d="M44.7003 21.708C44.8305 21.6996 44.9583 21.6692 45.0783 21.618C45.0003 21.8156 44.8695 21.9878 44.7003 22.116C44.541 21.9782 44.4122 21.8085 44.3223 21.618C44.4423 21.6692 44.5701 21.6996 44.7003 21.708Z" fill="white"/>
<path d="M45.2446 24.7741L47.8066 21.2101L48.0646 21.4201V20.5861L47.3086 20.8741L47.5666 21.0421L45.3046 24.2281L44.1046 22.1341L43.9846 22.3441L42.9826 23.8921L42.7246 23.7241V24.5581L43.5286 24.2701L43.2706 24.1021L44.1526 22.7521L45.2446 24.7681" fill="white"/>
<path d="M45.7015 23.346L45.2755 22.68C45.2275 22.8 45.0655 23.016 44.9395 23.316L44.7715 22.98L45.2695 22.098L45.3895 22.308L45.8455 23.112L45.6955 23.34L45.7015 23.346ZM46.2415 23.55L46.4095 23.838L46.6675 23.67V24.504L45.8635 24.216L46.1215 24.048L46.0015 23.88L46.2415 23.544V23.55ZM51.3715 18.144C51.1615 17.934 50.8735 18.096 50.5375 18.432C50.2015 18.768 49.9915 19.032 50.2015 19.236C50.4115 19.44 50.6995 19.284 51.0355 18.978C51.3715 18.672 51.5335 18.378 51.3715 18.144Z" fill="white"/>
<path d="M50.872 21.828C50.9674 21.7462 51.043 21.6436 51.0929 21.5283C51.1428 21.4129 51.1657 21.2876 51.16 21.162C51.1418 20.9415 51.0413 20.7358 50.8785 20.5858C50.7156 20.4359 50.5024 20.3527 50.281 20.3527C50.0597 20.3527 49.8465 20.4359 49.6836 20.5858C49.5208 20.7358 49.4203 20.9415 49.402 21.162V21.33C49.354 21.24 49.192 20.904 49.192 20.874C49.2723 20.5868 49.4613 20.3422 49.7189 20.1921C49.9766 20.0419 50.2826 19.9981 50.572 20.07C50.8796 20.1685 51.136 20.3841 51.286 20.67C51.2365 20.2983 51.0778 19.9496 50.83 19.668C50.6808 19.553 50.5121 19.4656 50.332 19.41C50.4857 19.4104 50.6375 19.3768 50.7765 19.3114C50.9155 19.246 51.0384 19.1506 51.136 19.032C51.3781 18.8616 51.5439 18.6031 51.598 18.312C51.5608 18.538 51.5922 18.77 51.688 18.978C51.934 19.4437 52.0343 19.9726 51.976 20.496C51.8619 20.9967 51.5982 21.4507 51.22 21.798C51.1785 21.8431 51.1464 21.8961 51.1258 21.9538C51.1052 22.0115 51.0964 22.0728 51.1 22.134H50.278C50.278 22.134 50.11 22.134 50.11 22.014C50.11 21.894 50.2 21.894 50.278 21.894C50.48 21.9105 50.6833 21.8902 50.878 21.834L50.872 21.828ZM46.72 22.014C46.0839 21.6685 45.55 21.1615 45.172 20.544L45.082 20.424C45.1267 20.4467 45.176 20.4585 45.226 20.4585C45.2761 20.4585 45.3254 20.4467 45.37 20.424L45.418 20.514C45.7888 21.0637 46.2764 21.5247 46.846 21.864L46.726 22.014H46.72ZM47.326 22.014C47.7198 22.1343 48.1206 22.2305 48.526 22.302C48.7621 22.3393 49.0011 22.3554 49.24 22.35V22.47C49.2239 22.4854 49.2113 22.5041 49.203 22.5248C49.1947 22.5455 49.191 22.5678 49.192 22.59C48.9391 22.5966 48.6861 22.5805 48.436 22.542C47.9964 22.4869 47.5665 22.3718 47.158 22.2L47.338 22.002L47.326 22.014ZM50.236 22.242H50.692C50.815 22.2391 50.9347 22.2819 51.028 22.362C51.0289 22.4157 51.0187 22.469 50.9981 22.5186C50.9775 22.5681 50.9468 22.6129 50.908 22.65C50.818 22.698 50.74 22.698 50.698 22.65C50.5257 22.5654 50.3593 22.4692 50.2 22.362C50.17 22.332 50.122 22.194 50.248 22.242H50.236ZM49.87 22.452C49.9504 22.414 50.0394 22.3975 50.128 22.404C50.2947 22.4947 50.4481 22.6077 50.584 22.74C50.632 22.83 50.584 22.86 50.494 22.908C50.4463 22.9451 50.3862 22.9623 50.326 22.956C50.247 22.9543 50.1718 22.922 50.116 22.866C50.068 22.818 49.906 22.608 49.858 22.578C49.8663 22.5384 49.8663 22.4976 49.858 22.458L49.87 22.452ZM49.798 22.68C49.846 22.728 50.008 22.938 50.008 22.938C50.008 22.938 50.008 22.986 49.96 23.028H49.912C49.7617 23.028 49.6143 22.9865 49.486 22.908C49.366 22.818 49.228 22.62 49.366 22.572C49.4001 22.5477 49.439 22.5312 49.4801 22.5234C49.5212 22.5157 49.5635 22.5171 49.6041 22.5273C49.6446 22.5376 49.6824 22.5566 49.7149 22.5829C49.7473 22.6093 49.7737 22.6425 49.792 22.68H49.798ZM49.702 22.134C49.7413 22.1114 49.7857 22.0995 49.831 22.0995C49.8763 22.0995 49.9208 22.1114 49.96 22.134C50.008 22.224 49.96 22.302 49.84 22.344C49.7727 22.3862 49.6966 22.4125 49.6176 22.4208C49.5386 22.4291 49.4587 22.4193 49.384 22.392C49.324 22.344 49.414 22.212 49.702 22.134Z" fill="white"/>
<path d="M87.4017 8.81401C87.2817 7.67401 86.7357 7.09801 85.4757 7.09801H83.8857L83.6757 13.53H84.8757C84.8757 13.53 84.9957 10.53 84.9957 10.422H86.4657C86.4657 10.542 86.7237 13.53 86.7237 13.53H87.9237C87.8757 13.482 87.4557 9.07201 87.4077 8.81401H87.4017ZM85.0077 9.33001C85.0077 9.21001 85.0557 8.28601 85.0557 8.13001H85.2657C86.0997 8.13001 86.2677 8.29801 86.3577 9.33001H85.0077ZM73.2477 17.646C73.1277 16.506 72.5817 15.93 71.3217 15.93H69.7317L69.5217 22.362H70.7217C70.7217 22.362 70.8417 19.362 70.8417 19.254H72.3117C72.3117 19.374 72.5697 22.362 72.5697 22.362H73.7697C73.7217 22.302 73.3017 17.886 73.2537 17.646H73.2477ZM70.8537 18.144C70.8537 18.024 70.9017 17.1 70.9017 16.944H71.1117C71.9457 16.944 72.1137 17.112 72.2037 18.144H70.8537ZM64.5117 7.09801V13.518H65.7117V8.11801H67.1397V13.518H68.3397V7.09801H64.5117ZM76.9977 9.33001H76.3617C76.1487 9.33919 75.9387 9.28033 75.7617 9.16201C75.7203 9.11695 75.6879 9.06397 75.6675 9.00625C75.6471 8.94847 75.6381 8.88721 75.6417 8.82601V7.09801H74.4417V8.94601C74.4351 9.14725 74.4765 9.34711 74.5629 9.52885C74.6499 9.71059 74.7789 9.86875 74.9397 9.99001C75.2745 10.2735 75.7011 10.425 76.1397 10.416H76.9737V13.524H78.1737V7.09801H76.9737V9.33001H76.9977ZM79.4637 7.09801V8.14201H80.4357V13.542H81.6357V8.14201H82.6077V7.09801H79.4637ZM77.7357 15.864V17.928H76.0977V15.87H74.9277V22.302H76.0977V19.026H77.7357V22.302H78.9357V15.87L77.7357 15.864ZM66.2397 18H65.6937V16.974H67.7997V15.93H64.5237V22.362H66.3237C66.6069 22.3659 66.8871 22.3113 67.1481 22.2015C67.4091 22.0916 67.6443 21.9291 67.8393 21.724C68.0343 21.5188 68.1849 21.2756 68.2809 21.0096C68.3775 20.7435 68.4177 20.4604 68.3997 20.178C68.3517 19.452 68.1117 18.024 66.2577 18.024L66.2397 18ZM66.0897 21.33C65.9697 21.33 65.6637 21.282 65.6637 21.282V19.026H65.8737C66.4737 19.026 67.1757 18.978 67.1757 20.166C67.1757 21.258 66.4197 21.336 66.0837 21.336L66.0897 21.33ZM73.5957 10.08C73.6041 9.36937 73.4589 8.66527 73.1697 8.01601C73.0377 7.69087 72.8109 7.41289 72.5187 7.21819C72.2265 7.02349 71.8827 6.92101 71.5317 6.92401H71.4837C71.1339 6.92731 70.7931 7.03231 70.5021 7.22623C70.2111 7.42015 69.9831 7.69459 69.8457 8.01601C69.5595 8.66617 69.4143 9.36961 69.4197 10.08V10.29C69.4047 10.814 69.4755 11.337 69.6297 11.838C69.9657 13.14 70.6737 13.596 71.4777 13.638H71.5257C72.3297 13.638 73.0437 13.182 73.3737 11.838C73.5033 11.3318 73.5735 10.8124 73.5837 10.29V10.08H73.5957ZM70.5837 10.29C70.5837 8.57401 71.0097 7.98601 71.4657 7.98601C71.9217 7.98601 72.3477 8.58601 72.3477 10.29C72.3477 11.994 71.9217 12.552 71.4657 12.552C71.0097 12.552 70.6317 11.952 70.5837 10.29ZM84.7377 22.29L83.3097 18.51C83.6487 18.2529 83.8917 17.8895 83.9997 17.478C84.0897 17.052 84.2097 15.888 84.2097 15.888H83.0097C83.0097 16.008 82.9617 16.386 82.9197 16.812C82.8717 17.448 82.6617 18.012 82.0857 18.012H81.6597V15.9H80.4597V22.302H81.6597V19.026H82.3737L83.5737 22.302L84.7377 22.29Z" fill="white"/>
</svg>
