<svg width="94" height="22" viewBox="0 0 94 22" fill="none" xmlns="http://www.w3.org/2000/svg">
<path d="M43.118 12.9141L42.632 15.914H45.56L46.046 12.9141H48.2L46.88 20.984H44.744L45.302 17.522H42.374L41.816 20.984H39.656L41 12.9141H43.142H43.118ZM51.65 12.9141H49.4L48.05 20.984H50.258L50.858 17.4981L53.138 21.008H56L53 16.754L57.02 12.938H54.32L51.086 16.262L51.65 12.9141ZM36.35 17.96L35.882 15.38L34.532 17.96H36.35ZM36.674 19.562H33.626L32.816 20.96H30.464L35.066 12.89H37.466L39.326 20.96H36.98L36.674 19.562ZM30.884 18.5361C30.8205 19.0783 30.5947 19.5886 30.236 20C29.378 20.882 28.076 20.93 27.236 20.9541H24.002L25.4 12.9141H30.908L30.65 14.492H27.308L27.05 16.0941H28.004C28.8172 16.0373 29.6244 16.2688 30.284 16.7481C30.5318 16.9701 30.7175 17.2528 30.8227 17.5685C30.9279 17.8841 30.949 18.2218 30.884 18.548V18.5361ZM27.398 17.6H26.798L26.498 19.322H27.056C28.31 19.322 28.568 18.974 28.64 18.506C28.712 18.038 28.64 17.6 27.386 17.6H27.398ZM83.186 5.43805H85.418C85.367 5.18893 85.229 4.96591 85.0292 4.80883C84.8294 4.65169 84.5804 4.57063 84.326 4.58005C84.0626 4.55317 83.7992 4.62661 83.588 4.78567C83.3768 4.94473 83.2328 5.17771 83.186 5.43805ZM87.2 6.35605V6.56605H83.156C83.1368 6.72829 83.1542 6.89281 83.2082 7.04713C83.2616 7.20151 83.3492 7.34179 83.465 7.45729C83.5802 7.57279 83.7206 7.66063 83.8748 7.71409C84.029 7.76761 84.194 7.78537 84.356 7.76605C84.5408 7.78177 84.7262 7.74151 84.8876 7.65055C85.049 7.55959 85.1798 7.42213 85.262 7.25605H87.122C86.822 8.55805 85.61 9.14005 84.38 9.14005C82.58 9.14005 81.242 8.12005 81.242 6.21205C81.2192 5.81539 81.2816 5.41843 81.4256 5.04799C81.569 4.67755 81.791 4.34227 82.0748 4.06477C82.3592 3.78721 82.7 3.57391 83.0738 3.43927C83.4476 3.30457 83.846 3.25165 84.242 3.28405C86.126 3.28405 87.194 4.48405 87.194 6.35605H87.2ZM33.86 4.89205C33.6948 4.88371 33.5298 4.90963 33.3752 4.96807C33.2205 5.02657 33.0796 5.11633 32.9613 5.23183C32.843 5.34733 32.7498 5.48599 32.6876 5.63923C32.6255 5.79241 32.5956 5.95675 32.6 6.12205C32.5958 6.28471 32.6249 6.44647 32.6852 6.59761C32.7455 6.74869 32.836 6.88591 32.951 7.00099C33.0661 7.11601 33.2033 7.20649 33.3544 7.26679C33.5055 7.32715 33.6673 7.35619 33.83 7.35205C33.9942 7.36261 34.1589 7.33807 34.3129 7.27999C34.4669 7.22191 34.6068 7.13167 34.7232 7.01527C34.8396 6.89887 34.9298 6.75901 34.9879 6.60499C35.046 6.45097 35.0705 6.28633 35.06 6.12205C35.064 5.95939 35.0351 5.79763 34.9747 5.64649C34.9143 5.49541 34.8239 5.35819 34.7088 5.24311C34.5938 5.12809 34.4566 5.03761 34.3055 4.97731C34.1544 4.91695 33.9926 4.88791 33.83 4.89205H33.86ZM36.92 3.38005V8.87005H35V8.27005C34.8183 8.52907 34.5738 8.73769 34.2893 8.87623C34.0049 9.01477 33.6899 9.07873 33.374 9.06205C33.0018 9.05293 32.6352 8.96935 32.2958 8.81635C31.9563 8.66329 31.651 8.44387 31.3977 8.17105C31.1444 7.89817 30.9483 7.57735 30.8209 7.22755C30.6935 6.87769 30.6374 6.50587 30.656 6.13405C30.6358 5.76349 30.6899 5.39263 30.8151 5.04331C30.9404 4.69393 31.1342 4.37317 31.3851 4.09981C31.6362 3.82645 31.9393 3.60601 32.2767 3.45151C32.6141 3.29701 32.979 3.21151 33.35 3.20005C33.6602 3.19279 33.9684 3.25285 34.2533 3.37609C34.5381 3.49939 34.7928 3.68287 35 3.91405V3.38005H36.92ZM65.03 4.89205C64.8674 4.88791 64.7054 4.91695 64.5542 4.97731C64.4036 5.03761 64.2662 5.12809 64.151 5.24311C64.0358 5.35819 63.9458 5.49541 63.8852 5.64649C63.8246 5.79763 63.7958 5.95939 63.8 6.12205C63.7958 6.28471 63.8246 6.44647 63.8852 6.59761C63.9458 6.74869 64.0358 6.88591 64.151 7.00099C64.2662 7.11601 64.4036 7.20649 64.5542 7.26679C64.7054 7.32715 64.8674 7.35619 65.03 7.35205C65.1944 7.36261 65.3588 7.33807 65.513 7.27999C65.6672 7.22191 65.807 7.13167 65.9234 7.01527C66.0398 6.89887 66.1298 6.75901 66.188 6.60499C66.2462 6.45097 66.2708 6.28633 66.26 6.12205C66.2642 5.95939 66.2354 5.79763 66.1748 5.64649C66.1142 5.49541 66.0242 5.35819 65.909 5.24311C65.7938 5.12809 65.6564 5.03761 65.5058 4.97731C65.3546 4.91695 65.1926 4.88791 65.03 4.89205ZM68.102 3.38005V8.87005H66.2V8.27005C66.0182 8.52907 65.774 8.73769 65.4896 8.87623C65.2052 9.01477 64.8902 9.07873 64.574 9.06205C64.202 9.05293 63.8354 8.96935 63.4958 8.81635C63.1562 8.66329 62.8508 8.44387 62.5976 8.17105C62.3444 7.89817 62.1482 7.57735 62.021 7.22755C61.8938 6.87769 61.8374 6.50587 61.856 6.13405C61.8368 5.76349 61.8914 5.39281 62.0174 5.04373C62.1434 4.69471 62.3378 4.37437 62.5898 4.10161C62.8412 3.82879 63.1448 3.60907 63.4826 3.45529C63.8198 3.30145 64.1852 3.21673 64.556 3.20605C64.871 3.19603 65.1836 3.25531 65.4734 3.37975C65.7626 3.50413 66.0206 3.69067 66.23 3.92605V3.38005H68.102ZM24.302 8.87005V0.800049H27.56C29.744 0.800049 30.374 2.36005 30.374 3.45205C30.3892 3.81949 30.3257 4.18591 30.1877 4.52677C30.0498 4.86763 29.8406 5.17507 29.5741 5.42851C29.3076 5.68189 28.9901 5.87539 28.6427 5.99605C28.2953 6.11671 27.9261 6.16171 27.56 6.12805H26.36V8.87005H24.302ZM26.372 2.54605V4.40005H27.068C28.022 4.40005 28.112 3.80005 28.112 3.49405C28.112 3.18805 27.974 2.58805 27.068 2.58805H26.468L26.396 2.54605H26.372ZM38.138 3.38605V8.87605H39.998L41.906 5.87605V8.87605H43.838V3.38005H41.978L40.07 6.33205V3.38005L38.138 3.38605ZM41.138 2.69005C41.5906 2.72647 42.0434 2.62201 42.4344 2.39113C42.8253 2.16019 43.1354 1.81402 43.322 1.40005L42.068 0.932049C42.0214 1.13343 41.9046 1.31164 41.7386 1.43478C41.5726 1.55791 41.3682 1.61791 41.162 1.60405C40.9552 1.62044 40.7496 1.5614 40.583 1.43786C40.4165 1.31432 40.3002 1.13463 40.256 0.932049L39.002 1.40005C39.191 1.80612 39.4985 2.14549 39.884 2.37355C40.2695 2.60167 40.715 2.70781 41.162 2.67805L41.138 2.69005ZM47.81 11.258V8.96005C46.67 8.96005 44.762 8.49205 44.762 6.12205C44.762 3.75205 46.646 3.30805 47.81 3.30805V0.908049H49.742V3.30805C50.906 3.30805 52.742 3.77605 52.742 6.12205C52.742 8.46805 50.858 8.96005 49.742 8.96005V11.288L47.81 11.258ZM49.61 4.65805V7.70605C50.264 7.70605 50.912 7.23805 50.912 6.17005C50.912 5.10205 50.258 4.63405 49.61 4.65805ZM47.936 7.65805V4.65805C47.282 4.65805 46.634 5.12605 46.634 6.19405C46.634 7.26205 47.288 7.70605 47.936 7.68205V7.65805ZM56.468 11.282V8.96005C55.328 8.96005 53.42 8.49205 53.42 6.12205C53.42 3.75205 55.304 3.30805 56.468 3.30805V0.908049H58.4V3.30805C59.564 3.30805 61.448 3.77605 61.448 6.12205C61.448 8.46805 59.564 8.96005 58.4 8.96005V11.288H56.468V11.282ZM58.268 4.68205V7.73005C58.922 7.73005 59.57 7.26205 59.57 6.19405C59.57 5.12605 58.916 4.65805 58.268 4.68205ZM56.57 7.68205V4.68205C55.916 4.68205 55.244 5.15005 55.244 6.21805C55.226 6.40561 55.2482 6.59473 55.3088 6.77317C55.3688 6.95161 55.4666 7.11529 55.5944 7.25347C55.7222 7.39165 55.8782 7.50127 56.0516 7.57513C56.225 7.64899 56.4116 7.68541 56.6 7.68205H56.57ZM69.362 3.38005V8.87005H71.222L73.13 5.87005V8.87005H75.062V3.38005H73.202L71.27 6.30805V3.38005H69.362ZM72.362 2.68405C72.8072 2.71207 73.25 2.60437 73.6328 2.37505C74.015 2.14579 74.3192 1.80579 74.504 1.40005L73.25 0.932049C73.2032 1.13343 73.0868 1.31164 72.9206 1.43478C72.7544 1.55791 72.5504 1.61791 72.344 1.60405C72.137 1.62307 71.93 1.56505 71.7626 1.44108C71.5958 1.31711 71.48 1.13588 71.438 0.932049L70.178 1.40005C70.367 1.80612 70.6748 2.14549 71.06 2.37355C71.4458 2.60167 71.891 2.70781 72.338 2.67805L72.362 2.68405ZM76.502 4.95805C76.919 4.66921 77.411 4.50673 77.918 4.49005C78.152 4.49005 78.686 4.53805 78.686 4.97605C78.686 5.41405 78.218 5.44405 78.038 5.44405H77.084V6.64405H77.924C78.206 6.64405 78.716 6.64405 78.716 7.11205C78.716 7.29805 78.602 7.64605 77.924 7.64605C77.3354 7.64467 76.7606 7.46707 76.274 7.13605L75.8 8.45005C76.55 8.88061 77.4014 9.10423 78.266 9.09805C80.474 9.09805 80.756 7.82005 80.756 7.40005C80.7584 7.07971 80.648 6.76879 80.444 6.52189C80.2394 6.27493 79.955 6.10789 79.64 6.05005C79.8842 5.94025 80.09 5.75989 80.2316 5.53213C80.3726 5.30443 80.4422 5.03977 80.432 4.77205C80.432 3.49405 79.082 3.23605 78.248 3.23605C77.4662 3.25051 76.697 3.43261 75.992 3.77005L76.502 4.95805ZM88.172 8.86405H90.104V6.68005H91.874V8.86405H93.8V3.38005H91.868V5.31205H90.098V3.38005H88.166L88.172 8.86405Z" fill="black"/>
<path d="M20.9608 20.96H0.800781V0.800049H20.9608V20.96ZM20.3068 1.47205H1.47278V20.306H20.3068V1.47205Z" fill="black"/>
<path d="M10.8939 13.19L5.10392 18.98L2.79992 16.676L8.60192 10.892L7.40192 9.69198V7.29198L6.56192 6.45198V8.52198L5.84192 9.24198L2.88992 6.33798L2.16992 7.05798C2.17382 6.41292 2.30522 5.775 2.55644 5.18088C2.80772 4.58676 3.17384 4.04814 3.63392 3.59598C4.07798 3.0984 4.69964 2.7951 5.36504 2.7513C6.0305 2.70756 6.68654 2.92686 7.19192 3.36198L10.1199 6.31398L9.37592 7.05798L10.8939 8.59998L12.4299 7.06398L11.6859 6.31998L14.6019 3.35598C15.1066 2.91936 15.763 2.6991 16.4289 2.7429C17.0949 2.7867 17.7168 3.09102 18.1599 3.58998C18.62 4.04214 18.9861 4.58076 19.2374 5.17488C19.4886 5.769 19.62 6.40692 19.6239 7.05198L18.9039 6.33198L15.9519 9.25998L15.2319 8.53998V6.45198L14.3979 7.29198V9.69198L13.1979 10.892L18.9879 16.682L16.6839 18.98L10.8939 13.19Z" fill="black"/>
</svg>
