<svg width="120" height="30" viewBox="0 0 120 30" fill="none" xmlns="http://www.w3.org/2000/svg">
<path d="M47.4 5.838H33.09L34.128 3H48.42L47.4 5.838ZM46.89 7.248H32.58L31.548 10.08H45.84L46.89 7.248ZM45.342 11.478H31.038L30 14.31H44.28L45.342 11.478Z" fill="#009FDF"/>
<path d="M81.4375 21.39H83.9995C84.3655 21.4361 84.7375 21.39 85.0813 21.2558C85.4245 21.1217 85.7293 20.9039 85.9675 20.622C86.3251 20.1605 86.5021 19.5846 86.4655 19.002C86.4871 18.631 86.4175 18.2603 86.2627 17.9225C86.1079 17.5846 85.8727 17.2899 85.5775 17.064C85.0981 16.7517 84.5281 16.6081 83.9575 16.656H81.4075V21.384L81.4375 21.39ZM78.0595 24.24V7.24798H89.1175L88.1395 10.098H81.4375V13.86H84.1675C86.3755 13.86 87.5155 14.388 88.3075 15.06C88.8733 15.5634 89.3179 16.1879 89.6089 16.887C89.8999 17.5862 90.0295 18.3419 89.9875 19.098C90.0289 19.9088 89.8681 20.7172 89.5189 21.4504C89.1703 22.1835 88.6447 22.8185 87.9895 23.298C86.9215 24.036 85.8115 24.246 83.5495 24.246L78.0595 24.24ZM68.2615 24.24V10.098H63.3415V7.24798H76.9915L76.0135 10.098H71.6635V24.258H68.2555L68.2615 24.24ZM54.6415 14.04H56.5795C56.9818 14.0735 57.3868 14.0432 57.7795 13.95C58.1818 13.82 58.5282 13.5578 58.7625 13.2059C58.9967 12.854 59.1049 12.4332 59.0695 12.012C59.1247 11.5934 59.0236 11.1693 58.7856 10.8206C58.5476 10.4719 58.1894 10.2232 57.7795 10.122C57.3573 10.022 56.923 9.98158 56.4895 10.002H54.6895V14.04H54.6415ZM54.6415 16.98V21.438H56.9995C57.6411 21.5081 58.2852 21.3299 58.7995 20.94C59.0412 20.7213 59.2315 20.4519 59.357 20.1511C59.4825 19.8503 59.5401 19.5255 59.5255 19.2C59.5381 18.678 59.3802 18.1661 59.0755 17.742C58.5775 17.094 57.9475 16.974 56.8975 16.974H54.6475L54.6415 16.98ZM60.0895 15.18V15.24C60.6685 15.4749 61.2067 15.7989 61.6855 16.2C62.1715 16.602 62.5549 17.1134 62.8051 17.6921C63.0553 18.2709 63.1651 18.9007 63.1255 19.53C63.1255 21.858 61.8955 23.538 59.8675 24.03C59.0576 24.2301 58.2228 24.311 57.3895 24.27H51.2695V7.24798H56.7175C57.5843 7.21546 58.4517 7.2961 59.2975 7.48798C61.2655 8.01598 62.5555 9.37798 62.5555 11.526C62.5723 12.0352 62.4847 12.5425 62.2993 13.017C62.1133 13.4915 61.8331 13.9232 61.4755 14.286C61.0945 14.6729 60.6397 14.979 60.1375 15.186H60.0895V15.18Z" fill="#0A2973"/>
</svg>
