<svg width="120" height="30" viewBox="0 0 120 30" fill="none" xmlns="http://www.w3.org/2000/svg">
<path d="M101.998 10.2326H104.015L104.005 13.4898H104.442L105.591 10.2326H107.774L106.208 14.5387L108 19.3066H105.636L104.472 15.6579H103.995L104.005 19.3066H101.987V10.2326H101.998ZM95.1972 10.2326H97.2048V13.5049H98.64V10.2326H100.642V19.3066H98.64V15.668H97.2048V19.3066H95.1972V10.2326ZM88.206 19.3217H90.2934L90.5448 17.7508H91.98L92.2308 19.3217H94.3188L92.562 10.2477H89.9724L88.206 19.3217ZM91.2672 12.9979L91.6488 15.7583H90.876L91.2672 12.9979ZM82.605 19.3066H85.0488C85.581 19.3066 87.8046 19.0758 87.8142 16.3254C87.8142 14.0168 86.0928 13.6153 84.9786 13.6153H84.6126V12.4108H87.3324V10.2326H82.6098L82.605 19.3066ZM84.6072 17.4848V15.4321H84.9036C85.1544 15.4321 85.7916 15.4421 85.7916 16.3806C85.7916 17.3292 85.1496 17.4848 84.9036 17.4848H84.6072ZM74.64 10.2326H76.3866L77.9274 12.3756L79.4832 10.2326H81.2148V19.3066H79.1622V13.7759L77.9274 15.3568L76.6926 13.7759V19.3066H74.64V10.2326ZM70.3992 19.417C72.8334 19.417 73.6512 17.0782 73.6512 14.7595C73.6512 12.4408 72.8334 10.1021 70.3992 10.1021C67.965 10.1021 67.1466 12.4359 67.1466 14.7595C67.1466 17.0833 67.9698 19.417 70.3992 19.417ZM70.3992 17.2138C69.6762 17.2138 69.3048 16.3506 69.3048 14.7595C69.3048 13.1686 69.6714 12.3003 70.3992 12.3003C71.127 12.3003 71.4882 13.1636 71.4882 14.7595C71.4882 16.3555 71.127 17.2188 70.3992 17.2138ZM61.2048 19.3066H63.2574V16.3154H63.945C65.9724 16.3154 66.6048 14.4434 66.6048 13.2489C66.6048 12.0846 65.8824 10.2326 63.945 10.2326H61.2048V19.3066ZM63.2574 12.2301H63.744C64.206 12.2301 64.5018 12.5212 64.5018 13.274C64.5018 14.2476 64.0002 14.3179 63.744 14.3179H63.2574V12.2301ZM54.4241 10.2326H60.0252V19.3066H57.9725V12.4258H56.4769V19.3066H54.4241V10.2326ZM50.2133 13.7508C50.5446 13.7508 51.1519 13.53 51.1519 12.8625C51.1519 12.0745 50.4542 12.0243 50.2485 12.0243C50.0126 12.0243 49.5609 12.0645 49.1192 12.2803L49.0942 10.3079C49.7918 10.1272 50.2937 10.077 50.8859 10.077C52.5722 10.077 53.32 11.2815 53.32 12.4609C53.32 13.6053 52.6776 14.2978 52.0502 14.5638V14.6491C52.6575 14.8449 53.4605 15.4421 53.4605 16.8273C53.4605 18.5437 52.2962 19.4923 50.8006 19.4923C50.0076 19.4823 49.4806 19.3719 48.8533 19.0206L48.8884 17.1334C49.4706 17.3894 49.862 17.4145 50.2535 17.4145C50.916 17.4145 51.1769 16.9126 51.1769 16.5513C51.1769 16.0393 50.8558 15.6981 50.1581 15.6981H49.325V13.7508H50.2133ZM42.1431 19.3066H44.2209L44.4818 17.7357H45.9172L46.1682 19.3066H48.246L46.4894 10.2326H43.9047C43.8997 10.2326 42.1431 19.3066 42.1431 19.3066ZM45.1895 12.9729L45.581 15.7432H44.798L45.1895 12.9729ZM38.1682 10.2326H42.379V12.4961H40.256V19.3066H38.1682V10.2326ZM12.5219 14.875C12.5219 20.4559 16.9636 25.003 22.4241 25.003C27.8745 25.003 32.3111 20.4559 32.3111 14.875C32.3111 9.28399 27.8745 4.73696 22.4241 4.73696C16.9586 4.73195 12.5219 9.27901 12.5219 14.875ZM12 14.875C12 8.98789 16.6725 4.19995 22.4241 4.19995C28.1606 4.19995 32.8331 8.98291 32.8331 14.875C32.8331 20.752 28.1606 25.5349 22.4241 25.5349C16.6725 25.5349 12 20.752 12 14.875Z" fill="#0D356C"/>
<path d="M19.3117 8.13462C18.9504 8.29524 18.6091 8.496 18.2929 8.72688C20.7722 7.59762 23.7985 7.66788 25.4247 8.41068C25.9366 8.65158 26.2779 8.80212 26.4334 9.09324C24.7471 8.63148 24.0244 8.54616 22.6141 8.58132C20.6066 8.61642 17.9366 9.42948 16.9177 10.0518L16.4661 10.629C17.9366 9.74064 20.6769 9.15846 22.1976 9.1083C23.8939 9.08322 25.2139 9.24378 26.4234 9.69048C26.3532 10.0067 26.1976 10.1623 25.9366 10.3228C21.0934 9.4596 18.2327 10.4784 15.648 12.2049L15.4573 12.7771C18.3431 10.7494 21.8764 10.1873 25.2841 10.7946C24.0646 11.2312 22.6041 11.3316 21.3795 11.6177C20.3356 11.8636 19.7785 11.9339 18.3883 12.4106C16.978 12.8824 16.1449 13.3693 15.6229 13.9916C15.372 14.2827 15.1813 14.624 15.1361 14.9903C15.116 15.2062 15.126 15.4069 15.1963 15.5976C15.2515 15.7682 15.387 15.9389 15.5275 16.1095C15.3619 16.4006 15.2164 16.777 15.4573 17.2187C15.5627 17.4245 15.8387 17.6302 16.0997 17.826L16.0244 18.0418C15.9893 18.2977 15.9541 18.6039 16.1198 18.8548C16.4008 19.3166 16.7471 19.6227 17.2942 19.9138C17.3795 20.2902 17.505 20.5964 17.791 20.8624C18.3983 21.4345 19.7484 22.5286 22.1574 22.6993C23.9642 22.8197 25.254 22.2626 25.7409 22.0167L26.3331 21.7005C25.3243 22.112 23.6279 22.358 22.2377 22.2325C20.2201 22.0619 18.4184 20.7118 18.1926 20.3203C18.2628 20.3705 18.3582 20.4056 18.4384 20.4408C20.8023 21.6101 23.8488 22.2425 27.7584 20.6114L28.0796 20.2952C24.5263 21.4244 21.4197 21.3893 18.0821 19.6027C18.1173 19.432 18.1926 19.2814 18.3431 19.166C19.1963 19.5524 20.0194 19.8737 21.0131 20.0744C22.1775 20.2952 23.5075 20.3454 24.5965 20.2952C25.7007 20.245 27.8839 19.688 28.9177 19.1258C29.0131 19.0405 29.0583 18.895 29.1537 18.7996C27.1361 19.5524 24.7371 19.9037 23.2917 19.7933C21.8764 19.6829 20.6217 19.5123 18.9604 18.7344C19.2816 18.6039 19.6129 18.4935 19.9441 18.3931C21.0382 18.7344 22.1524 18.9401 23.4673 19.0004C24.7722 19.0606 27.8236 18.5638 29.7459 17.3743C29.8061 17.2036 29.8663 17.0179 29.8663 17.0179C29.8663 17.0179 27.1963 18.4784 24.1699 18.4784C22.7547 18.4784 21.8914 18.2726 21.249 18.112C22.6743 17.846 24.466 17.6252 26.4837 17.1032C27.5025 16.8373 28.7622 16.225 29.3343 15.7181C29.8212 15.2664 30.2026 14.6842 30.0721 14.087C30.047 13.9264 29.8362 13.5499 29.5702 13.4195C29.8212 13.0932 29.7961 12.8122 29.7609 12.5713C29.7358 12.3856 29.6505 12.1798 29.5501 11.9991C29.3845 11.7783 29.2289 11.6077 28.9077 11.4119C28.9579 11.156 28.9228 10.895 28.8124 10.6591C28.5614 10.2224 28.1148 9.84606 27.3418 9.44454C27.3067 9.28392 27.2113 9.07818 27.0457 8.87238C26.0721 7.88874 24.4811 7.41192 23.1411 7.38684H22.9203C21.3544 7.4019 20.0947 7.76322 19.3117 8.13462ZM26.9103 10.5688C27.0307 10.4333 27.2064 10.2275 27.2515 10.0568C27.5878 10.2777 27.9642 10.6039 28.0093 10.9452C27.658 10.8097 27.2766 10.6641 26.9103 10.5688ZM27.2064 12.0493C26.6392 11.8887 26.1373 11.698 25.4749 11.5775C25.8814 11.4169 26.1524 11.2513 26.3883 11.0556C26.9203 11.2012 27.4171 11.3818 27.8236 11.5675C27.7534 11.6729 27.3469 12.0593 27.2214 12.0593C27.2164 12.0544 27.2113 12.0544 27.2064 12.0493ZM28.2402 12.4759C28.3958 12.3554 28.5363 12.22 28.6668 12.0644C28.988 12.3454 29.0834 12.5362 28.9278 12.8423C28.712 12.6817 28.4862 12.5963 28.2402 12.4759ZM16.0495 15.4922C15.1712 14.2526 18.2176 13.3642 18.7998 13.1836C20.2804 12.7319 22.0169 12.3956 23.5828 12.1999C24.6618 12.0644 25.2339 12.1898 26.2528 12.4659C23.6279 13.1836 21.0382 13.4144 18.574 14.1572C16.5865 14.7444 16.0596 15.4922 16.0495 15.4922ZM16.702 16.0895C17.6304 15.2864 19.5175 14.8348 20.2051 14.6792C22.3983 14.1923 24.441 13.8862 25.2841 13.6704C26.3029 13.4144 27.0156 13.1735 27.5125 12.9276C27.5376 12.8925 28.3456 13.294 28.4259 13.3894C28.1549 13.6202 27.7735 13.816 27.3569 13.9615C26.1123 14.4232 23.8437 14.9101 22.6443 15.0958C21.4347 15.3015 20.4209 15.4571 19.0859 15.8234C18.313 16.0343 17.791 16.2752 17.4096 16.5311C17.1286 16.3555 16.9629 16.3053 16.702 16.0895ZM18.4234 17.0631C18.8149 16.8925 19.2415 16.757 19.653 16.6516C21.7408 16.1246 23.5828 16.0292 26.1223 15.3266C27.3418 14.9954 28.2352 14.644 28.7923 14.2074C28.8726 14.1321 28.9579 14.0719 29.0433 14.0017C29.781 15.171 27.0156 16.0694 25.1235 16.486C24.1348 16.6867 23.1461 16.8774 22.1574 17.0581C20.9228 17.2639 20.5213 17.3743 19.663 17.6302C19.2415 17.4496 18.8149 17.2689 18.4234 17.0631ZM16.2001 16.6967C16.3908 16.8222 16.5313 16.9175 16.7572 17.038C16.6719 17.1133 16.5664 17.1836 16.4862 17.2689C16.3005 17.1585 16.1097 16.9175 16.2001 16.6967ZM17.1888 17.8159C17.3092 17.7055 17.4598 17.6001 17.6254 17.4897C17.9818 17.6603 18.3481 17.8159 18.6944 17.9765C18.4636 18.0619 18.2427 18.1723 18.0319 18.3078C17.7459 18.1421 17.4648 17.9816 17.1888 17.8159ZM16.8776 18.4082C17.0784 18.5437 17.2791 18.6541 17.4849 18.7595C17.3995 18.8799 17.3394 18.9753 17.3092 19.1008C17.0081 18.8498 16.8676 18.644 16.8776 18.4082Z" fill="#0D356C"/>
</svg>
