<svg width="76" height="19" viewBox="0 0 76 19" fill="none" xmlns="http://www.w3.org/2000/svg">
<path d="M34.7588 12.7799C34.2788 12.1199 33.5588 11.6999 32.7788 11.5199C33.4988 11.3399 34.1588 10.9199 34.5788 10.3199C34.9988 9.71993 35.2388 8.99993 35.1788 8.27993C35.1788 6.35993 33.7988 4.67993 31.0988 4.67993H23.7188V18.7799H31.3988C34.0988 18.7799 35.4788 17.0999 35.4788 14.9999C35.4788 14.2199 35.2388 13.3799 34.7588 12.7799V12.7799ZM26.7188 7.25993H30.4988C30.7388 7.25993 30.9188 7.25993 31.0988 7.31993C31.2788 7.37993 31.4588 7.49993 31.6388 7.61993C31.8188 7.73993 31.9388 7.91993 31.9988 8.15993C32.0588 8.33993 32.1188 8.57993 32.1188 8.75993C32.1188 8.99993 32.0588 9.17993 31.9988 9.35993C31.9388 9.53993 31.8188 9.71993 31.6388 9.89993C31.4588 10.0199 31.2788 10.1399 31.0988 10.1999C30.9188 10.2599 30.6788 10.3199 30.4988 10.2599H26.7188V7.25993ZM30.5588 16.1999H26.7188V12.8999H30.5588C30.7988 12.8999 31.0388 12.8999 31.2188 12.9599C31.4588 13.0199 31.6388 13.1399 31.8188 13.3199C31.9988 13.4999 32.1188 13.6799 32.2388 13.8599C32.3588 14.0999 32.3588 14.2799 32.3588 14.5199C32.4188 15.5999 31.6988 16.1999 30.5588 16.1999ZM44.3588 9.83993H40.6988V7.31993H47.9588V4.67993H37.6988V18.7799H44.3588C47.3588 18.7799 49.0388 16.7399 49.0388 14.2799C49.0388 11.8199 47.3588 9.83993 44.3588 9.83993ZM45.7388 15.0599C45.6188 15.2999 45.4988 15.4799 45.3188 15.6599C45.1388 15.8399 44.8988 15.9599 44.6588 16.0799C44.4188 16.1399 44.1788 16.1999 43.9388 16.1999H40.6988V12.5399H43.9388C44.1788 12.5399 44.4188 12.5399 44.6588 12.6599C44.8988 12.7199 45.1388 12.8999 45.3188 13.0799C45.4988 13.2599 45.6188 13.4399 45.7388 13.6799C45.8588 13.9199 45.9188 14.1599 45.9188 14.3999C45.9188 14.6399 45.8588 14.8199 45.7388 15.0599ZM57.4988 4.67993H50.8988V18.7799H53.8988V13.7999H57.4988C60.5588 13.7999 62.2387 11.6999 62.2387 9.23993C62.2387 6.77993 60.5588 4.67993 57.4988 4.67993V4.67993ZM58.9988 10.0199C58.8788 10.2599 58.7588 10.4999 58.5188 10.6799C58.3388 10.8599 58.0988 10.9799 57.8588 11.0999C57.6188 11.1599 57.3188 11.2199 57.0788 11.1599H53.8988V7.37993H57.0788C57.3188 7.37993 57.6188 7.37993 57.8588 7.43993C58.0988 7.49993 58.3388 7.67993 58.5188 7.85993C58.6988 8.03993 58.8788 8.27993 58.9988 8.51993C59.1188 8.75993 59.1788 8.99993 59.1788 9.29993C59.1788 9.53993 59.1188 9.77993 58.9988 10.0199V10.0199ZM70.3988 4.67993H63.7988V18.7799H66.7988V13.7999H70.3988C73.4588 13.7999 75.1388 11.6999 75.1388 9.23993C75.1388 6.77993 73.5188 4.67993 70.3988 4.67993V4.67993ZM71.9588 10.0199C71.8388 10.2599 71.7188 10.4999 71.4788 10.6799C71.2988 10.8599 71.0588 10.9799 70.8188 11.0999C70.5788 11.1599 70.2788 11.2199 70.0388 11.1599H66.7988V7.37993H69.9788C70.2188 7.37993 70.5188 7.37993 70.7588 7.43993C70.9988 7.49993 71.2388 7.67993 71.4188 7.85993C71.5988 8.03993 71.7788 8.27993 71.8988 8.51993C72.0188 8.75993 72.0788 8.99993 72.0788 9.29993C72.1388 9.53993 72.0788 9.77993 71.9588 10.0199V10.0199Z" fill="#1D1D1B"/>
<path d="M3.55922 11.28L8.23922 11.04L8.65922 18.54L3.97922 18.78L3.55922 11.28V11.28ZM8.89922 16.86L10.0992 12.3L17.3592 14.22L16.1592 18.78L8.89922 16.86V16.86ZM11.8992 10.92L15.9792 4.62L19.9392 7.2L15.8592 13.5L11.8992 10.92V10.92ZM6.37922 2.94L10.0992 0L14.8392 5.82L11.1792 8.76C11.1192 8.82 6.43922 2.94 6.37922 2.94V2.94ZM0.199219 7.2L7.21922 4.5L8.89922 8.88L1.87922 11.58L0.199219 7.2Z" fill="#1D1D1B"/>
</svg>
