<svg width="120" height="30" viewBox="0 0 120 30" fill="none" xmlns="http://www.w3.org/2000/svg">
<g clip-path="url(#clip0_338_7401)">
<path d="M112.141 15.72H109.681V13.32H108.421V19.44H109.681V16.8H112.141V19.44H113.401V13.26H112.141V15.72ZM105.241 13.32H103.801L101.341 19.5H102.721L103.201 18.12H105.841L106.321 19.5H107.701L105.241 13.32ZM103.561 16.98L104.461 14.52L105.361 16.98H103.561ZM120.001 19.44L117.301 16.08L119.881 13.26H118.321L116.101 15.9V13.26H114.841V19.44H116.101V16.32L118.441 19.44H120.001ZM100.381 16.2C100.021 15.84 99.5411 15.66 99.0611 15.6H97.7411V14.4H100.441V13.32H96.4811V19.44H99.0611C99.3011 19.44 99.5411 19.38 99.7811 19.32C100.021 19.26 100.201 19.08 100.381 18.9C100.561 18.72 100.681 18.54 100.801 18.3C100.921 18.06 100.921 17.82 100.921 17.58C100.921 17.04 100.681 16.56 100.381 16.2ZM99.3011 18.18C99.1211 18.36 98.9411 18.42 98.7011 18.48H97.6811V16.68H98.7011C98.8211 16.68 98.9411 16.68 99.0611 16.74C99.1811 16.8 99.3011 16.86 99.3611 16.92C99.4211 16.98 99.5411 17.1 99.5411 17.22C99.6011 17.34 99.6011 17.46 99.6011 17.58C99.6011 17.76 99.4811 18 99.3011 18.18ZM25.3811 20.46H22.4411L23.7611 18.12L20.4611 12.3H23.4611L25.2011 15.72L26.8811 12.3H29.7611L25.3811 20.46ZM62.1011 20.46H58.4411C56.4611 20.46 54.8411 18.78 54.8411 16.5C54.8411 13.86 56.4611 12.3 58.4411 12.3H62.1011V14.34H59.7611C58.3811 14.34 57.5411 14.76 57.5411 16.44C57.5411 18.12 58.3211 18.48 59.7611 18.48H62.1011V20.46ZM71.6411 20.46H68.9411V14.7L65.8811 20.46H62.6411V12.3H65.3411V17.88L68.4011 12.3H71.6411V20.46ZM52.0811 12.3H49.1411L46.2611 19.08L43.3811 12.3H40.3811L36.9011 20.52H39.7211L40.3211 18.78H43.3211L43.9811 20.52H48.4211L50.5811 14.58L52.6811 20.52H55.5011L52.0811 12.3ZM41.1011 16.92L42.0011 14.58L42.8411 16.92H41.1011ZM35.5211 12.3H30.0011V20.52H32.6411V18.12H35.5211C38.2811 18.12 38.2811 15.66 38.2811 15.12C38.2811 14.58 38.2811 12.3 35.5211 12.3ZM34.6211 16.08H32.7011V14.34H34.6211C34.9211 14.34 35.7011 14.34 35.7011 15.18C35.7011 16.02 34.9211 16.08 34.6211 16.08ZM77.5811 15.36H74.8811V14.28H79.9811V12.24H72.1811V20.46H77.5811C80.4011 20.46 80.4011 18.78 80.4011 17.88C80.4011 16.98 80.4011 15.42 77.5811 15.36ZM77.1011 18.6H74.8211V17.28H77.1011C77.7011 17.28 77.7011 17.7 77.7011 17.88C77.7011 18.06 77.7011 18.6 77.1011 18.6ZM8.58109 8.16C8.76109 8.16 9.00109 8.16 9.18109 8.22L9.12109 2.64H9.78109C9.72109 4.56 9.84109 6.42 10.0211 8.34C11.5811 8.7 13.0211 9.48 14.1611 10.68C15.3011 11.88 16.0211 13.32 16.3211 14.94C16.6211 16.56 16.3811 18.18 15.7211 19.68C15.0611 21.18 13.9811 22.38 12.6011 23.28C12.5411 23.22 12.4811 23.1 12.3611 22.98C9.90109 19.86 9.30109 15.24 9.12109 11.22C9.48109 11.28 9.78109 11.34 10.1411 11.4C10.6811 14.82 12.1811 18.06 14.5811 20.58C15.4211 19.56 15.9011 18.18 15.7811 16.86C15.7211 15.48 15.1211 14.22 14.2211 13.26C13.1411 12.12 11.8211 11.28 10.3211 10.92C9.60109 10.74 8.88109 10.62 8.16109 10.62C7.44109 10.62 6.66109 10.74 5.94109 10.92C2.82109 11.7 0.481094 14.16 0.481094 17.1C0.481094 18.36 0.901094 19.56 1.68109 20.58C4.08109 18.06 5.58109 14.82 6.12109 11.4C6.48109 11.34 6.78109 11.34 7.20109 11.22C7.02109 15.3 6.42109 19.86 3.96109 22.92C3.90109 23.04 3.78109 23.16 3.72109 23.22C2.34109 22.32 1.32109 21.06 0.661094 19.56C0.00109372 18.06 -0.178906 16.44 0.121094 14.82C0.421094 13.2 1.20109 11.76 2.28109 10.62C3.36109 9.48 4.86109 8.64 6.42109 8.34C6.66109 4.2 6.60109 2.64 6.60109 2.64H7.26109L7.20109 8.22C7.38109 8.16 7.56109 8.1 7.74109 8.16V0H8.46109C8.52109 0 8.52109 8.16 8.58109 8.16Z" fill="#0E3263"/>
<path d="M8.58117 11.16C8.64117 15.06 8.94117 19.86 10.2012 23.16C10.3212 23.52 10.5012 23.88 10.7412 24.24C9.90117 24.48 9.06117 24.6 8.22117 24.66C7.38117 24.66 6.54117 24.54 5.70117 24.24C5.94117 23.82 6.12117 23.46 6.30117 23.04C7.44117 19.8 7.74117 15 7.80117 11.16H8.58117ZM88.0812 10.2H88.6212V22.56H88.0812V10.2Z" fill="#0E3263"/>
</g>
<defs>
<clipPath id="clip0_338_7401">
<rect width="120" height="30" fill="white"/>
</clipPath>
</defs>
</svg>
