<svg width="40" height="40" viewBox="0 0 40 40" fill="none" xmlns="http://www.w3.org/2000/svg">
<g clip-path="url(#clip0_335_7198)">
<path d="M1.37891 2.75863H22.0686V40H1.37891V2.75863Z" fill="#5AAAE7"/>
<path d="M22.0684 8.27586H37.2408V40H22.0684V8.27586Z" fill="#3D9AE2"/>
<path d="M12.4135 31.7241H7.58594V40H15.8618V31.7241H12.4135Z" fill="#E6E7E8"/>
<path d="M39.3101 20.6897H28.2756C27.8947 20.6897 27.5859 20.9985 27.5859 21.3793V28.2759C27.5859 28.6567 27.8947 28.9655 28.2756 28.9655H30.3446V32.4138L33.7928 28.9655H39.3101C39.6909 28.9655 39.9997 28.6567 39.9997 28.2759V21.3793C39.9997 20.9985 39.6909 20.6897 39.3101 20.6897Z" fill="#FFD422"/>
<path d="M31.0352 17.931H33.7938V20.6897H31.0352V17.931Z" fill="#E6E7E8"/>
<path d="M25.5176 17.931H28.2762V20.6897H25.5176V17.931Z" fill="#E6E7E8"/>
<path d="M31.0352 12.4138H33.7938V15.1724H31.0352V12.4138Z" fill="#E6E7E8"/>
<path d="M25.5176 12.4138H28.2762V15.1724H25.5176V12.4138Z" fill="#E6E7E8"/>
<path d="M15.8633 23.4483H17.9322C17.482 24.0436 17.2396 24.7707 17.2426 25.5172V26.2069H15.8633V23.4483Z" fill="#E6E7E8"/>
<path d="M10.3457 23.4483H13.1043V26.2069H10.3457V23.4483Z" fill="#E6E7E8"/>
<path d="M4.82812 23.4483H7.58675V26.2069H4.82812V23.4483Z" fill="#E6E7E8"/>
<path d="M15.8633 17.931H18.6219V20.6897H15.8633V17.931Z" fill="#E6E7E8"/>
<path d="M10.3457 17.931H13.1043V20.6897H10.3457V17.931Z" fill="#E6E7E8"/>
<path d="M4.82812 17.931H7.58675V20.6897H4.82812V17.931Z" fill="#E6E7E8"/>
<path d="M15.8633 12.4138H18.6219V15.1724H15.8633V12.4138Z" fill="#E6E7E8"/>
<path d="M10.3457 12.4138H13.1043V15.1724H10.3457V12.4138Z" fill="#E6E7E8"/>
<path d="M4.82812 12.4138H7.58675V15.1724H4.82812V12.4138Z" fill="#E6E7E8"/>
<path d="M15.8633 6.89655H18.6219V9.65517H15.8633V6.89655Z" fill="#E6E7E8"/>
<path d="M10.3457 6.89655H13.1043V9.65517H10.3457V6.89655Z" fill="#E6E7E8"/>
<path d="M4.82812 6.89655H7.58675V9.65517H4.82812V6.89655Z" fill="#E6E7E8"/>
<path d="M23.0694 32.007L22.0693 32.7586L20.69 33.7931L18.3105 32.007L19.3107 31.7241V29.9724C20.1633 30.4691 21.2167 30.4691 22.0693 29.9724V31.7241L23.0694 32.007Z" fill="#FFDAAA"/>
<path d="M23.4483 0V2.75862H0V0H23.4483Z" fill="#1A6FB0"/>
<path d="M22.3801 25.4415L22.0696 24.8276L21.0418 25.5105C20.3629 25.9658 19.5632 26.2086 18.7456 26.2069H17.9316V27.5862C17.93 28.5722 18.456 29.4841 19.3099 29.9768C20.1643 30.4694 21.2169 30.4678 22.0696 29.9724C22.2777 29.8518 22.47 29.7057 22.642 29.538C23.1576 29.0191 23.4475 28.3176 23.4489 27.5862V26.1931C22.9869 26.1433 22.5831 25.859 22.3801 25.4415Z" fill="#FFDAAA"/>
<path d="M22.0692 29.9724V30.662C21.2165 31.1587 20.1632 31.1587 19.3105 30.662V29.9724C20.1632 30.4691 21.2165 30.4691 22.0692 29.9724Z" fill="#F2CD9D"/>
<path d="M22.0698 22.3518C21.6337 22.1656 21.1646 22.0693 20.6905 22.069C19.6055 22.07 18.5838 22.5808 17.9319 23.4483C17.4816 24.0436 17.2392 24.7707 17.2422 25.5172V26.2069H18.7458C19.5634 26.2086 20.3632 25.9658 21.0421 25.5105L22.0698 24.8276L22.3803 25.4415C22.5833 25.859 22.9871 26.1432 23.4491 26.1931C23.5037 26.2045 23.5592 26.2093 23.6148 26.2069H24.1388V25.5172C24.1357 24.1457 23.3245 22.9051 22.0698 22.3518Z" fill="#3E3D42"/>
<path d="M24.8963 32.531L23.0688 32.007L22.0686 32.7586L20.6893 33.7931L18.3099 32.007L16.4824 32.531C15.2963 32.8681 14.4791 33.9531 14.4824 35.1862V40H26.8962V35.1862C26.8976 33.9537 26.0813 32.8701 24.8963 32.531Z" fill="#00CCB3"/>
<path d="M1.37891 2.75863H22.0686V4.13794H1.37891V2.75863Z" fill="#3D9AE2"/>
<path d="M16.5508 35.1724H17.9301V40H16.5508V35.1724Z" fill="#00B39D"/>
<path d="M23.4492 35.1724H24.8285V40H23.4492V35.1724Z" fill="#00B39D"/>
<path d="M30.3457 22.7586H37.2423V24.1379H30.3457V22.7586Z" fill="#DDB200"/>
<path d="M30.3457 25.5172H37.2423V26.8965H30.3457V25.5172Z" fill="#DDB200"/>
</g>
<defs>
<clipPath id="clip0_335_7198">
<rect width="40" height="40" fill="white"/>
</clipPath>
</defs>
</svg>
