<svg width="30" height="30" viewBox="0 0 30 30" fill="none" xmlns="http://www.w3.org/2000/svg">
<path d="M25.5469 0H16.677C16.2929 0 15.9534 0.249258 15.8384 0.615645C15.5815 1.43385 14.4183 1.43361 14.1616 0.615645C14.0466 0.249258 13.7071 0 13.323 0H4.45312C2.99924 0 1.81641 1.18283 1.81641 2.63672V27.3633C1.81641 28.8172 2.99924 30 4.45312 30H13.323C13.7071 30 14.0466 29.7507 14.1616 29.3844C14.4185 28.5662 15.5817 28.5664 15.8384 29.3844C15.9534 29.7507 16.293 30 16.677 30H25.5469C27.0008 30 28.1836 28.8172 28.1836 27.3633V2.63672C28.1836 1.18283 27.0008 0 25.5469 0ZM26.4258 27.3633C26.4258 27.8479 26.0315 28.2422 25.5469 28.2422H17.2322C16.204 26.601 13.7944 26.6034 12.7679 28.2422H4.45312C3.9685 28.2422 3.57422 27.8479 3.57422 27.3633V2.63672C3.57422 2.15209 3.9685 1.75781 4.45312 1.75781H12.7678C13.796 3.39902 16.2056 3.39656 17.2321 1.75781H25.5469C26.0315 1.75781 26.4258 2.15209 26.4258 2.63672V27.3633Z" fill="white"/>
<path d="M8.40145 3.74809C4.98637 7.16305 6.17758 5.97671 5.91555 6.23399C4.88752 7.26202 4.88752 8.93481 5.91555 9.96284C6.94352 10.9909 8.61637 10.9909 9.6444 9.96284L12.1303 7.47694C13.1583 6.44891 13.1583 4.77612 12.1303 3.74809C11.1023 2.72007 9.42942 2.72001 8.40145 3.74809ZM10.8873 4.99104C11.23 5.33376 11.23 5.89134 10.8873 6.23399L10.2658 6.8555L9.0229 5.61255L9.6444 4.99104C9.987 4.64839 10.5446 4.64833 10.8873 4.99104ZM7.15844 8.71995C6.81579 8.37723 6.81579 7.81966 7.15844 7.477L7.77995 6.8555L9.0229 8.09845L8.40139 8.71995C8.05868 9.06266 7.5011 9.06261 7.15844 8.71995Z" fill="white"/>
<path d="M20.296 3.74809C16.8809 7.16305 18.0721 5.97671 17.8101 6.23399C16.7821 7.26202 16.7821 8.93481 17.8101 9.96284C18.8381 10.9909 20.5109 10.9909 21.5389 9.96284C24.954 6.54788 23.7628 7.73423 24.0248 7.47694C25.0529 6.44891 25.0529 4.77612 24.0248 3.74809C22.9968 2.72007 21.324 2.72001 20.296 3.74809ZM22.7819 4.99104C23.1245 5.33376 23.1245 5.89134 22.7819 6.23399L22.1604 6.8555L20.9174 5.61255L21.5389 4.99104C21.8815 4.64839 22.4392 4.64833 22.7819 4.99104ZM19.053 8.71995C18.7103 8.37723 18.7103 7.81966 19.053 7.477L19.6745 6.8555L20.9174 8.09845L20.2959 8.71995C19.9532 9.06266 19.3956 9.06261 19.053 8.71995Z" fill="white"/>
<path d="M8.40231 11.9512C6.14886 14.2047 6.06091 14.2926 5.91642 14.4371C4.25405 16.0995 5.44755 18.937 7.78087 18.937C8.45604 18.937 9.13128 18.68 9.64526 18.166C13.0603 14.751 11.8691 15.9374 12.1312 15.6801C13.1592 14.652 13.1592 12.9792 12.1312 11.9512C11.1031 10.9232 9.43028 10.9231 8.40231 11.9512ZM10.8882 13.1942C11.2309 13.5369 11.2309 14.0945 10.8882 14.4371L10.2667 15.0586L9.02376 13.8157L9.64526 13.1942C9.98786 12.8515 10.5455 12.8515 10.8882 13.1942ZM7.15931 16.9231C6.81665 16.5804 6.81665 16.0228 7.15931 15.6801L7.78081 15.0586L9.02376 16.3016L8.40226 16.9231C8.05954 17.2657 7.50196 17.2657 7.15931 16.9231Z" fill="white"/>
<path d="M20.296 11.9512C16.8809 15.3662 18.0721 14.1798 17.8101 14.4371C16.7821 15.4651 16.7821 17.1379 17.8101 18.166C18.8381 19.194 20.5109 19.1941 21.5389 18.166C24.954 14.751 23.7628 15.9374 24.0248 15.6801C25.0529 14.652 25.0529 12.9792 24.0248 11.9512C22.9968 10.9232 21.324 10.9231 20.296 11.9512ZM22.7819 13.1942C23.1245 13.5369 23.1245 14.0945 22.7819 14.4371L22.1604 15.0586L20.9174 13.8157L21.5389 13.1942C21.8815 12.8515 22.4392 12.8515 22.7819 13.1942ZM19.053 16.9231C18.7103 16.5804 18.7103 16.0228 19.053 15.6801L19.6745 15.0586L20.9174 16.3016L20.2959 16.9231C19.9532 17.2657 19.3956 17.2657 19.053 16.9231Z" fill="white"/>
<path d="M8.40145 20.0372C4.98637 23.4521 6.17758 22.2658 5.91555 22.5231C4.88752 23.5511 4.88752 25.2239 5.91555 26.2519C6.94352 27.2799 8.61637 27.28 9.6444 26.2519C11.8979 23.9985 11.9858 23.9105 12.1303 23.766C13.1583 22.738 13.1583 21.0652 12.1303 20.0372C11.1023 19.0091 9.42942 19.0091 8.40145 20.0372ZM10.8873 21.2801C11.23 21.6228 11.23 22.1804 10.8873 22.5231L10.2658 23.1446L9.0229 21.9016L9.6444 21.2801C9.987 20.9375 10.5446 20.9374 10.8873 21.2801ZM7.15844 25.009C6.81579 24.6663 6.81579 24.1087 7.15844 23.7661L7.77995 23.1446L9.0229 24.3875L8.40139 25.009C8.05868 25.3517 7.5011 25.3517 7.15844 25.009Z" fill="white"/>
<path d="M20.296 20.0372C16.8809 23.4521 18.0721 22.2658 17.8101 22.5231C16.7821 23.5511 16.7821 25.2239 17.8101 26.2519C18.8381 27.2799 20.5109 27.28 21.5389 26.2519C24.954 22.8369 23.7628 24.0233 24.0248 23.766C25.0529 22.738 25.0529 21.0652 24.0248 20.0372C22.9968 19.0091 21.324 19.0091 20.296 20.0372ZM22.7819 21.2801C23.1245 21.6228 23.1245 22.1804 22.7819 22.5231L22.1604 23.1446L20.9174 21.9016L21.5389 21.2801C21.8815 20.9375 22.4392 20.9374 22.7819 21.2801ZM19.053 25.009C18.7103 24.6663 18.7103 24.1087 19.053 23.7661L19.6745 23.1446L20.9174 24.3875L20.2959 25.009C19.9532 25.3517 19.3956 25.3517 19.053 25.009Z" fill="white"/>
<path d="M15 4.51172C14.5146 4.51172 14.1211 4.90523 14.1211 5.39062V7.14844C14.1211 7.63383 14.5146 8.02734 15 8.02734C15.4854 8.02734 15.8789 7.63383 15.8789 7.14844V5.39062C15.8789 4.90523 15.4854 4.51172 15 4.51172Z" fill="white"/>
<path d="M15 9.72656C14.5146 9.72656 14.1211 10.1201 14.1211 10.6055V13.2422C14.1211 13.7276 14.5146 14.1211 15 14.1211C15.4854 14.1211 15.8789 13.7276 15.8789 13.2422V10.6055C15.8789 10.1201 15.4854 9.72656 15 9.72656Z" fill="white"/>
<path d="M15 15.8789C14.5146 15.8789 14.1211 16.2724 14.1211 16.7578V19.3945C14.1211 19.8799 14.5146 20.2734 15 20.2734C15.4854 20.2734 15.8789 19.8799 15.8789 19.3945V16.7578C15.8789 16.2724 15.4854 15.8789 15 15.8789Z" fill="white"/>
<path d="M15 22.0312C14.5146 22.0312 14.1211 22.4248 14.1211 22.9102V24.668C14.1211 25.1534 14.5146 25.5469 15 25.5469C15.4854 25.5469 15.8789 25.1534 15.8789 24.668V22.9102C15.8789 22.4248 15.4854 22.0312 15 22.0312Z" fill="white"/>
</svg>
