<svg width="30" height="30" viewBox="0 0 30 30" fill="none" xmlns="http://www.w3.org/2000/svg">
<g clip-path="url(#clip0_310_4770)">
<path d="M28.3371 15.7271L28.1689 14.886C28.0867 14.4751 27.726 14.1794 27.3071 14.1794H24.6014L27.504 3.46857C27.8829 2.07015 27.1049 0.610435 25.7327 0.145369C24.3602 -0.319815 22.8552 0.366212 22.3059 1.70686L18.5635 10.8398L17.5021 10.203C17.853 9.12061 17.663 8.59555 17.7173 5.28899C17.7173 4.80359 17.3238 4.41007 16.8384 4.41007H13.283C11.138 4.41007 9.34813 5.95521 8.96521 7.99073C8.21754 7.40221 7.27574 7.04976 6.25256 7.04976H2.69721C2.21181 7.04976 1.81829 7.44328 1.81829 7.92868V11.4841C1.81829 12.4994 2.16528 13.4345 2.74567 14.1794H2.69428C2.27521 14.1794 1.91444 14.4753 1.83241 14.8863L1.66313 15.7341C0.622953 20.9437 2.48193 26.3282 6.51694 29.7884C6.6762 29.925 6.87912 30 7.08894 30H22.9095C23.1193 30 23.3221 29.925 23.4814 29.7886C27.5193 26.329 29.3799 20.941 28.3371 15.7271ZM10.6472 14.0903L15.0539 10.784C15.4696 11.0406 20.5943 14.1084 20.7129 14.1794H10.6472V14.0903ZM23.9325 2.37337C24.1306 1.88991 24.6735 1.64264 25.1684 1.81022C25.6633 1.97792 25.9439 2.50445 25.8072 3.00877L22.9687 13.483L20.0883 11.7547L23.9325 2.37337ZM13.2831 6.16785H15.9595C15.9482 8.89995 15.9851 8.88125 15.9257 9.25714L15.4514 8.97254C15.1449 8.78862 14.7576 8.80871 14.4717 9.02317L10.6472 11.8927C10.6456 10.989 10.6465 9.85492 10.6462 8.80467C10.6463 7.3507 11.8291 6.16785 13.2831 6.16785ZM3.57613 8.80754H6.25262C7.69405 8.80754 8.86835 9.97029 8.88845 11.4071C8.88863 11.6366 8.88927 12.6484 8.88939 12.8778L6.85427 10.8427C6.51108 10.4995 5.95455 10.4995 5.6113 10.8427C5.26805 11.1859 5.26805 11.7424 5.6113 12.0857L7.64642 14.1208H6.21289C4.75898 14.1208 3.57613 12.9379 3.57613 11.484V8.80754ZM22.5784 28.2421H7.42012C1.59135 22.9897 3.41622 15.955 3.41505 15.9372H26.5865C26.5861 15.9437 28.1645 23.2116 22.5784 28.2421Z" fill="white"/>
</g>
<defs>
<clipPath id="clip0_310_4770">
<rect width="30" height="30" fill="white"/>
</clipPath>
</defs>
</svg>
