<svg width="30" height="30" viewBox="0 0 30 30" fill="none" xmlns="http://www.w3.org/2000/svg">
<path d="M21.7763 7.46872L25.7467 3.49829C26.09 3.15504 26.09 2.59852 25.7467 2.25528C25.4035 1.91198 24.8469 1.91198 24.5037 2.25528L20.5333 6.22571L19.9118 5.60415C19.6266 5.31897 19.1839 5.26448 18.838 5.47196L16.319 6.98344L15.5612 6.22571C15.218 5.88241 14.6615 5.88241 14.3182 6.22571L4.02062 16.5233L3.39911 15.9018C3.05587 15.5585 2.49935 15.5585 2.1561 15.9018C1.81286 16.2451 1.81286 16.8016 2.1561 17.1448L5.88519 20.8739L3.57208 23.187L1.50044 21.1154C1.1572 20.7721 0.600674 20.7721 0.257432 21.1154C-0.0858105 21.4586 -0.0858105 22.0151 0.257432 22.3584C5.14632 27.2646 5.63575 27.7367 5.64372 27.7447C5.98691 28.0879 6.54349 28.088 6.88673 27.7447C7.22997 27.4014 7.22997 26.8449 6.88673 26.5017L4.81509 24.43L7.12819 22.1169L10.8573 25.846C11.2005 26.1892 11.757 26.1893 12.1003 25.846C12.4435 25.5028 12.4435 24.9462 12.1003 24.603L11.4788 23.9815L21.7764 13.6839C22.1196 13.3406 22.1196 12.7841 21.7764 12.4409L21.0187 11.6831L22.5301 9.16407C22.7377 8.81825 22.6831 8.37551 22.398 8.0904L21.7763 7.46872ZM5.26362 17.7663L11.4787 11.5512L16.4508 16.5233L15.2077 17.7663L13.9647 16.5233C13.6215 16.18 13.065 16.18 12.7217 16.5233C12.3785 16.8665 12.3785 17.423 12.7217 17.7663L13.9647 19.0093L12.7217 20.2523L11.4787 19.0093C11.1354 18.6661 10.579 18.6661 10.2357 19.0093C9.89247 19.3526 9.89247 19.9091 10.2357 20.2523L11.4787 21.4954L10.2357 22.7384L5.26362 17.7663ZM17.6938 15.2803L12.7217 10.3083L14.9397 8.09028L19.9118 13.0623L17.6938 15.2803ZM17.6003 8.26471L19.1541 7.33243L20.6696 8.84795L19.7373 10.4017L17.6003 8.26471Z" fill="white"/>
<path d="M29.2286 6.27758L27.9856 5.03457C27.6424 4.69127 27.0858 4.69127 26.7426 5.03457L25.4995 6.27758C24.4715 7.30567 24.4715 8.97852 25.4995 10.0066C26.5275 11.0346 28.2005 11.0347 29.2286 10.0066C30.2566 8.97852 30.2566 7.30567 29.2286 6.27758ZM27.9856 8.76359C27.643 9.10625 27.0853 9.10631 26.7426 8.76359C26.3999 8.42088 26.3999 7.8633 26.7426 7.52059L27.3641 6.89908L27.9856 7.52059C28.3283 7.8633 28.3283 8.42088 27.9856 8.76359Z" fill="white"/>
</svg>
