<svg width="60" height="60" viewBox="0 0 60 60" fill="none" xmlns="http://www.w3.org/2000/svg">
<g clip-path="url(#clip0_305_4759)">
<path d="M40.4974 6.76437V53.2356C40.4974 56.965 37.4625 60 33.7331 60H9.81125C6.08185 60 3.04688 56.965 3.04688 53.2356V6.76437C3.04688 3.03497 6.08185 0 9.81125 0H33.7331C37.4625 0 40.4974 3.03497 40.4974 6.76437Z" fill="white"/>
<path d="M40.4972 6.76437V53.2356C40.4972 56.965 37.4622 60 33.7328 60H21.7705V0H33.7328C37.4622 0 40.4972 3.03497 40.4972 6.76437Z" fill="#F7ECD9"/>
<path d="M33.7331 0H9.81125C6.08185 0 3.04688 3.03497 3.04688 6.76437V53.2356C3.04688 56.965 6.08185 60 9.81125 60H33.7331C37.4625 60 40.4974 56.965 40.4974 53.2356V6.76437C40.4974 3.03497 37.4625 0 33.7331 0V0ZM36.9804 53.2356C36.9804 55.0259 35.5234 56.483 33.7331 56.483H9.81125C8.02094 56.483 6.56387 55.0259 6.56387 53.2356V6.76437C6.56387 4.97406 8.02094 3.517 9.81125 3.517H13.0234V5.39978C13.0234 7.26013 14.5367 8.7735 16.3971 8.7735H27.1472C29.0076 8.7735 30.5209 7.26013 30.5209 5.39978V3.517H33.7331C35.5234 3.517 36.9804 4.97406 36.9804 6.76437V53.2356Z" fill="#F9AF2B"/>
<path d="M26.9821 51.4654C26.9821 52.4373 26.1943 53.2242 25.2234 53.2242H18.3212C17.3503 53.2242 16.5625 52.4373 16.5625 51.4654C16.5625 50.495 17.3503 49.7072 18.3212 49.7072H25.2234C26.1943 49.7072 26.9821 50.495 26.9821 51.4654Z" fill="#F9AF2B"/>
<path d="M40.4972 6.76437V53.2356C40.4972 56.965 37.4622 60 33.7328 60H21.7705V56.483H33.7328C35.5231 56.483 36.9802 55.0259 36.9802 53.2356V6.76437C36.9802 4.97406 35.5231 3.517 33.7328 3.517H30.5207V5.39978C30.5207 7.26013 29.0073 8.7735 27.1469 8.7735H21.7705V0H33.7328C37.4622 0 40.4972 3.03497 40.4972 6.76437Z" fill="#F48603"/>
<path d="M26.9817 51.4654C26.9817 52.4373 26.1939 53.2242 25.223 53.2242H21.7705V49.7072H25.223C26.1939 49.7072 26.9817 50.495 26.9817 51.4654Z" fill="#F48603"/>
<path d="M57.1752 24.1072V30.6642C57.1752 35.0872 53.5772 38.6852 49.1543 38.6852H33.6224L27.9658 41.5407C27.6307 41.7375 27.2544 41.8373 26.8768 41.8373C26.538 41.8373 26.197 41.7563 25.8825 41.5934C25.1666 41.2207 24.7207 40.4879 24.7207 39.6813V24.1072C24.7207 19.6843 28.3196 16.0863 32.7416 16.0863H49.1543C53.5772 16.0863 57.1752 19.6843 57.1752 24.1072Z" fill="#2FD3AE"/>
<path d="M57.1753 24.1072V30.6642C57.1753 35.0872 53.5773 38.6852 49.1544 38.6852H40.498V16.0863H49.1544C53.5773 16.0863 57.1753 19.6843 57.1753 24.1072Z" fill="#2FD3AE"/>
<path d="M50.4004 24.1283C50.4004 25.1001 49.6126 25.887 48.6422 25.887H33.2553C32.2835 25.887 31.4971 25.1001 31.4971 24.1283C31.4971 23.1578 32.2835 22.37 33.2553 22.37H48.6422C49.6126 22.37 50.4004 23.1578 50.4004 24.1283Z" fill="white"/>
<path d="M50.4001 30.1341C50.4001 31.1046 49.6123 31.8924 48.6418 31.8924H40.9477C40.7916 31.8924 40.6419 31.8727 40.4977 31.8338C39.7452 31.636 39.1895 30.9489 39.1895 30.1341C39.1895 29.3184 39.7452 28.6322 40.4977 28.4344C40.6419 28.3955 40.7916 28.3759 40.9477 28.3759H48.6418C49.6123 28.3759 50.4001 29.1623 50.4001 30.1341Z" fill="white"/>
<path d="M50.4004 30.1341C50.4004 31.1046 49.6126 31.8924 48.6421 31.8924H40.948C40.7919 31.8924 40.6422 31.8727 40.498 31.8338V28.4344C40.6422 28.3955 40.7919 28.3759 40.948 28.3759H48.6421C49.6126 28.3759 50.4004 29.1623 50.4004 30.1341Z" fill="white"/>
<path d="M48.6421 25.887H40.498V22.37H48.6421C49.6126 22.37 50.4004 23.1578 50.4004 24.1283C50.4004 25.1001 49.6126 25.887 48.6421 25.887Z" fill="white"/>
</g>
<defs>
<clipPath id="clip0_305_4759">
<rect width="60" height="60" fill="white"/>
</clipPath>
</defs>
</svg>
