<svg width="60" height="60" viewBox="0 0 60 60" fill="none" xmlns="http://www.w3.org/2000/svg">
<path d="M19.9689 24.114C19.9689 26.7552 18.3536 28.8965 16.3611 28.8965C14.3685 28.8965 13.2109 26.4376 13.2109 23.7961C13.2109 21.1547 14.3684 19.3314 16.3611 19.3314C18.3537 19.3314 19.9689 21.4726 19.9689 24.114Z" fill="#FFBEAD"/>
<path d="M40.0352 24.114C40.0352 26.7552 41.6505 28.8965 43.643 28.8965C45.6355 28.8965 46.7931 26.4376 46.7931 23.7961C46.7931 21.1547 45.6357 19.3314 43.643 19.3314C41.6504 19.3314 40.0352 21.4726 40.0352 24.114Z" fill="#FFBEAD"/>
<path d="M22.5778 39.3863L17.8145 35.8764V24.7045C17.8145 24.2191 17.4211 23.8256 16.9355 23.8256C16.45 23.8256 16.0566 24.2191 16.0566 24.7045V36.3206C16.0566 36.5998 16.1894 36.8624 16.4142 37.0282L21.535 40.8015C21.6921 40.9171 21.8746 40.9728 22.0557 40.9728C22.3255 40.9728 22.5916 40.8491 22.764 40.6153C23.0519 40.2246 22.9685 39.6744 22.5778 39.3863Z" fill="#686169"/>
<path d="M18.5284 26.1384H17.5049C16.3868 26.1384 15.4805 25.2321 15.4805 24.114C15.4805 22.9959 16.3868 22.0896 17.5049 22.0896H18.5284C18.8618 22.0896 19.132 22.3598 19.132 22.6932V25.5349C19.132 25.8682 18.8617 26.1384 18.5284 26.1384Z" fill="#7B727B"/>
<path d="M46.1051 60H13.8973C12.7901 60 11.8926 59.1024 11.8926 57.9952V54.9358C11.8926 48.9153 16.7731 44.0348 22.7936 44.0348H37.2088C43.2293 44.0348 48.1098 48.9153 48.1098 54.9358V57.9952C48.1098 59.1024 47.2123 60 46.1051 60Z" fill="#2FD3AE"/>
<path d="M37.2096 44.0348H33.5879C39.6084 44.0348 44.4889 48.9154 44.4889 54.9358V57.9952C44.4889 59.1024 43.5914 60 42.4842 60H46.1059C47.213 60 48.1106 59.1024 48.1106 57.9952V54.9358C48.1106 48.9154 43.2301 44.0348 37.2096 44.0348Z" fill="#2FD3AE"/>
<path d="M26.3789 36.5326H33.6224V48.311H26.3789V36.5326Z" fill="#FFD8CA"/>
<path d="M30 36.5326H33.6217V48.311H30V36.5326Z" fill="#FFBEAD"/>
<path d="M26.3799 41.1968C26.3799 41.1968 26.0332 45.9988 30.0015 48.3109C30.0015 48.3109 27.745 50.8304 25.4625 50.0301C23.6541 49.396 22.6307 46.0228 22.2837 44.649C22.1961 44.3027 22.3354 43.9393 22.631 43.7388L26.3799 41.1968Z" fill="#F5F2F4"/>
<path d="M33.6217 41.1968C33.6217 41.1968 33.9683 45.9988 30 48.3109C30 48.3109 32.2566 50.8304 34.539 50.0301C36.3475 49.396 37.3709 46.0228 37.7179 44.649C37.8054 44.3027 37.6662 43.9393 37.3705 43.7388L33.6217 41.1968Z" fill="#F5F2F4"/>
<path d="M18.3574 27.2109V19.2874C18.3574 12.8564 23.5707 7.64294 30.0019 7.64294C36.4329 7.64294 41.6463 12.8563 41.6463 19.2874V27.1671C41.6463 33.6102 36.4232 38.8335 29.98 38.8335C23.561 38.8335 18.3574 33.6299 18.3574 27.2109Z" fill="#FFD8CA"/>
<path d="M30.001 7.64319C29.3849 7.64319 28.7802 7.69147 28.1901 7.78358C33.7611 8.65346 38.0236 13.4726 38.0236 19.2876V27.1673C38.0236 32.9939 33.7521 37.8224 28.1699 38.6933C28.7595 38.7854 29.3636 38.8337 29.9789 38.8337C36.422 38.8337 41.6453 33.6105 41.6453 27.1673V19.2876C41.6454 12.8565 36.432 7.64319 30.001 7.64319Z" fill="#FFBEAD"/>
<path d="M30.0008 5.55701C12.1428 5.55701 17.1731 20.9717 17.558 21.7992C17.9198 22.5781 18.3563 24.6977 18.3563 24.6977C18.3563 24.6977 20.8372 22.7042 20.7571 21.9435C20.6293 20.7279 19.9254 13.2604 22.9966 13.9645C26.0668 14.6685 27.331 15.1801 29.898 15.1801C32.465 15.1801 33.7292 14.6685 36.7994 13.9645C39.8707 13.2606 39.1667 20.7279 39.0389 21.9435C38.9588 22.7042 41.6451 24.7046 41.6451 24.7046C41.6451 24.7046 41.8761 22.5783 42.2378 21.7993C42.8104 20.5687 47.8587 5.55701 30.0008 5.55701Z" fill="#9B523C"/>
<path d="M29.0731 30.8327C29.4313 30.9262 29.7254 30.973 30.0195 30.973C30.3136 30.973 30.6078 30.9262 30.9659 30.8327C31.4355 30.71 31.7169 30.2299 31.5942 29.7602C31.4716 29.2906 30.9919 29.0096 30.5216 29.1319C30.0992 29.2423 29.9393 29.2421 29.5171 29.1319C29.0474 29.0096 28.5674 29.2905 28.4447 29.7602C28.3221 30.23 28.6034 30.7101 29.0731 30.8327Z" fill="#FFBEAD"/>
<path d="M27.9375 20.0461C28.0601 19.5765 27.7788 19.0963 27.3091 18.9738C25.945 18.6176 25.113 18.6176 23.7489 18.9738C23.2792 19.0963 22.9979 19.5766 23.1205 20.0461C23.2432 20.5158 23.7237 20.7971 24.1929 20.6745C25.2668 20.3941 25.7912 20.3941 26.8651 20.6745C26.9395 20.694 27.0142 20.7032 27.0877 20.7032C27.4779 20.7032 27.8343 20.4413 27.9375 20.0461Z" fill="#9B523C"/>
<path d="M36.2896 18.9728C34.9254 18.6167 34.0935 18.6167 32.7293 18.9728C32.2596 19.0954 31.9784 19.5756 32.101 20.0452C32.2237 20.5149 32.704 20.7961 33.1734 20.6735C34.2473 20.3931 34.7717 20.3931 35.8456 20.6735C35.92 20.693 35.9946 20.7022 36.0681 20.7022C36.4584 20.7022 36.8147 20.4403 36.918 20.0452C37.0405 19.5756 36.7593 19.0955 36.2896 18.9728Z" fill="#9B523C"/>
<path d="M31.8681 31.5922C30.7279 32.2268 29.3117 32.2266 28.1717 31.5922C27.7475 31.3561 27.2123 31.5086 26.9763 31.9327C26.7403 32.357 26.8927 32.8921 27.3168 33.1282C28.1505 33.5921 29.0852 33.8241 30.0199 33.8241C30.9546 33.8241 31.8892 33.5922 32.7228 33.1282C33.1469 32.8921 33.2994 32.357 33.0634 31.9327C32.8272 31.5086 32.2924 31.3561 31.8681 31.5922Z" fill="#FFBEAD"/>
<path d="M24.9492 23.8855C24.4637 23.8855 24.0703 24.279 24.0703 24.7644V25.4887C24.0703 25.9741 24.4637 26.3676 24.9492 26.3676C25.4347 26.3676 25.8281 25.9741 25.8281 25.4887V24.7644C25.8281 24.279 25.4347 23.8855 24.9492 23.8855Z" fill="#9B523C"/>
<path d="M35.0898 23.8855C34.6043 23.8855 34.2109 24.279 34.2109 24.7644V25.4887C34.2109 25.9741 34.6043 26.3676 35.0898 26.3676C35.5754 26.3676 35.9688 25.9741 35.9688 25.4887V24.7644C35.9688 24.279 35.5752 23.8855 35.0898 23.8855Z" fill="#9B523C"/>
<path d="M30 51.0326C29.5145 51.0326 29.1211 51.4261 29.1211 51.9115V52.3944C29.1211 52.8798 29.5145 53.2733 30 53.2733C30.4855 53.2733 30.8789 52.8798 30.8789 52.3944V51.9115C30.8789 51.4261 30.4855 51.0326 30 51.0326Z" fill="#686169"/>
<path d="M30 54.8214C29.5145 54.8214 29.1211 55.2149 29.1211 55.7003V56.1832C29.1211 56.6686 29.5145 57.0621 30 57.0621C30.4855 57.0621 30.8789 56.6686 30.8789 56.1832V55.7003C30.8789 55.2148 30.4855 54.8214 30 54.8214Z" fill="#686169"/>
<path d="M44.0041 13.4856H15.9961L16.5185 8.67422C17.0545 3.73699 21.1627 0 26.0538 0H33.9463C38.8376 0 42.9456 3.73699 43.4817 8.67422L44.0041 13.4856Z" fill="#2FD3AE"/>
<path d="M43.4832 8.67422C42.9471 3.73699 38.839 0 33.9479 0H30.3262C35.2175 0 39.3255 3.73699 39.8616 8.67422L40.384 13.4856H44.0057L43.4832 8.67422Z" fill="#2FD3AE"/>
<path d="M37.9688 13.4857H22.0332V8.10526C22.0332 6.33725 23.4665 4.90393 25.2345 4.90393H34.7674C36.5354 4.90393 37.9687 6.33725 37.9687 8.10526V13.4857H37.9688Z" fill="#F9AF2B"/>
<path d="M34.7916 4.90393H31.1699C32.9245 4.90393 34.3468 6.34827 34.3468 8.12999V13.4857H37.9684V8.12999C37.9684 6.34827 36.5461 4.90393 34.7916 4.90393Z" fill="#F48603"/>
<path d="M40.9932 57.2403H36.3129C35.7551 57.2403 35.3027 56.7881 35.3027 56.2302V54.7339C35.3027 54.1761 35.755 53.7238 36.3129 53.7238H40.9932C41.5511 53.7238 42.0034 54.176 42.0034 54.7339V56.2302C42.0034 56.7881 41.5511 57.2403 40.9932 57.2403Z" fill="#F5F2F4"/>
<path d="M45.2359 16.9015H14.7671C14.1353 16.9015 13.623 16.3892 13.623 15.7574V15.0075C13.623 14.0533 14.3966 13.2798 15.3507 13.2798H44.6523C45.6064 13.2798 46.38 14.0533 46.38 15.0075V15.7574C46.38 16.3892 45.8678 16.9015 45.2359 16.9015Z" fill="#F5F2F4"/>
<path d="M44.6529 13.2798H41.0312C41.9854 13.2798 42.7589 14.0533 42.7589 15.0075V15.7574C42.7589 16.3892 42.2467 16.9015 41.6148 16.9015H45.2365C45.8684 16.9015 46.3806 16.3892 46.3806 15.7574V15.0075C46.3806 14.0533 45.6071 13.2798 44.6529 13.2798Z" fill="#E7E4E7"/>
</svg>
