<svg width="60" height="60" viewBox="0 0 60 60" fill="none" xmlns="http://www.w3.org/2000/svg">
<g clip-path="url(#clip0_305_4963)">
<path d="M30.867 9.63492C35.3932 9.63492 39.6547 11.3186 42.9355 14.3871V11.1912C42.9356 5.01047 37.9251 0 31.7444 0H29.99C23.8093 0 18.7988 5.01047 18.7988 11.1912V14.3872C22.0796 11.3186 26.341 9.63492 30.867 9.63492Z" fill="#2FD3AE"/>
<path d="M23.8528 11.0727C23.9108 5.50559 28.0319 0.912656 33.3928 0.121172C32.8548 0.0417188 32.3045 0 31.7444 0H29.99C23.8093 0 18.7988 5.01047 18.7988 11.1912V14.3872C20.3009 12.9823 22.0084 11.868 23.8528 11.0727Z" fill="#2FD3AE"/>
<path d="M40.6553 43.6734C40.6553 43.5383 40.7652 43.4285 40.9002 43.4285H44.4962V41.8855C44.4962 41.7504 44.6061 41.6405 44.7412 41.6405H48.4678L48.5184 41.5233V37.3453C48.5184 35.5166 47.0359 34.0341 45.2072 34.0341H16.53C14.7013 34.0341 13.2188 35.5166 13.2188 37.3453V38.5432L13.3064 38.6604H24.9442C25.0792 38.6604 25.1891 38.7703 25.1891 38.9054V48.7267H28.797C28.9986 48.7267 29.1626 48.8907 29.1626 49.0924V59.8437L29.2798 60.0002H40.5381L40.6553 59.8437V43.6734Z" fill="#2FD3AE"/>
<path d="M18.2418 38.5431V37.3452C18.2418 35.5165 19.7243 34.0339 21.553 34.0339H16.53C14.7013 34.0339 13.2188 35.5165 13.2188 37.3452V38.5431H18.2418Z" fill="#2FD3AE"/>
<path d="M31.0364 37.644C30.992 37.6893 30.9325 37.7141 30.8693 37.7141C30.8059 37.7141 30.7464 37.6893 30.702 37.644L29.9902 36.92V43.0382C29.9902 43.5236 30.3836 43.9171 30.8691 43.9171C31.3546 43.9171 31.748 43.5236 31.748 43.0382V36.9202L31.0364 37.644Z" fill="#2FD3AE"/>
<path d="M30.1767 37.112L27.416 34.3041C27.2143 34.099 27.1032 33.8276 27.1032 33.5399V30.4463L23.4746 34.034V38.6603H24.9425C25.0775 38.6603 25.1874 38.7702 25.1874 38.9052V40.3398L30.1767 37.112Z" fill="#2FD3AE"/>
<path d="M34.6301 30.4463V33.5399C34.6301 33.8276 34.519 34.099 34.3173 34.3041L31.5566 37.112L37.6998 41.0864C37.9408 41.2423 38.2587 41.0693 38.2587 40.7823V34.0339L34.6301 30.4463Z" fill="#2FD3AE"/>
<path d="M26.986 33.5399V30.5621L23.4746 34.0339V38.6603H24.9425C25.0775 38.6603 25.1874 38.7702 25.1874 38.9052V40.3398L25.9582 39.8412V35.2567L27.1252 34.1027C27.0347 33.9308 26.986 33.7378 26.986 33.5399Z" fill="#2FD3AE"/>
<path d="M33.4689 30.4075H28.2698C27.8312 30.4075 27.4028 30.3632 26.9883 30.2801V33.5398C26.9883 33.8565 27.1127 34.1605 27.3347 34.3863L30.6186 37.7262C30.7564 37.8664 30.9823 37.8664 31.12 37.7262L34.4039 34.3862C34.6259 34.1603 34.7503 33.8564 34.7503 33.5398V30.28C34.3358 30.3632 33.9074 30.4075 33.4689 30.4075Z" fill="#FFBD86"/>
<path d="M30.3255 33.5398V30.4075H28.2679C27.8293 30.4075 27.4008 30.3632 26.9863 30.2802V33.5398C26.9863 33.8565 27.1108 34.1605 27.3327 34.3863L30.6167 37.7262C30.7545 37.8664 30.9803 37.8664 31.118 37.7262L32.5369 36.2832L30.6719 34.3863C30.4499 34.1605 30.3255 33.8565 30.3255 33.5398Z" fill="#F6A96C"/>
<path d="M21.7632 23.9022V16.78H21.5149C21.3088 16.9635 21.1066 17.1529 20.91 17.3496C20.5703 17.6894 20.1185 17.8766 19.6379 17.8766C19.2477 17.8766 18.8777 17.7514 18.5701 17.5231C17.9094 18.0895 17.4902 18.9295 17.4902 19.8679V21.018C17.4902 22.7234 18.8727 24.1059 20.5781 24.1059H21.7684C21.7663 24.0382 21.7632 23.9705 21.7632 23.9022Z" fill="#F6A96C"/>
<path d="M43.1651 17.5231C42.8575 17.7513 42.4875 17.8764 42.0973 17.8764C41.6166 17.8764 41.1649 17.6893 40.8252 17.3496C40.6284 17.1528 40.4264 16.9635 40.2203 16.78H39.972V23.9022C39.972 23.9705 39.9689 24.0382 39.9668 24.106H41.1571C42.8625 24.106 44.245 22.7235 44.245 21.0181V19.868C44.245 18.9295 43.8258 18.0895 43.1651 17.5231Z" fill="#FFBD86"/>
<path d="M30.8686 13.2313C27.4405 13.2313 24.2029 14.4435 21.6465 16.664V23.9022C21.6465 27.5597 24.6114 30.5247 28.269 30.5247H33.468C37.1255 30.5247 40.0905 27.5597 40.0905 23.9022V16.664C37.5341 14.4435 34.2965 13.2313 30.8686 13.2313Z" fill="#FED2A4"/>
<path d="M25.4125 23.902V14.3203C24.0515 14.8908 22.7818 15.6777 21.6465 16.6638V23.902C21.6465 27.5596 24.6114 30.5245 28.269 30.5245H32.035C28.3775 30.5246 25.4125 27.5596 25.4125 23.902Z" fill="#FFBD86"/>
<path d="M25.3053 48.7264V38.9052C25.3053 38.7052 25.1431 38.543 24.9431 38.543H7.77043C7.57039 38.543 7.4082 38.7052 7.4082 38.9052V48.7264H25.3053Z" fill="#01C0FA"/>
<path d="M12.4643 48.7264V38.9052C12.4643 38.7052 12.6264 38.543 12.8265 38.543H7.77043C7.57039 38.543 7.4082 38.7052 7.4082 38.9052V48.7264H12.4643Z" fill="#08A9F1"/>
<path d="M29.2796 60H3.91848C3.65176 60 3.43555 59.7838 3.43555 59.5171V49.0922C3.43555 48.8255 3.65176 48.6093 3.91848 48.6093H28.7967C29.0634 48.6093 29.2796 48.8255 29.2796 49.0922V60Z" fill="#FAEA5E"/>
<path d="M8.50203 59.5171V49.0922C8.50203 48.8255 8.71824 48.6093 8.98496 48.6093H3.91848C3.65176 48.6093 3.43555 48.8255 3.43555 49.0922V59.5171C3.43555 59.7838 3.65176 60 3.91848 60H8.98496C8.71824 60 8.50203 59.7838 8.50203 59.5171Z" fill="#FFD600"/>
<path d="M9.70059 56.4238H6.87227C6.73891 56.4238 6.63086 56.3158 6.63086 56.1824V52.1619C6.63086 52.0286 6.73891 51.9205 6.87227 51.9205H9.70059C9.83395 51.9205 9.94199 52.0286 9.94199 52.1619V56.1824C9.94199 56.3158 9.83395 56.4238 9.70059 56.4238Z" fill="white"/>
<path d="M12.8553 42.8657H10.6035C10.118 42.8657 9.72461 42.4722 9.72461 41.9868C9.72461 41.5014 10.118 41.1079 10.6035 41.1079H12.8553C13.3408 41.1079 13.7342 41.5014 13.7342 41.9868C13.7342 42.4722 13.3408 42.8657 12.8553 42.8657Z" fill="#0290CF"/>
<path d="M12.8553 45.6472H10.6035C10.118 45.6472 9.72461 45.2537 9.72461 44.7683C9.72461 44.2829 10.118 43.8894 10.6035 43.8894H12.8553C13.3408 43.8894 13.7342 44.2829 13.7342 44.7683C13.7342 45.2537 13.3408 45.6472 12.8553 45.6472Z" fill="#0290CF"/>
<path d="M42.0993 17.9936C41.6089 17.9936 41.1185 17.8066 40.7443 17.4324C35.299 11.9871 26.4389 11.9873 20.9939 17.4324C20.2456 18.1808 19.0322 18.1808 18.2839 17.4324C17.5356 16.6841 17.5356 15.4707 18.2839 14.7225C25.2234 7.78276 36.5149 7.78311 43.4544 14.7225C44.2027 15.4708 44.2027 16.6842 43.4544 17.4324C43.0802 17.8065 42.5898 17.9936 42.0993 17.9936Z" fill="#2FD3AE"/>
<path d="M23.3434 14.7223C26.1693 11.8962 29.7171 10.2214 33.3988 9.6971C28.0399 8.93398 22.3974 10.6087 18.2839 14.7223C17.5356 15.4707 17.5356 16.684 18.2839 17.4323C19.0322 18.1806 20.2456 18.1806 20.9939 17.4323C21.5583 16.8679 22.1597 16.3631 22.7898 15.9156C22.8263 15.4804 23.0103 15.0553 23.3434 14.7223Z" fill="#2FD3AE"/>
<path d="M51.6902 53.9073C51.6902 53.6067 51.9348 53.3622 52.2352 53.3622H54.2647L54.3121 53.245V43.6734C54.3121 43.4733 54.15 43.3112 53.9499 43.3112H50.3538V44.4721C50.3538 44.6073 50.2439 44.7172 50.1089 44.7172H44.7404C44.6053 44.7172 44.4954 44.6073 44.4954 44.4721V43.3112H40.8993C40.6993 43.3112 40.5371 43.4733 40.5371 43.6734V59.9999H51.5728L51.69 59.8434V53.9073H51.6902Z" fill="#EA9B58"/>
<path d="M44.3782 43.3112H40.8993C40.6993 43.3112 40.5371 43.4733 40.5371 43.6734V59.9999H44.3531V43.6734C44.3531 43.6274 44.3625 43.584 44.3782 43.5434V43.3112Z" fill="#F9AF2B"/>
<path d="M55.2405 59.9999H51.5742V53.9072C51.5742 53.5415 51.8707 53.245 52.2364 53.245H55.2405C55.972 53.245 56.565 53.838 56.565 54.5695V58.6755C56.5651 59.407 55.9721 59.9999 55.2405 59.9999Z" fill="#FED2A4"/>
<path d="M54.297 53.245H52.2364C51.8707 53.245 51.5742 53.5415 51.5742 53.9072V59.9999H53.6347V53.9072C53.6346 53.5415 53.9312 53.245 54.297 53.245Z" fill="#FFBD86"/>
<path d="M50.1095 44.8344H44.7411C44.5411 44.8344 44.3789 44.6723 44.3789 44.4722V41.8853C44.3789 41.6853 44.5411 41.5231 44.7411 41.5231H50.1095C50.3095 41.5231 50.4717 41.6853 50.4717 41.8853V44.4722C50.4717 44.6724 50.3095 44.8344 50.1095 44.8344Z" fill="#FAEA5E"/>
<path d="M46.9014 44.4722V41.8853C46.9014 41.6853 47.0636 41.5231 47.2636 41.5231H44.7411C44.5411 41.5231 44.3789 41.6853 44.3789 41.8853V44.4722C44.3789 44.6723 44.5411 44.8344 44.7411 44.8344H47.2636C47.0636 44.8343 46.9014 44.6721 46.9014 44.4722Z" fill="#FFD600"/>
<path d="M26.8242 20.5566C26.3387 20.5566 25.9453 20.1631 25.9453 19.6777V18.0748C25.9453 17.5894 26.3387 17.1959 26.8242 17.1959C27.3097 17.1959 27.7031 17.5894 27.7031 18.0748V19.6777C27.7031 20.1631 27.3097 20.5566 26.8242 20.5566Z" fill="#F9AF2B"/>
<path d="M34.9121 20.5566C34.4266 20.5566 34.0332 20.1631 34.0332 19.6777V18.0748C34.0332 17.5894 34.4266 17.1959 34.9121 17.1959C35.3976 17.1959 35.791 17.5894 35.791 18.0748V19.6777C35.791 20.1631 35.3975 20.5566 34.9121 20.5566Z" fill="#F9AF2B"/>
<path d="M30.8698 27.4981C29.5602 27.4981 28.2506 26.9996 27.2535 26.0025C26.9103 25.6593 26.9103 25.1028 27.2535 24.7596C27.5969 24.4164 28.1533 24.4164 28.4965 24.7596C29.8052 26.0683 31.9348 26.0681 33.2432 24.7596C33.5866 24.4164 34.143 24.4164 34.4862 24.7596C34.8295 25.1029 34.8295 25.6594 34.4862 26.0025C33.4892 26.9996 32.1795 27.4981 30.8698 27.4981Z" fill="#F9AF2B"/>
<path d="M31.7253 23.1231H30.4414C29.9559 23.1231 29.5625 22.7296 29.5625 22.2442V19.9629C29.5625 19.4775 29.9559 19.084 30.4414 19.084C30.9269 19.084 31.3203 19.4775 31.3203 19.9629V21.3653H31.7253C32.2108 21.3653 32.6042 21.7588 32.6042 22.2442C32.6042 22.7296 32.2107 23.1231 31.7253 23.1231Z" fill="#F9AF2B"/>
</g>
<defs>
<clipPath id="clip0_305_4963">
<rect width="60" height="60" fill="white"/>
</clipPath>
</defs>
</svg>
