<svg width="60" height="58" viewBox="0 0 60 58" fill="none" xmlns="http://www.w3.org/2000/svg">
<path fill-rule="evenodd" clip-rule="evenodd" d="M44.7677 25.7498H59.9995V31.0411C59.9995 32.3494 58.9318 33.4179 57.6246 33.4179H52.1457L48.8776 35.0688L44.7676 33.4179V25.7498H44.7677Z" fill="#F9AF2B"/>
<path fill-rule="evenodd" clip-rule="evenodd" d="M47.1425 18.0714H57.6244C58.9316 18.0714 59.9993 19.1399 59.9993 20.4482V24.38H44.7676V20.4482C44.7676 19.1399 45.8353 18.0714 47.1425 18.0714Z" fill="#F9AF2B"/>
<path fill-rule="evenodd" clip-rule="evenodd" d="M44.7676 23.1948H59.9993V26.9314H44.7676V23.1948Z" fill="#2FD3AE"/>
<path fill-rule="evenodd" clip-rule="evenodd" d="M56.8213 23.1948H58.7719H60.0005V20.4481C60.0005 19.5542 59.5008 18.7734 58.7719 18.3692C58.4297 18.1809 58.0396 18.0712 57.6255 18.0712H54.4463C55.7535 18.0712 56.8212 19.1397 56.8212 20.448V23.1948H56.8213Z" fill="#F48603"/>
<path fill-rule="evenodd" clip-rule="evenodd" d="M56.8203 26.9314H58.7709H59.9995V25.7497V24.3798V23.1948H58.7709H56.8203V24.3798V25.7497V26.9314Z" fill="#2FD3AE"/>
<path fill-rule="evenodd" clip-rule="evenodd" d="M56.8202 26.9314V31.0413C56.8202 32.3496 55.7525 33.4181 54.4453 33.4181H57.6245C58.0385 33.4181 58.4286 33.3119 58.7709 33.1236C59.4998 32.716 59.9995 31.9352 59.9995 31.0413V26.9314H58.7709H56.8202Z" fill="#F48603"/>
<path fill-rule="evenodd" clip-rule="evenodd" d="M44.768 33.4181H52.1461V36.8121C52.1461 37.6272 51.4788 38.2916 50.6678 38.2916H26.6455C26.6455 36.1579 26.6455 35.0722 28.2778 35.0722L31.5288 35.0688C33.5753 35.0654 34.9167 34.5413 35.6661 33.418H44.768V33.4181Z" fill="#6F6571"/>
<path fill-rule="evenodd" clip-rule="evenodd" d="M29.5434 38.2917H50.6681C51.9069 40.4494 52.9028 43.0421 52.0438 48.0012C50.6065 43.1105 36.0077 45.0627 34.5089 50.7068H18.401C17.7919 49.3266 17.217 47.9635 16.7139 46.5867H21.255C30.4399 43.1207 27.4867 44.6653 29.5434 38.2917Z" fill="#F9AF2B"/>
<path fill-rule="evenodd" clip-rule="evenodd" d="M28.2393 25.0341C28.5541 26.6917 28.9819 28.3254 29.4609 29.7158L34.1045 31.5353L39.2823 29.7158C39.1009 19.9173 35.4393 15.2184 32.3251 13.6978C31.2027 12.8432 30.0528 12.5212 30.0528 12.5212C30.0528 12.5212 28.5403 14.941 28.4616 14.941C27.8798 16.3247 27.6608 18.1296 27.6984 20.0783L28.2393 25.0341Z" fill="#ECEAEC"/>
<path fill-rule="evenodd" clip-rule="evenodd" d="M39.2817 29.7158H29.4602C27.1982 29.9624 24.416 31.6852 24.416 37.0211V42.6138L26.6449 43.9414L29.5423 42.6138V38.2916C29.5423 36.158 29.5423 35.0722 31.1746 35.0722L34.4256 35.0688C36.472 35.0654 37.8135 34.5414 38.5629 33.418C39.1413 32.5516 39.3638 31.3289 39.2817 29.7158Z" fill="#2FD3AE"/>
<path fill-rule="evenodd" clip-rule="evenodd" d="M39.2823 29.7158C39.1009 19.9172 35.4393 15.2184 32.3251 13.6978C31.8632 14.0231 31.3498 14.2903 30.7852 14.4889C33.5434 16.5746 36.3084 21.2358 36.4658 29.7158H39.2823Z" fill="#DAD8DB"/>
<path fill-rule="evenodd" clip-rule="evenodd" d="M39.2823 29.7158H36.4659C36.548 31.3289 36.3256 32.5516 35.7473 33.4181C35.275 34.1271 34.5632 34.7264 33.5879 35.069H34.4264C36.4728 35.0656 37.8143 34.5415 38.5637 33.4181C39.1419 32.5516 39.3643 31.3289 39.2823 29.7158Z" fill="#2FD3AE"/>
<path fill-rule="evenodd" clip-rule="evenodd" d="M34.5088 50.7068C34.5088 45.6415 38.5229 41.6069 43.4747 41.6069C47.5025 41.6069 50.9109 44.2783 52.0437 48.0011C52.2764 48.7649 52.4133 49.5766 52.4372 50.4191C52.4475 50.7479 52.2216 50.7068 51.9136 50.7068C46.1132 50.7068 40.3092 50.7034 34.5088 50.7068Z" fill="#2FD3AE"/>
<path fill-rule="evenodd" clip-rule="evenodd" d="M36.7637 50.7068H50.4111C50.2161 54.3851 47.2354 57.31 43.5874 57.31C39.9393 57.31 36.9587 54.3851 36.7637 50.7068Z" fill="#6F6571"/>
<path fill-rule="evenodd" clip-rule="evenodd" d="M2.10791 49.2512L13.8492 51.9535C13.1031 55.1969 9.86923 57.2243 6.62853 56.4777C3.38443 55.7311 1.36189 52.4946 2.10791 49.2512Z" fill="#6F6571"/>
<path fill-rule="evenodd" clip-rule="evenodd" d="M1.22859 45.9599C2.88832 43.5454 5.76973 42.1446 8.78121 42.446C14.0924 43.5694 15.8205 46.7442 16.1661 50.7034C16.1593 51.2411 16.1011 51.7822 15.9847 52.3234C15.9505 52.4741 15.8513 52.4125 15.687 52.3747L13.8492 51.9535L2.10797 49.2512L1.22848 49.0492L0 48.7649C0.236133 47.7306 0.660469 46.7854 1.22859 45.9599Z" fill="#ECEAEC"/>
<path fill-rule="evenodd" clip-rule="evenodd" d="M8.77148 42.4324L13.5145 26.0205L15.6499 25.0649L18.0386 26.0205C14.9005 34.7197 15.7765 40.7919 17.8949 46.5868C18.4014 47.9636 18.9763 49.3266 19.582 50.7069H16.1701L8.77148 42.4324Z" fill="#2FD3AE"/>
<path fill-rule="evenodd" clip-rule="evenodd" d="M23.4584 7.61871L29.0228 6.43372C29.5874 6.48504 31.2028 7.84137 31.2028 8.69075L30.0187 14.7116C29.5259 14.8589 29.0023 14.9411 28.4616 14.9411C25.4981 14.9411 23.0957 12.5334 23.0957 9.56742C23.0957 8.87907 23.2223 8.22141 23.4584 7.61871Z" fill="#FFECE4"/>
<path fill-rule="evenodd" clip-rule="evenodd" d="M21.6621 7.61866C21.6621 3.78968 24.6941 0.690186 28.4379 0.690186C32.1817 0.690186 35.2137 3.78968 35.2137 7.61866C35.2137 10.1462 34.187 12.3929 32.3254 13.6978C31.6615 14.167 30.888 14.5129 30.0189 14.7116V8.69058C30.0189 7.8412 29.5877 7.66999 29.023 7.61855H23.4587H21.6621V7.61866Z" fill="#2FD3AE"/>
<path fill-rule="evenodd" clip-rule="evenodd" d="M24.8926 1.71417C25.9227 1.06343 27.1375 0.690186 28.4379 0.690186C32.1817 0.690186 35.2137 3.78968 35.2137 7.61866C35.2137 10.1462 34.187 12.3929 32.3253 13.6978C31.8531 14.03 31.3295 14.3006 30.7545 14.4992C32.1302 13.1053 32.8762 11.1052 32.8762 8.89952C32.8762 4.89933 29.704 1.65593 25.7925 1.65593C25.488 1.65593 25.1868 1.67304 24.8926 1.71417Z" fill="#2FD3AE"/>
<path fill-rule="evenodd" clip-rule="evenodd" d="M24.4159 42.6139H29.5423V45.8436C29.5423 46.5355 29.1658 46.5868 28.6114 46.5868H21.2539C21.1066 43.3468 23.0675 42.6139 24.4159 42.6139Z" fill="#6F6571"/>
<path fill-rule="evenodd" clip-rule="evenodd" d="M17.8938 46.5867C15.7755 40.7919 14.8994 34.7196 18.0375 26.0204H16.2785C16.2717 26.0204 16.2648 26.0204 16.258 26.0204H15.6249C12.4869 34.7196 13.3595 40.7917 15.4811 46.5867C15.9842 47.9635 16.5592 49.3265 17.1683 50.7067H18.4003H19.581C18.9752 49.3265 18.4003 47.9634 17.8938 46.5867Z" fill="#2FD3AE"/>
<path fill-rule="evenodd" clip-rule="evenodd" d="M16.1665 50.7034L8.78156 42.446C8.01844 42.3707 7.26211 42.4015 6.5332 42.5351L13.6307 50.4704C13.6239 50.9327 13.5793 51.4019 13.4904 51.8712L13.8497 51.9533L15.6874 52.3746C15.8517 52.4122 15.951 52.474 15.9852 52.3233C16.1014 51.7822 16.1596 51.241 16.1665 50.7034Z" fill="#DAD8DB"/>
<path fill-rule="evenodd" clip-rule="evenodd" d="M50.6686 38.2917H29.5439V40.1514H46.9009C48.3142 40.1514 48.985 40.761 49.536 41.9975C50.0117 43.0695 50.022 43.4188 50.2375 44.7134C51.0486 45.6552 51.6714 46.7718 52.0444 48.0012C52.9033 43.0419 51.9074 40.4494 50.6686 38.2917Z" fill="#F48603"/>
<path fill-rule="evenodd" clip-rule="evenodd" d="M50.2366 44.7132C48.594 42.8055 46.1745 41.6069 43.4745 41.6069C42.797 41.6069 42.1399 41.6823 41.5068 41.8227C45.5484 42.7371 48.3751 46.3058 48.4982 50.4191C48.505 50.6451 48.4024 50.6965 48.2382 50.7068H50.4112H51.9135C52.2215 50.7068 52.4475 50.7479 52.4371 50.4191C52.4132 49.5766 52.2764 48.7649 52.0436 48.0011C52.0368 47.9771 52.0299 47.9566 52.0231 47.9361C52.0231 47.9361 52.0231 47.9361 52.0231 47.9327C51.6466 46.7305 51.0341 45.6379 50.2366 44.7132Z" fill="#2FD3AE"/>
<path fill-rule="evenodd" clip-rule="evenodd" d="M13.4896 51.8712L2.10752 49.2512C1.98096 49.7889 1.93643 50.33 1.95693 50.8575L10.9913 52.9364L11.3472 53.0186C11.0118 54.4913 10.1597 55.7139 9.02697 56.5393C11.3369 56.1318 13.291 54.3851 13.8488 51.9534L13.4896 51.8712Z" fill="#5D5360"/>
<path fill-rule="evenodd" clip-rule="evenodd" d="M48.2381 50.7068H36.7637C36.8013 51.426 36.9485 52.1178 37.1846 52.7651H45.1787H47.3517C47.2661 54.3748 46.6502 55.8371 45.6782 56.9776C48.3167 56.1111 50.257 53.6487 50.411 50.7067H48.2381V50.7068Z" fill="#5D5360"/>
<path fill-rule="evenodd" clip-rule="evenodd" d="M52.1466 36.8121V33.4181H47.5096V36.8121C47.5096 37.6272 46.8423 38.2916 46.0312 38.2916H50.6682C51.4793 38.2917 52.1466 37.6272 52.1466 36.8121Z" fill="#5D5360"/>
<path fill-rule="evenodd" clip-rule="evenodd" d="M23.123 8.99209H27.695C28.2596 9.04342 28.6909 9.21814 28.6909 10.0675V14.9342C29.1494 14.9137 29.5943 14.8383 30.0186 14.7115V8.69068C30.0186 7.84131 29.5875 7.6701 29.0227 7.61865H23.4584C23.2907 8.05025 23.1744 8.51256 23.123 8.99209Z" fill="#FFDDCE"/>
<path fill-rule="evenodd" clip-rule="evenodd" d="M12.5251 20.8523L18.9278 22.9688C19.2427 23.2496 18.8868 26.1128 18.6746 26.0204H13.514H11.2314V21.3078C11.2314 20.3797 11.714 20.5851 12.5251 20.8523Z" fill="#F9AF2B"/>
<path fill-rule="evenodd" clip-rule="evenodd" d="M21.9116 26.0203H21.3743H18.6743C16.9358 26.0203 16.8845 23.1366 18.9275 22.9688L21.9116 22.729L22.7123 24.4244L21.9116 26.0203Z" fill="#FFECE4"/>
<path fill-rule="evenodd" clip-rule="evenodd" d="M27.698 20.0783L28.7691 19.157C31.4519 16.8452 34.8433 20.7462 31.2569 23.075L28.2387 25.034L26.7192 26.0204H21.9111V22.7291L24.8986 22.4859L27.698 20.0783Z" fill="#2FD3AE"/>
<path fill-rule="evenodd" clip-rule="evenodd" d="M21.9115 26.0204V24.4244H21.2716H20.926H20.3853H17.6853C17.5826 24.4244 17.4867 24.4176 17.3944 24.397C17.2951 25.1915 17.7435 26.0204 18.6743 26.0204H21.3743H21.9115Z" fill="#FFDDCE"/>
<path fill-rule="evenodd" clip-rule="evenodd" d="M31.257 23.075C33.4266 21.6639 33.0432 19.681 31.808 18.8453C31.9072 19.7015 31.5 20.6845 30.268 21.4825L27.917 23.0065L27.2531 23.4415L25.7337 24.4245H21.9111V26.0205H26.7192L28.2387 25.0341L31.257 23.075Z" fill="#2FD3AE"/>
<path fill-rule="evenodd" clip-rule="evenodd" d="M18.9275 22.9688L16.3506 22.1194C15.4882 23.0441 15.0707 24.8455 15.6251 26.0203H18.0377H18.6742C17.7434 26.0203 17.2952 25.1915 17.3943 24.3969C17.4833 23.7086 17.9795 23.0475 18.9275 22.9688Z" fill="#F48603"/>
</svg>
