<svg width="14" height="14" viewBox="0 0 14 14" fill="none" xmlns="http://www.w3.org/2000/svg">
<path d="M6.99967 0.333344C3.32367 0.333344 0.333008 3.32401 0.333008 7.00001C0.333008 10.676 3.32367 13.6667 6.99967 13.6667C10.6757 13.6667 13.6663 10.676 13.6663 7.00001C13.6663 3.32401 10.6757 0.333344 6.99967 0.333344ZM6.99967 12.3333C4.05901 12.3333 1.66634 9.94068 1.66634 7.00001C1.66634 4.05934 4.05901 1.66668 6.99967 1.66668C9.94034 1.66668 12.333 4.05934 12.333 7.00001C12.333 9.94068 9.94034 12.3333 6.99967 12.3333Z" fill="#6FCF97"/>
<path d="M7.66634 3.66668H6.33301V7.66668H10.333V6.33334H7.66634V3.66668Z" fill="#6FCF97"/>
</svg>
