<svg width="9" height="13" viewBox="0 0 9 13" fill="none" xmlns="http://www.w3.org/2000/svg">
<path d="M3.8601 9.15652C2.8523 9.05141 1.94362 8.8032 1.16564 8.19473C1.06911 8.11903 0.969442 8.04605 0.881351 7.9615C0.540833 7.63446 0.506523 7.25991 0.775969 6.87391C1.00648 6.54361 1.39342 6.45524 1.79562 6.6449C1.8735 6.68167 1.9477 6.72755 2.01877 6.77684C3.46866 7.77307 5.46044 7.80057 6.91578 6.82163C7.05997 6.71107 7.21409 6.62094 7.39272 6.57492C7.74005 6.48574 8.06396 6.61332 8.25035 6.91721C8.46329 7.26426 8.46057 7.60301 8.1982 7.87246C7.79574 8.28555 7.31171 8.5844 6.77391 8.79299C6.26538 8.99014 5.70838 9.08939 5.15709 9.15529C5.24028 9.24583 5.2795 9.29035 5.33151 9.34264C6.08007 10.0947 6.83191 10.8437 7.57803 11.5981C7.83222 11.8552 7.88532 12.1739 7.74536 12.4729C7.59232 12.7997 7.24976 13.0147 6.91387 12.9917C6.70107 12.977 6.5351 12.871 6.38764 12.7225C5.82275 12.1541 5.24723 11.5961 4.69377 11.0169C4.5327 10.8485 4.45523 10.8803 4.31308 11.0266C3.74478 11.6116 3.16722 12.1877 2.58626 12.7605C2.32539 13.0177 2.01496 13.064 1.71243 12.9171C1.39084 12.7612 1.1862 12.4329 1.20199 12.103C1.21288 11.8798 1.32262 11.7094 1.47579 11.5565C2.2166 10.8168 2.95537 10.0751 3.6944 9.33419C3.74328 9.28491 3.78889 9.23262 3.8601 9.15652Z" fill="white"/>
<path d="M4.47389 6.58014C2.67599 6.57401 1.20173 5.08355 1.21221 3.28279C1.22256 1.46216 2.69778 -0.00502472 4.51338 1.2934e-05C6.33265 0.00491443 7.79289 1.4932 7.78377 3.33276C7.77451 5.12984 6.29003 6.5864 4.47389 6.58014ZM6.10786 3.28715C6.10473 2.39303 5.39265 1.68123 4.5003 1.68041C3.60047 1.67946 2.88199 2.4042 2.88894 3.30648C2.89561 4.19719 3.61381 4.90396 4.50861 4.90069C5.40068 4.89756 6.11086 4.18113 6.10786 3.28715Z" fill="white"/>
</svg>
