<svg width="13" height="13" viewBox="0 0 13 13" fill="none" xmlns="http://www.w3.org/2000/svg">
<path d="M4.23523 11.3809C8.83453 11.3809 11.3497 7.57056 11.3497 4.26648C11.3497 4.15826 11.3474 4.05048 11.3426 3.94331C11.8308 3.59032 12.2551 3.14984 12.5899 2.64846C12.1419 2.84769 11.6597 2.98162 11.154 3.04222C11.6702 2.73254 12.0665 2.24286 12.2535 1.65912C11.7703 1.94555 11.2353 2.15364 10.6657 2.26604C10.2094 1.78002 9.55972 1.47607 8.84041 1.47607C7.45963 1.47607 6.33979 2.59584 6.33979 3.97618C6.33979 4.17249 6.36178 4.3633 6.40463 4.54635C4.32646 4.44178 2.48358 3.44685 1.25044 1.93385C1.03579 2.30331 0.911919 2.73261 0.911919 3.19068C0.911919 4.05809 1.35337 4.82405 2.02461 5.27199C1.61438 5.25939 1.22905 5.14678 0.892168 4.95933C0.891796 4.96984 0.891796 4.98005 0.891796 4.99123C0.891796 6.20222 1.75368 7.21333 2.89797 7.44244C2.68779 7.4996 2.46666 7.53039 2.23859 7.53039C2.07775 7.53039 1.92093 7.51458 1.76859 7.48529C2.08692 8.47881 3.01007 9.20177 4.1045 9.22204C3.24865 9.89283 2.17054 10.2924 0.998824 10.2924C0.797289 10.2924 0.598065 10.2808 0.402344 10.2577C1.509 10.9671 2.82307 11.381 4.2353 11.381" fill="white"/>
</svg>
