<svg width="14" height="9" viewBox="0 0 14 9" fill="none" xmlns="http://www.w3.org/2000/svg">
<path d="M13.6289 7.69691C13.6289 7.64502 13.5771 7.64502 13.5771 7.59313C13.3695 7.17802 12.9025 6.65913 12.2798 6.08835C11.9685 5.8289 11.8128 5.62134 11.709 5.51756C11.5534 5.31 11.5534 5.15434 11.6053 4.94678C11.6572 4.79112 11.8647 4.53166 12.2279 4.06466C12.4355 3.80521 12.5393 3.64955 12.6949 3.49388C13.4733 2.45609 13.8365 1.78153 13.7327 1.47019L13.6808 1.41831C13.6289 1.36642 13.577 1.31453 13.4733 1.31453C13.3695 1.26264 13.2138 1.26264 13.0582 1.31453H11.0864C11.0345 1.31453 11.0345 1.31453 10.9307 1.31453C10.8788 1.31453 10.8269 1.31453 10.8269 1.31453H10.775H10.7231L10.6712 1.36641C10.6194 1.4183 10.6194 1.4183 10.6194 1.47019C10.4118 2.04097 10.1524 2.50798 9.89291 3.02687C9.73724 3.28632 9.58157 3.54577 9.42591 3.75333C9.27024 3.96088 9.16645 4.11655 9.06267 4.22033C8.95889 4.32411 8.85512 4.376 8.80323 4.47977C8.75134 4.53166 8.64757 4.58356 8.64757 4.53167C8.59568 4.53167 8.54378 4.53166 8.54378 4.47977C8.49189 4.42789 8.44001 4.37599 8.38812 4.32411C8.33623 4.27222 8.33622 4.16844 8.28433 4.06466C8.28433 3.96088 8.28433 3.8571 8.28433 3.80521C8.28433 3.75332 8.28433 3.59766 8.28433 3.49388C8.28433 3.33821 8.28433 3.23443 8.28433 3.18254C8.28433 3.02687 8.28433 2.81932 8.28433 2.61176C8.28433 2.40421 8.28433 2.24853 8.28433 2.14475C8.28433 2.04098 8.28433 1.88531 8.28433 1.78153C8.28433 1.62586 8.28433 1.52208 8.28433 1.47019C8.28433 1.4183 8.23246 1.31453 8.23246 1.26264C8.18057 1.21075 8.12867 1.15886 8.07678 1.10697C8.02489 1.05508 7.92111 1.05508 7.86923 1.00319C7.60978 0.951302 7.29845 0.899414 6.93522 0.899414C6.10499 0.899414 5.53421 0.951305 5.32665 1.05508C5.22287 1.10697 5.11909 1.15886 5.0672 1.26264C4.96343 1.36642 4.96342 1.41831 5.01531 1.41831C5.27476 1.4702 5.48232 1.57397 5.5861 1.72964L5.63799 1.83342C5.68988 1.88531 5.68987 1.98909 5.74176 2.14475C5.79365 2.30042 5.79365 2.45609 5.79365 2.66365C5.79365 2.97498 5.79365 3.28632 5.79365 3.49388C5.79365 3.75333 5.74176 3.90899 5.74176 4.06466C5.74176 4.22033 5.68988 4.32411 5.63799 4.376C5.5861 4.47978 5.58609 4.53167 5.53421 4.53167C5.53421 4.53167 5.5342 4.58355 5.48231 4.58355C5.43042 4.58355 5.37854 4.63544 5.27476 4.63544C5.22287 4.63544 5.11909 4.58356 5.0672 4.53167C4.96343 4.47978 4.85965 4.376 4.80776 4.27222C4.70398 4.16844 4.6002 4.01277 4.49642 3.80521C4.39264 3.59765 4.23697 3.3901 4.13319 3.07876L4.02942 2.87121C3.97753 2.76743 3.87375 2.55987 3.76997 2.30042C3.66619 2.04098 3.56241 1.83342 3.45863 1.57398C3.40674 1.4702 3.35486 1.4183 3.30297 1.36641H3.25108C3.25108 1.36641 3.19918 1.31453 3.14729 1.31453C3.0954 1.31453 3.04352 1.26264 2.99163 1.26264H1.12361C0.916055 1.26264 0.812278 1.31453 0.760389 1.36641L0.708496 1.41831C0.708496 1.41831 0.708496 1.4702 0.708496 1.52208C0.708496 1.57397 0.708499 1.62586 0.760389 1.72964C1.01984 2.35231 1.33117 2.97499 1.64251 3.59766C1.95384 4.16844 2.26518 4.68734 2.47274 5.05056C2.73218 5.41379 2.93974 5.77701 3.19919 6.08835C3.45863 6.39968 3.6143 6.60724 3.66619 6.71102C3.76996 6.8148 3.82185 6.86668 3.87374 6.91857L4.02942 7.07424C4.1332 7.17802 4.28886 7.33369 4.49642 7.48936C4.70398 7.64503 4.96342 7.80069 5.22287 7.95636C5.48231 8.11203 5.79365 8.21581 6.10499 8.31959C6.46822 8.42337 6.77955 8.47526 7.09089 8.42337H7.86923C8.02489 8.42337 8.12868 8.37148 8.23246 8.2677L8.28433 8.21581C8.28433 8.16392 8.33623 8.16392 8.33623 8.11203C8.33623 8.06014 8.33623 8.00825 8.33623 7.90447C8.33623 7.69692 8.33623 7.54125 8.38812 7.38558C8.44001 7.22991 8.44001 7.12614 8.4919 7.02236C8.54379 6.91858 8.59568 6.86668 8.64757 6.81479C8.69945 6.76291 8.75135 6.71102 8.75135 6.71102H8.80323C8.90701 6.65913 9.06268 6.71102 9.16646 6.81479C9.32213 6.91857 9.47779 7.07424 9.58157 7.22991C9.68535 7.38558 9.84103 7.54125 10.0486 7.7488C10.2561 7.95636 10.4118 8.11203 10.5156 8.16392L10.6712 8.2677C10.775 8.31959 10.8788 8.37148 11.0345 8.42337C11.1901 8.47526 11.2939 8.47525 11.3977 8.47525L13.1619 8.42337C13.3176 8.42337 13.4733 8.37148 13.5771 8.31959C13.6808 8.2677 13.7327 8.21581 13.7327 8.11203C13.7327 8.06014 13.7327 7.95636 13.7327 7.90447C13.6289 7.8007 13.6289 7.7488 13.6289 7.69691Z" fill="white"/>
</svg>
