<svg width="12" height="12" viewBox="0 0 12 12" fill="none" xmlns="http://www.w3.org/2000/svg">
<path fill-rule="evenodd" clip-rule="evenodd" d="M7.58446 6.31792C8.69774 4.75578 8.55364 2.57306 7.15216 1.17157C5.59006 -0.390524 3.0574 -0.390524 1.4953 1.17157C-0.0667939 2.73367 -0.0667939 5.26633 1.4953 6.82843C2.89679 8.22991 5.07951 8.37401 6.64165 7.26072L10.452 11.0711L11.3948 10.1283L7.58446 6.31792ZM6.20935 2.11438C7.25075 3.15578 7.25075 4.84422 6.20935 5.88562C5.16795 6.92702 3.47951 6.92702 2.43811 5.88562C1.39671 4.84422 1.39671 3.15578 2.43811 2.11438C3.47951 1.07298 5.16795 1.07298 6.20935 2.11438Z" fill="#828282"/>
</svg>
